mtllib impulse_engine_wedge_top_right_on.mtl
o thruster
v 0.25251263 0.70040634 1.01583650
v 0.92866070 0.75639198 0.84353043
v 0.92413137 0.76161551 0.82745405
v 0.24798329 0.70562987 0.99976013
vt 0.00000000 1.00000000
vt 1.00000000 1.00000000
vt 1.00000000 0.00000000
vt 0.00000000 0.00000000
vn 0.00000000 0.95105652 0.30901699
vn 0.00000000 0.95105652 0.30901699
vn 0.00000000 0.95105652 0.30901699
vn 0.00000000 0.95105652 0.30901699
usemtl trim
f 1/1/1 2/2/2 3/3/3 4/4/4
v 0.92866070 0.75639198 0.84353043
v 0.92866070 0.71478325 0.83001093
v 0.92413137 0.72000679 0.81393456
v 0.92413137 0.76161551 0.82745405
vt 0.00000000 1.00000000
vt 1.00000000 1.00000000
vt 1.00000000 0.00000000
vt 0.00000000 0.00000000
vn 0.96592583 0.07997948 -0.24615154
vn 0.96592583 0.07997948 -0.24615154
vn 0.96592583 0.07997948 -0.24615154
vn 0.96592583 0.07997948 -0.24615154
usemtl trim
f 5/5/5 6/6/6 7/7/7 8/8/8
v 0.92866070 0.71478325 0.83001093
v 0.29477188 0.03816588 0.78875548
v 0.29024255 0.04338941 0.77267910
v 0.92413137 0.72000679 0.81393456
vt 0.00000000 1.00000000
vt 1.00000000 1.00000000
vt 1.00000000 0.00000000
vt 0.00000000 0.00000000
vn 0.68301270 -0.61594448 -0.39256343
vn 0.68301270 -0.61594448 -0.39256343
vn 0.68301270 -0.61594448 -0.39256343
vn 0.68301270 -0.61594448 -0.39256343
usemtl trim
f 9/9/9 10/10/10 11/11/11 12/12/12
v 0.29477188 0.03816588 0.78875548
v 0.25251263 0.03466678 0.79952461
v 0.24798329 0.03989031 0.78344823
v 0.29024255 0.04338941 0.77267910
vt 0.00000000 1.00000000
vt 1.00000000 1.00000000
vt 1.00000000 0.00000000
vt 0.00000000 0.00000000
vn 0.00000000 -0.95105652 -0.30901699
vn 0.00000000 -0.95105652 -0.30901699
vn 0.00000000 -0.95105652 -0.30901699
vn 0.00000000 -0.95105652 -0.30901699
usemtl trim
f 13/13/13 14/14/14 15/15/15 16/16/16
v 0.25251263 0.03466678 0.79952461
v 0.25251263 0.70040634 1.01583650
v 0.24798329 0.70562987 0.99976013
v 0.24798329 0.03989031 0.78344823
vt 0.00000000 1.00000000
vt 1.00000000 1.00000000
vt 1.00000000 0.00000000
vt 0.00000000 0.00000000
vn -0.96592583 -0.07997948 0.24615154
vn -0.96592583 -0.07997948 0.24615154
vn -0.96592583 -0.07997948 0.24615154
vn -0.96592583 -0.07997948 0.24615154
usemtl trim
f 17/17/17 18/18/18 19/19/19 20/20/20
v 0.24798329 0.70562987 0.99976013
v 0.92413137 0.76161551 0.82745405
v 0.75428137 0.95749793 0.22458996
v 0.07813329 0.90151229 0.39689603
vt 0.00000000 1.00000000
vt 1.00000000 1.00000000
vt 1.00000000 0.00000000
vt 0.00000000 0.00000000
vn 0.00000000 0.95105652 0.30901699
vn 0.00000000 0.95105652 0.30901699
vn 0.00000000 0.95105652 0.30901699
vn 0.00000000 0.95105652 0.30901699
usemtl side
f 21/21/21 22/22/22 23/23/23 24/24/24
v 0.92413137 0.76161551 0.82745405
v 0.92413137 0.72000679 0.81393456
v 0.75428137 0.91588920 0.21107046
v 0.75428137 0.95749793 0.22458996
vt 0.00000000 1.00000000
vt 1.00000000 1.00000000
vt 1.00000000 0.00000000
vt 0.00000000 0.00000000
vn 0.96592583 0.07997948 -0.24615154
vn 0.96592583 0.07997948 -0.24615154
vn 0.96592583 0.07997948 -0.24615154
vn 0.96592583 0.07997948 -0.24615154
usemtl side
f 25/25/25 26/26/26 27/27/27 28/28/28
v 0.92413137 0.72000679 0.81393456
v 0.29024255 0.04338941 0.77267910
v 0.12039255 0.23927183 0.16981501
v 0.75428137 0.91588920 0.21107046
vt 0.00000000 1.00000000
vt 1.00000000 1.00000000
vt 1.00000000 0.00000000
vt 0.00000000 0.00000000
vn 0.68301270 -0.61594448 -0.39256343
vn 0.68301270 -0.61594448 -0.39256343
vn 0.68301270 -0.61594448 -0.39256343
vn 0.68301270 -0.61594448 -0.39256343
usemtl side
f 29/29/29 30/30/30 31/31/31 32/32/32
v 0.29024255 0.04338941 0.77267910
v 0.24798329 0.03989031 0.78344823
v 0.07813329 0.23577273 0.18058414
v 0.12039255 0.23927183 0.16981501
vt 0.00000000 1.00000000
vt 1.00000000 1.00000000
vt 1.00000000 0.00000000
vt 0.00000000 0.00000000
vn 0.00000000 -0.95105652 -0.30901699
vn 0.00000000 -0.95105652 -0.30901699
vn 0.00000000 -0.95105652 -0.30901699
vn 0.00000000 -0.95105652 -0.30901699
usemtl side
f 33/33/33 34/34/34 35/35/35 36/36/36
v 0.24798329 0.03989031 0.78344823
v 0.24798329 0.70562987 0.99976013
v 0.07813329 0.90151229 0.39689603
v 0.07813329 0.23577273 0.18058414
vt 0.00000000 1.00000000
vt 1.00000000 1.00000000
vt 1.00000000 0.00000000
vt 0.00000000 0.00000000
vn -0.96592583 -0.07997948 0.24615154
vn -0.96592583 -0.07997948 0.24615154
vn -0.96592583 -0.07997948 0.24615154
vn -0.96592583 -0.07997948 0.24615154
usemtl side
f 37/37/37 38/38/38 39/39/39 40/40/40
v 0.07813329 0.90151229 0.39689603
v 0.75428137 0.95749793 0.22458996
v 0.71002465 0.95034307 0.20615949
v 0.08341337 0.89845912 0.36584186
vt 0.00000000 1.00000000
vt 1.00000000 1.00000000
vt 1.00000000 0.00000000
vt 0.00000000 0.00000000
vn -0.11127500 0.98700118 -0.11595926
vn -0.11127500 0.98700118 -0.11595926
vn -0.11127500 0.98700118 -0.11595926
vn -0.11127500 0.98700118 -0.11595926
usemtl dark_trim
f 41/41/41 42/42/42 43/43/43 44/44/44
v 0.75428137 0.95749793 0.22458996
v 0.75428137 0.91588920 0.21107046
v 0.71002465 0.91063646 0.19325803
v 0.71002465 0.95034307 0.20615949
vt 0.00000000 1.00000000
vt 1.00000000 1.00000000
vt 1.00000000 0.00000000
vt 0.00000000 0.00000000
vn 0.32706876 0.29202123 -0.89874892
vn 0.32706876 0.29202123 -0.89874892
vn 0.32706876 0.29202123 -0.89874892
vn 0.32706876 0.29202123 -0.89874892
usemtl dark_trim
f 45/45/45 46/46/46 47/47/47 48/48/48
v 0.75428137 0.91588920 0.21107046
v 0.12039255 0.23927183 0.16981501
v 0.12374077 0.28483294 0.15510085
v 0.71002465 0.91063646 0.19325803
vt 0.00000000 1.00000000
vt 1.00000000 1.00000000
vt 1.00000000 0.00000000
vt 0.00000000 0.00000000
vn 0.38643444 -0.30904545 -0.86899904
vn 0.38643444 -0.30904545 -0.86899904
vn 0.38643444 -0.30904545 -0.86899904
vn 0.38643444 -0.30904545 -0.86899904
usemtl dark_trim
f 49/49/49 50/50/50 51/51/51 52/52/52
v 0.12039255 0.23927183 0.16981501
v 0.07813329 0.23577273 0.18058414
v 0.08341337 0.28149380 0.16537768
v 0.12374077 0.28483294 0.15510085
vt 0.00000000 1.00000000
vt 1.00000000 1.00000000
vt 1.00000000 0.00000000
vt 0.00000000 0.00000000
vn -0.21434068 -0.28588301 -0.93398553
vn -0.21434068 -0.28588301 -0.93398553
vn -0.21434068 -0.28588301 -0.93398553
vn -0.21434068 -0.28588301 -0.93398553
usemtl dark_trim
f 53/53/53 54/54/54 55/55/55 56/56/56
v 0.07813329 0.23577273 0.18058414
v 0.07813329 0.90151229 0.39689603
v 0.08341337 0.89845912 0.36584186
v 0.08341337 0.28149380 0.16537768
vt 0.00000000 1.00000000
vt 1.00000000 1.00000000
vt 1.00000000 0.00000000
vt 0.00000000 0.00000000
vn -0.98337129 0.05611948 -0.17271800
vn -0.98337129 0.05611948 -0.17271800
vn -0.98337129 0.05611948 -0.17271800
vn -0.98337129 0.05611948 -0.17271800
usemtl dark_trim
f 57/57/57 58/58/58 59/59/59 60/60/60
v 0.34212336 0.66515308 0.21714758
v 0.08341337 0.89845912 0.36584186
v 0.71002465 0.95034307 0.20615949
vt 0.59951958 0.40048042
vt 0.98214286 0.01785714
vt 0.05540610 0.01785714
vn -0.25881905 0.29848750 -0.91865005
vn -0.25881905 0.29848750 -0.91865005
vn -0.25881905 0.29848750 -0.91865005
usemtl rear
f 61/61/61 62/62/62 63/63/63
v 0.34212336 0.66515308 0.21714758
v 0.71002465 0.95034307 0.20615949
v 0.71002465 0.91063646 0.19325803
vt 0.59951958 0.40048042
vt 0.05540610 0.01785714
vt 0.05540610 0.07750000
vn -0.25881905 0.29848750 -0.91865005
vn -0.25881905 0.29848750 -0.91865005
vn -0.25881905 0.29848750 -0.91865005
usemtl rear
f 64/64/64 65/65/65 66/66/66
v 0.34212336 0.66515308 0.21714758
v 0.71002465 0.91063646 0.19325803
v 0.12374077 0.28483294 0.15510085
vt 0.59951958 0.40048042
vt 0.05540610 0.07750000
vt 0.92250000 0.94459390
vn -0.25881905 0.29848750 -0.91865005
vn -0.25881905 0.29848750 -0.91865005
vn -0.25881905 0.29848750 -0.91865005
usemtl rear
f 67/67/67 68/68/68 69/69/69
v 0.34212336 0.66515308 0.21714758
v 0.12374077 0.28483294 0.15510085
v 0.08341337 0.28149380 0.16537768
vt 0.59951958 0.40048042
vt 0.92250000 0.94459390
vt 0.98214286 0.94459390
vn -0.25881905 0.29848750 -0.91865005
vn -0.25881905 0.29848750 -0.91865005
vn -0.25881905 0.29848750 -0.91865005
usemtl rear
f 70/70/70 71/71/71 72/72/72
v 0.34212336 0.66515308 0.21714758
v 0.08341337 0.28149380 0.16537768
v 0.08341337 0.89845912 0.36584186
vt 0.59951958 0.40048042
vt 0.98214286 0.94459390
vt 0.98214286 0.01785714
vn -0.25881905 0.29848750 -0.91865005
vn -0.25881905 0.29848750 -0.91865005
vn -0.25881905 0.29848750 -0.91865005
usemtl rear
f 73/73/73 74/74/74 75/75/75
v 0.30533670 0.65276931 0.98547573
v 0.76476126 0.69081006 0.86839835
v 0.92866070 0.75639198 0.84353043
v 0.25251263 0.70040634 1.01583650
vt 0.92187500 0.07812500
vt 0.24240170 0.07812500
vt 0.00000000 0.00000000
vt 1.00000000 0.00000000
vn 0.25881905 -0.29848750 0.91865005
vn 0.25881905 -0.29848750 0.91865005
vn 0.25881905 -0.29848750 0.91865005
vn 0.25881905 -0.29848750 0.91865005
usemtl trim
f 76/76/76 77/77/77 78/78/78 79/79/79
v 0.76476126 0.69081006 0.86839835
v 0.76476126 0.65752308 0.85758275
v 0.92866070 0.71478325 0.83001093
v 0.92866070 0.75639198 0.84353043
vt 0.24240170 0.07812500
vt 0.24240170 0.12812500
vt 0.00000000 0.06250000
vt 0.00000000 0.00000000
vn 0.25881905 -0.29848750 0.91865005
vn 0.25881905 -0.29848750 0.91865005
vn 0.25881905 -0.29848750 0.91865005
vn 0.25881905 -0.29848750 0.91865005
usemtl trim
f 80/80/80 81/81/81 82/82/82 83/83/83
v 0.76476126 0.65752308 0.85758275
v 0.33914410 0.20321634 0.82988226
v 0.29477188 0.03816588 0.78875548
v 0.92866070 0.71478325 0.83001093
vt 0.24240170 0.12812500
vt 0.87187500 0.75759830
vt 0.93750000 1.00000000
vt 0.00000000 0.06250000
vn 0.25881905 -0.29848750 0.91865005
vn 0.25881905 -0.29848750 0.91865005
vn 0.25881905 -0.29848750 0.91865005
vn 0.25881905 -0.29848750 0.91865005
usemtl trim
f 84/84/84 85/85/85 86/86/86 87/87/87
v 0.33914410 0.20321634 0.82988226
v 0.30533670 0.20041706 0.83849757
v 0.25251263 0.03466678 0.79952461
v 0.29477188 0.03816588 0.78875548
vt 0.87187500 0.75759830
vt 0.92187500 0.75759830
vt 1.00000000 1.00000000
vt 0.93750000 1.00000000
vn 0.25881905 -0.29848750 0.91865005
vn 0.25881905 -0.29848750 0.91865005
vn 0.25881905 -0.29848750 0.91865005
vn 0.25881905 -0.29848750 0.91865005
usemtl trim
f 88/88/88 89/89/89 90/90/90 91/91/91
v 0.30533670 0.20041706 0.83849757
v 0.30533670 0.65276931 0.98547573
v 0.25251263 0.70040634 1.01583650
v 0.25251263 0.03466678 0.79952461
vt 0.92187500 0.75759830
vt 0.92187500 0.07812500
vt 1.00000000 0.00000000
vt 1.00000000 1.00000000
vn 0.25881905 -0.29848750 0.91865005
vn 0.25881905 -0.29848750 0.91865005
vn 0.25881905 -0.29848750 0.91865005
vn 0.25881905 -0.29848750 0.91865005
usemtl trim
f 92/92/92 93/93/93 94/94/94 95/95/95
v 0.27136670 0.69194580 0.86490291
v 0.73079126 0.72998654 0.74782553
v 0.76476126 0.69081006 0.86839835
v 0.30533670 0.65276931 0.98547573
vt 0.00000000 1.00000000
vt 1.00000000 1.00000000
vt 1.00000000 0.00000000
vt 0.00000000 0.00000000
vn 0.00000000 -0.95105652 -0.30901699
vn 0.00000000 -0.95105652 -0.30901699
vn 0.00000000 -0.95105652 -0.30901699
vn 0.00000000 -0.95105652 -0.30901699
usemtl cavity
f 96/96/96 97/97/97 98/98/98 99/99/99
v 0.73079126 0.72998654 0.74782553
v 0.73079126 0.69669957 0.73700993
v 0.76476126 0.65752308 0.85758275
v 0.76476126 0.69081006 0.86839835
vt 0.00000000 1.00000000
vt 1.00000000 1.00000000
vt 1.00000000 0.00000000
vt 0.00000000 0.00000000
vn -0.96592583 -0.07997948 0.24615154
vn -0.96592583 -0.07997948 0.24615154
vn -0.96592583 -0.07997948 0.24615154
vn -0.96592583 -0.07997948 0.24615154
usemtl cavity
f 100/100/100 101/101/101 102/102/102 103/103/103
v 0.73079126 0.69669957 0.73700993
v 0.30517410 0.24239282 0.70930944
v 0.33914410 0.20321634 0.82988226
v 0.76476126 0.65752308 0.85758275
vt 0.00000000 1.00000000
vt 1.00000000 1.00000000
vt 1.00000000 0.00000000
vt 0.00000000 0.00000000
vn -0.68301270 0.61594448 0.39256343
vn -0.68301270 0.61594448 0.39256343
vn -0.68301270 0.61594448 0.39256343
vn -0.68301270 0.61594448 0.39256343
usemtl cavity
f 104/104/104 105/105/105 106/106/106 107/107/107
v 0.30517410 0.24239282 0.70930944
v 0.27136670 0.23959354 0.71792475
v 0.30533670 0.20041706 0.83849757
v 0.33914410 0.20321634 0.82988226
vt 0.00000000 1.00000000
vt 1.00000000 1.00000000
vt 1.00000000 0.00000000
vt 0.00000000 0.00000000
vn 0.00000000 0.95105652 0.30901699
vn 0.00000000 0.95105652 0.30901699
vn 0.00000000 0.95105652 0.30901699
vn 0.00000000 0.95105652 0.30901699
usemtl cavity
f 108/108/108 109/109/109 110/110/110 111/111/111
v 0.27136670 0.23959354 0.71792475
v 0.27136670 0.69194580 0.86490291
v 0.30533670 0.65276931 0.98547573
v 0.30533670 0.20041706 0.83849757
vt 0.00000000 1.00000000
vt 1.00000000 1.00000000
vt 1.00000000 0.00000000
vt 0.00000000 0.00000000
vn 0.96592583 0.07997948 -0.24615154
vn 0.96592583 0.07997948 -0.24615154
vn 0.96592583 0.07997948 -0.24615154
vn 0.96592583 0.07997948 -0.24615154
usemtl cavity
f 112/112/112 113/113/113 114/114/114 115/115/115
v 0.73079126 0.72998654 0.74782553
v 0.27136670 0.69194580 0.86490291
v 0.46189800 0.52012365 0.75539451
vt 0.30680127 0.89238281
vt 0.81640625 0.89238281
vt 0.60506426 0.90999465
vn 0.25881905 -0.29848750 0.91865005
vn 0.25881905 -0.29848750 0.91865005
vn 0.25881905 -0.29848750 0.91865005
usemtl impulse_on
f 116/116/116 117/117/117 118/118/118
v 0.73079126 0.69669957 0.73700993
v 0.73079126 0.72998654 0.74782553
v 0.46189800 0.52012365 0.75539451
vt 0.30680127 0.89550781
vt 0.30680127 0.89238281
vt 0.60506426 0.90999465
vn 0.25881905 -0.29848750 0.91865005
vn 0.25881905 -0.29848750 0.91865005
vn 0.25881905 -0.29848750 0.91865005
usemtl impulse_on
f 119/119/119 120/120/120 121/121/121
v 0.30517410 0.24239282 0.70930944
v 0.73079126 0.69669957 0.73700993
v 0.46189800 0.52012365 0.75539451
vt 0.77890625 0.93484989
vt 0.30680127 0.89550781
vt 0.60506426 0.90999465
vn 0.25881905 -0.29848750 0.91865005
vn 0.25881905 -0.29848750 0.91865005
vn 0.25881905 -0.29848750 0.91865005
usemtl impulse_on
f 122/122/122 123/123/123 124/124/124
v 0.27136670 0.23959354 0.71792475
v 0.30517410 0.24239282 0.70930944
v 0.46189800 0.52012365 0.75539451
vt 0.81640625 0.93484989
vt 0.77890625 0.93484989
vt 0.60506426 0.90999465
vn 0.25881905 -0.29848750 0.91865005
vn 0.25881905 -0.29848750 0.91865005
vn 0.25881905 -0.29848750 0.91865005
usemtl impulse_on
f 125/125/125 126/126/126 127/127/127
v 0.27136670 0.69194580 0.86490291
v 0.27136670 0.23959354 0.71792475
v 0.46189800 0.52012365 0.75539451
vt 0.81640625 0.89238281
vt 0.81640625 0.93484989
vt 0.60506426 0.90999465
vn 0.25881905 -0.29848750 0.91865005
vn 0.25881905 -0.29848750 0.91865005
vn 0.25881905 -0.29848750 0.91865005
usemtl impulse_on
f 128/128/128 129/129/129 130/130/130
v 0.60718696 0.49938534 0.83154573
v 0.60718696 0.68336134 0.89132316
v 0.56492771 0.67986223 0.90209229
vt 0.46875000 0.35447330
vt 0.46875000 0.07812500
vt 0.53125000 0.07812500
vn 0.25881905 -0.29848750 0.91865005
vn 0.25881905 -0.29848750 0.91865005
vn 0.25881905 -0.29848750 0.91865005
usemtl trim
f 131/131/131 132/132/132 133/133/133
v 0.56492771 0.45427752 0.82879537
v 0.60718696 0.49938534 0.83154573
v 0.56492771 0.67986223 0.90209229
vt 0.53125000 0.41697330
vt 0.46875000 0.35447330
vt 0.53125000 0.07812500
vn 0.25881905 -0.29848750 0.91865005
vn 0.25881905 -0.29848750 0.91865005
vn 0.25881905 -0.29848750 0.91865005
usemtl trim
f 134/134/134 135/135/135 136/136/136
v 0.56492771 0.67986223 0.90209229
v 0.60718696 0.68336134 0.89132316
v 0.57774629 0.71731429 0.78682671
v 0.53548704 0.71381519 0.79759584
vt 0.00000000 1.00000000
vt 1.00000000 1.00000000
vt 1.00000000 0.00000000
vt 0.00000000 0.00000000
vn 0.00000000 0.95105652 0.30901699
vn 0.00000000 0.95105652 0.30901699
vn 0.00000000 0.95105652 0.30901699
vn 0.00000000 0.95105652 0.30901699
usemtl trim
f 137/137/137 138/138/138 139/139/139 140/140/140
v 0.60718696 0.68336134 0.89132316
v 0.60718696 0.49938534 0.83154573
v 0.57774629 0.53333829 0.72704929
v 0.57774629 0.71731429 0.78682671
vt 0.00000000 1.00000000
vt 1.00000000 1.00000000
vt 1.00000000 0.00000000
vt 0.00000000 0.00000000
vn 0.96592583 0.07997948 -0.24615154
vn 0.96592583 0.07997948 -0.24615154
vn 0.96592583 0.07997948 -0.24615154
vn 0.96592583 0.07997948 -0.24615154
usemtl trim
f 141/141/141 142/142/142 143/143/143 144/144/144
v 0.60718696 0.49938534 0.83154573
v 0.56492771 0.45427752 0.82879537
v 0.53548704 0.48823047 0.72429893
v 0.57774629 0.53333829 0.72704929
vt 0.00000000 1.00000000
vt 1.00000000 1.00000000
vt 1.00000000 0.00000000
vt 0.00000000 0.00000000
vn 0.68301270 -0.61594448 -0.39256343
vn 0.68301270 -0.61594448 -0.39256343
vn 0.68301270 -0.61594448 -0.39256343
vn 0.68301270 -0.61594448 -0.39256343
usemtl trim
f 145/145/145 146/146/146 147/147/147 148/148/148
v 0.56492771 0.45427752 0.82879537
v 0.56492771 0.67986223 0.90209229
v 0.53548704 0.71381519 0.79759584
v 0.53548704 0.48823047 0.72429893
vt 0.00000000 1.00000000
vt 1.00000000 1.00000000
vt 1.00000000 0.00000000
vt 0.00000000 0.00000000
vn -0.96592583 -0.07997948 0.24615154
vn -0.96592583 -0.07997948 0.24615154
vn -0.96592583 -0.07997948 0.24615154
vn -0.96592583 -0.07997948 0.24615154
usemtl trim
f 149/149/149 150/150/150 151/151/151 152/152/152
v 0.29741036 0.50587778 0.90664397
v 0.63217013 0.53359618 0.82133552
v 0.65329975 0.55615009 0.82271070
vt 0.92187500 0.31250000
vt 0.42677670 0.31250000
vt 0.39552670 0.28125000
vn 0.25881905 -0.29848750 0.91865005
vn 0.25881905 -0.29848750 0.91865005
vn 0.25881905 -0.29848750 0.91865005
usemtl dark_trim
f 153/153/153 154/154/154 155/155/155
v 0.29741036 0.52668214 0.91340371
v 0.29741036 0.50587778 0.90664397
v 0.65329975 0.55615009 0.82271070
vt 0.92187500 0.28125000
vt 0.92187500 0.31250000
vt 0.39552670 0.28125000
vn 0.25881905 -0.29848750 0.91865005
vn 0.25881905 -0.29848750 0.91865005
vn 0.25881905 -0.29848750 0.91865005
usemtl dark_trim
f 156/156/156 157/157/157 158/158/158
v 0.65329975 0.55615009 0.82271070
v 0.63217013 0.53359618 0.82133552
v 0.60612646 0.56363148 0.72889636
v 0.62725609 0.58618539 0.73027154
vt 0.00000000 1.00000000
vt 1.00000000 1.00000000
vt 1.00000000 0.00000000
vt 0.00000000 0.00000000
vn 0.68301270 -0.61594448 -0.39256343
vn 0.68301270 -0.61594448 -0.39256343
vn 0.68301270 -0.61594448 -0.39256343
vn 0.68301270 -0.61594448 -0.39256343
usemtl dark_trim
f 159/159/159 160/160/160 161/161/161 162/162/162
v 0.63217013 0.53359618 0.82133552
v 0.29741036 0.50587778 0.90664397
v 0.27136670 0.53591309 0.81420481
v 0.60612646 0.56363148 0.72889636
vt 0.00000000 1.00000000
vt 1.00000000 1.00000000
vt 1.00000000 0.00000000
vt 0.00000000 0.00000000
vn 0.00000000 -0.95105652 -0.30901699
vn 0.00000000 -0.95105652 -0.30901699
vn 0.00000000 -0.95105652 -0.30901699
vn 0.00000000 -0.95105652 -0.30901699
usemtl dark_trim
f 163/163/163 164/164/164 165/165/165 166/166/166
v 0.29741036 0.50587778 0.90664397
v 0.29741036 0.52668214 0.91340371
v 0.27136670 0.55671745 0.82096455
v 0.27136670 0.53591309 0.81420481
vt 0.00000000 1.00000000
vt 1.00000000 1.00000000
vt 1.00000000 0.00000000
vt 0.00000000 0.00000000
vn -0.96592583 -0.07997948 0.24615154
vn -0.96592583 -0.07997948 0.24615154
vn -0.96592583 -0.07997948 0.24615154
vn -0.96592583 -0.07997948 0.24615154
usemtl dark_trim
f 167/167/167 168/168/168 169/169/169 170/170/170
v 0.29741036 0.52668214 0.91340371
v 0.65329975 0.55615009 0.82271070
v 0.62725609 0.58618539 0.73027154
v 0.27136670 0.55671745 0.82096455
vt 0.00000000 1.00000000
vt 1.00000000 1.00000000
vt 1.00000000 0.00000000
vt 0.00000000 0.00000000
vn 0.00000000 0.95105652 0.30901699
vn 0.00000000 0.95105652 0.30901699
vn 0.00000000 0.95105652 0.30901699
vn 0.00000000 0.95105652 0.30901699
usemtl dark_trim
f 171/171/171 172/172/172 173/173/173 174/174/174
v 0.29741036 0.37064943 0.86270561
v 0.49482755 0.38699575 0.81239684
v 0.51595718 0.40954966 0.81377202
vt 0.92187500 0.51562500
vt 0.62990170 0.51562500
vt 0.59865170 0.48437500
vn 0.25881905 -0.29848750 0.91865005
vn 0.25881905 -0.29848750 0.91865005
vn 0.25881905 -0.29848750 0.91865005
usemtl dark_trim
f 175/175/175 176/176/176 177/177/177
v 0.29741036 0.39145380 0.86946536
v 0.29741036 0.37064943 0.86270561
v 0.51595718 0.40954966 0.81377202
vt 0.92187500 0.48437500
vt 0.92187500 0.51562500
vt 0.59865170 0.48437500
vn 0.25881905 -0.29848750 0.91865005
vn 0.25881905 -0.29848750 0.91865005
vn 0.25881905 -0.29848750 0.91865005
usemtl dark_trim
f 178/178/178 179/179/179 180/180/180
v 0.51595718 0.40954966 0.81377202
v 0.49482755 0.38699575 0.81239684
v 0.46878388 0.41703105 0.71995768
v 0.48991351 0.43958496 0.72133286
vt 0.00000000 1.00000000
vt 1.00000000 1.00000000
vt 1.00000000 0.00000000
vt 0.00000000 0.00000000
vn 0.68301270 -0.61594448 -0.39256343
vn 0.68301270 -0.61594448 -0.39256343
vn 0.68301270 -0.61594448 -0.39256343
vn 0.68301270 -0.61594448 -0.39256343
usemtl dark_trim
f 181/181/181 182/182/182 183/183/183 184/184/184
v 0.49482755 0.38699575 0.81239684
v 0.29741036 0.37064943 0.86270561
v 0.27136670 0.40068474 0.77026645
v 0.46878388 0.41703105 0.71995768
vt 0.00000000 1.00000000
vt 1.00000000 1.00000000
vt 1.00000000 0.00000000
vt 0.00000000 0.00000000
vn 0.00000000 -0.95105652 -0.30901699
vn 0.00000000 -0.95105652 -0.30901699
vn 0.00000000 -0.95105652 -0.30901699
vn 0.00000000 -0.95105652 -0.30901699
usemtl dark_trim
f 185/185/185 186/186/186 187/187/187 188/188/188
v 0.29741036 0.37064943 0.86270561
v 0.29741036 0.39145380 0.86946536
v 0.27136670 0.42148910 0.77702620
v 0.27136670 0.40068474 0.77026645
vt 0.00000000 1.00000000
vt 1.00000000 1.00000000
vt 1.00000000 0.00000000
vt 0.00000000 0.00000000
vn -0.96592583 -0.07997948 0.24615154
vn -0.96592583 -0.07997948 0.24615154
vn -0.96592583 -0.07997948 0.24615154
vn -0.96592583 -0.07997948 0.24615154
usemtl dark_trim
f 189/189/189 190/190/190 191/191/191 192/192/192
v 0.29741036 0.39145380 0.86946536
v 0.51595718 0.40954966 0.81377202
v 0.48991351 0.43958496 0.72133286
v 0.27136670 0.42148910 0.77702620
vt 0.00000000 1.00000000
vt 1.00000000 1.00000000
vt 1.00000000 0.00000000
vt 0.00000000 0.00000000
vn 0.00000000 0.95105652 0.30901699
vn 0.00000000 0.95105652 0.30901699
vn 0.00000000 0.95105652 0.30901699
vn 0.00000000 0.95105652 0.30901699
usemtl dark_trim
f 193/193/193 194/194/194 195/195/195 196/196/196
v 0.29741036 0.23542109 0.81876726
v 0.35748497 0.24039531 0.80345816
v 0.37861460 0.26294923 0.80483334
vt 0.92187500 0.71875000
vt 0.83302670 0.71875000
vt 0.80177670 0.68750000
vn 0.25881905 -0.29848750 0.91865005
vn 0.25881905 -0.29848750 0.91865005
vn 0.25881905 -0.29848750 0.91865005
usemtl dark_trim
f 197/197/197 198/198/198 199/199/199
v 0.29741036 0.25622545 0.82552701
v 0.29741036 0.23542109 0.81876726
v 0.37861460 0.26294923 0.80483334
vt 0.92187500 0.68750000
vt 0.92187500 0.71875000
vt 0.80177670 0.68750000
vn 0.25881905 -0.29848750 0.91865005
vn 0.25881905 -0.29848750 0.91865005
vn 0.25881905 -0.29848750 0.91865005
usemtl dark_trim
f 200/200/200 201/201/201 202/202/202
v 0.37861460 0.26294923 0.80483334
v 0.35748497 0.24039531 0.80345816
v 0.33144130 0.27043062 0.71101900
v 0.35257093 0.29298453 0.71239418
vt 0.00000000 1.00000000
vt 1.00000000 1.00000000
vt 1.00000000 0.00000000
vt 0.00000000 0.00000000
vn 0.68301270 -0.61594448 -0.39256343
vn 0.68301270 -0.61594448 -0.39256343
vn 0.68301270 -0.61594448 -0.39256343
vn 0.68301270 -0.61594448 -0.39256343
usemtl dark_trim
f 203/203/203 204/204/204 205/205/205 206/206/206
v 0.35748497 0.24039531 0.80345816
v 0.29741036 0.23542109 0.81876726
v 0.27136670 0.26545639 0.72632810
v 0.33144130 0.27043062 0.71101900
vt 0.00000000 1.00000000
vt 1.00000000 1.00000000
vt 1.00000000 0.00000000
vt 0.00000000 0.00000000
vn 0.00000000 -0.95105652 -0.30901699
vn 0.00000000 -0.95105652 -0.30901699
vn 0.00000000 -0.95105652 -0.30901699
vn 0.00000000 -0.95105652 -0.30901699
usemtl dark_trim
f 207/207/207 208/208/208 209/209/209 210/210/210
v 0.29741036 0.23542109 0.81876726
v 0.29741036 0.25622545 0.82552701
v 0.27136670 0.28626075 0.73308784
v 0.27136670 0.26545639 0.72632810
vt 0.00000000 1.00000000
vt 1.00000000 1.00000000
vt 1.00000000 0.00000000
vt 0.00000000 0.00000000
vn -0.96592583 -0.07997948 0.24615154
vn -0.96592583 -0.07997948 0.24615154
vn -0.96592583 -0.07997948 0.24615154
vn -0.96592583 -0.07997948 0.24615154
usemtl dark_trim
f 211/211/211 212/212/212 213/213/213 214/214/214
v 0.29741036 0.25622545 0.82552701
v 0.37861460 0.26294923 0.80483334
v 0.35257093 0.29298453 0.71239418
v 0.27136670 0.28626075 0.73308784
vt 0.00000000 1.00000000
vt 1.00000000 1.00000000
vt 1.00000000 0.00000000
vt 0.00000000 0.00000000
vn 0.00000000 0.95105652 0.30901699
vn 0.00000000 0.95105652 0.30901699
vn 0.00000000 0.95105652 0.30901699
vn 0.00000000 0.95105652 0.30901699
usemtl dark_trim
f 215/215/215 216/216/216 217/217/217 218/218/218
