mtllib impulse_engine_wedge_top_right_on.mtl
o thruster
v 1.00000000 1.00000000 0.00000000
v 0.00000000 1.00000000 0.00000000
v 0.00000000 1.00000000 0.02500000
v 1.00000000 1.00000000 0.02500000
vt 0.00000000 1.00000000
vt 1.00000000 1.00000000
vt 1.00000000 0.00000000
vt 0.00000000 0.00000000
vn -0.00000000 1.00000000 0.00000000
vn -0.00000000 1.00000000 0.00000000
vn -0.00000000 1.00000000 0.00000000
vn -0.00000000 1.00000000 0.00000000
usemtl trim
f 1/1/1 2/2/2 3/3/3 4/4/4
v 0.00000000 1.00000000 0.00000000
v 0.00000000 0.93750000 0.00000000
v 0.00000000 0.93750000 0.02500000
v 0.00000000 1.00000000 0.02500000
vt 0.00000000 1.00000000
vt 1.00000000 1.00000000
vt 1.00000000 0.00000000
vt 0.00000000 0.00000000
vn -1.00000000 -0.00000000 0.00000000
vn -1.00000000 -0.00000000 0.00000000
vn -1.00000000 -0.00000000 0.00000000
vn -1.00000000 -0.00000000 0.00000000
usemtl trim
f 5/5/5 6/6/6 7/7/7 8/8/8
v 0.00000000 0.93750000 0.00000000
v 0.93750000 0.00000000 0.00000000
v 0.93750000 0.00000000 0.02500000
v 0.00000000 0.93750000 0.02500000
vt 0.00000000 1.00000000
vt 1.00000000 1.00000000
vt 1.00000000 0.00000000
vt 0.00000000 0.00000000
vn -0.70710678 -0.70710678 0.00000000
vn -0.70710678 -0.70710678 0.00000000
vn -0.70710678 -0.70710678 0.00000000
vn -0.70710678 -0.70710678 0.00000000
usemtl trim
f 9/9/9 10/10/10 11/11/11 12/12/12
v 0.93750000 0.00000000 0.00000000
v 1.00000000 0.00000000 0.00000000
v 1.00000000 0.00000000 0.02500000
v 0.93750000 0.00000000 0.02500000
vt 0.00000000 1.00000000
vt 1.00000000 1.00000000
vt 1.00000000 0.00000000
vt 0.00000000 0.00000000
vn -0.00000000 -1.00000000 0.00000000
vn -0.00000000 -1.00000000 0.00000000
vn -0.00000000 -1.00000000 0.00000000
vn -0.00000000 -1.00000000 0.00000000
usemtl trim
f 13/13/13 14/14/14 15/15/15 16/16/16
v 1.00000000 0.00000000 0.00000000
v 1.00000000 1.00000000 0.00000000
v 1.00000000 1.00000000 0.02500000
v 1.00000000 0.00000000 0.02500000
vt 0.00000000 1.00000000
vt 1.00000000 1.00000000
vt 1.00000000 0.00000000
vt 0.00000000 0.00000000
vn 1.00000000 -0.00000000 0.00000000
vn 1.00000000 -0.00000000 0.00000000
vn 1.00000000 -0.00000000 0.00000000
vn 1.00000000 -0.00000000 0.00000000
usemtl trim
f 17/17/17 18/18/18 19/19/19 20/20/20
v 1.00000000 1.00000000 0.02500000
v 0.00000000 1.00000000 0.02500000
v 0.00000000 1.00000000 0.96250000
v 1.00000000 1.00000000 0.96250000
vt 0.00000000 1.00000000
vt 1.00000000 1.00000000
vt 1.00000000 0.00000000
vt 0.00000000 0.00000000
vn -0.00000000 1.00000000 0.00000000
vn -0.00000000 1.00000000 0.00000000
vn -0.00000000 1.00000000 0.00000000
vn -0.00000000 1.00000000 0.00000000
usemtl side
f 21/21/21 22/22/22 23/23/23 24/24/24
v 0.00000000 1.00000000 0.02500000
v 0.00000000 0.93750000 0.02500000
v 0.00000000 0.93750000 0.96250000
v 0.00000000 1.00000000 0.96250000
vt 0.00000000 1.00000000
vt 1.00000000 1.00000000
vt 1.00000000 0.00000000
vt 0.00000000 0.00000000
vn -1.00000000 -0.00000000 0.00000000
vn -1.00000000 -0.00000000 0.00000000
vn -1.00000000 -0.00000000 0.00000000
vn -1.00000000 -0.00000000 0.00000000
usemtl side
f 25/25/25 26/26/26 27/27/27 28/28/28
v 0.00000000 0.93750000 0.02500000
v 0.93750000 0.00000000 0.02500000
v 0.93750000 0.00000000 0.96250000
v 0.00000000 0.93750000 0.96250000
vt 0.00000000 1.00000000
vt 1.00000000 1.00000000
vt 1.00000000 0.00000000
vt 0.00000000 0.00000000
vn -0.70710678 -0.70710678 0.00000000
vn -0.70710678 -0.70710678 0.00000000
vn -0.70710678 -0.70710678 0.00000000
vn -0.70710678 -0.70710678 0.00000000
usemtl side
f 29/29/29 30/30/30 31/31/31 32/32/32
v 0.93750000 0.00000000 0.02500000
v 1.00000000 0.00000000 0.02500000
v 1.00000000 0.00000000 0.96250000
v 0.93750000 0.00000000 0.96250000
vt 0.00000000 1.00000000
vt 1.00000000 1.00000000
vt 1.00000000 0.00000000
vt 0.00000000 0.00000000
vn -0.00000000 -1.00000000 0.00000000
vn -0.00000000 -1.00000000 0.00000000
vn -0.00000000 -1.00000000 0.00000000
vn -0.00000000 -1.00000000 0.00000000
usemtl side
f 33/33/33 34/34/34 35/35/35 36/36/36
v 1.00000000 0.00000000 0.02500000
v 1.00000000 1.00000000 0.02500000
v 1.00000000 1.00000000 0.96250000
v 1.00000000 0.00000000 0.96250000
vt 0.00000000 1.00000000
vt 1.00000000 1.00000000
vt 1.00000000 0.00000000
vt 0.00000000 0.00000000
vn 1.00000000 -0.00000000 0.00000000
vn 1.00000000 -0.00000000 0.00000000
vn 1.00000000 -0.00000000 0.00000000
vn 1.00000000 -0.00000000 0.00000000
usemtl side
f 37/37/37 38/38/38 39/39/39 40/40/40
v 1.00000000 1.00000000 0.96250000
v 0.00000000 1.00000000 0.96250000
v 0.05540610 0.98214286 1.00000000
v 0.98214286 0.98214286 1.00000000
vt 0.00000000 1.00000000
vt 1.00000000 1.00000000
vt 1.00000000 0.00000000
vt 0.00000000 0.00000000
vn -0.00000000 0.90286052 0.42993358
vn -0.00000000 0.90286052 0.42993358
vn -0.00000000 0.90286052 0.42993358
vn -0.00000000 0.90286052 0.42993358
usemtl dark_trim
f 41/41/41 42/42/42 43/43/43 44/44/44
v 0.00000000 1.00000000 0.96250000
v 0.00000000 0.93750000 0.96250000
v 0.05540610 0.92250000 1.00000000
v 0.05540610 0.98214286 1.00000000
vt 0.00000000 1.00000000
vt 1.00000000 1.00000000
vt 1.00000000 0.00000000
vt 0.00000000 0.00000000
vn -0.56050830 0.00000000 0.82814880
vn -0.56050830 0.00000000 0.82814880
vn -0.56050830 0.00000000 0.82814880
vn -0.56050830 0.00000000 0.82814880
usemtl dark_trim
f 45/45/45 46/46/46 47/47/47 48/48/48
v 0.00000000 0.93750000 0.96250000
v 0.93750000 0.00000000 0.96250000
v 0.92250000 0.05540610 1.00000000
v 0.05540610 0.92250000 1.00000000
vt 0.00000000 1.00000000
vt 1.00000000 1.00000000
vt 1.00000000 0.00000000
vt 0.00000000 0.00000000
vn -0.56245516 -0.56245516 0.60604322
vn -0.56245516 -0.56245516 0.60604322
vn -0.56245516 -0.56245516 0.60604322
vn -0.56245516 -0.56245516 0.60604322
usemtl dark_trim
f 49/49/49 50/50/50 51/51/51 52/52/52
v 0.93750000 0.00000000 0.96250000
v 1.00000000 0.00000000 0.96250000
v 0.98214286 0.05540610 1.00000000
v 0.92250000 0.05540610 1.00000000
vt 0.00000000 1.00000000
vt 1.00000000 1.00000000
vt 1.00000000 0.00000000
vt 0.00000000 0.00000000
vn -0.00000000 -0.56050830 0.82814880
vn -0.00000000 -0.56050830 0.82814880
vn -0.00000000 -0.56050830 0.82814880
vn -0.00000000 -0.56050830 0.82814880
usemtl dark_trim
f 53/53/53 54/54/54 55/55/55 56/56/56
v 1.00000000 0.00000000 0.96250000
v 1.00000000 1.00000000 0.96250000
v 0.98214286 0.98214286 1.00000000
v 0.98214286 0.05540610 1.00000000
vt 0.00000000 1.00000000
vt 1.00000000 1.00000000
vt 1.00000000 0.00000000
vt 0.00000000 0.00000000
vn 0.90286052 -0.00000000 0.42993358
vn 0.90286052 -0.00000000 0.42993358
vn 0.90286052 -0.00000000 0.42993358
vn 0.90286052 -0.00000000 0.42993358
usemtl dark_trim
f 57/57/57 58/58/58 59/59/59 60/60/60
v 0.59951958 0.59951958 1.00000000
v 0.98214286 0.98214286 1.00000000
v 0.05540610 0.98214286 1.00000000
vt 0.59951958 0.40048042
vt 0.98214286 0.01785714
vt 0.05540610 0.01785714
vn -0.00000000 -0.00000000 1.00000000
vn -0.00000000 -0.00000000 1.00000000
vn -0.00000000 -0.00000000 1.00000000
usemtl rear
f 61/61/61 62/62/62 63/63/63
v 0.59951958 0.59951958 1.00000000
v 0.05540610 0.98214286 1.00000000
v 0.05540610 0.92250000 1.00000000
vt 0.59951958 0.40048042
vt 0.05540610 0.01785714
vt 0.05540610 0.07750000
vn -0.00000000 -0.00000000 1.00000000
vn -0.00000000 -0.00000000 1.00000000
vn -0.00000000 -0.00000000 1.00000000
usemtl rear
f 64/64/64 65/65/65 66/66/66
v 0.59951958 0.59951958 1.00000000
v 0.05540610 0.92250000 1.00000000
v 0.92250000 0.05540610 1.00000000
vt 0.59951958 0.40048042
vt 0.05540610 0.07750000
vt 0.92250000 0.94459390
vn -0.00000000 -0.00000000 1.00000000
vn -0.00000000 -0.00000000 1.00000000
vn -0.00000000 -0.00000000 1.00000000
usemtl rear
f 67/67/67 68/68/68 69/69/69
v 0.59951958 0.59951958 1.00000000
v 0.92250000 0.05540610 1.00000000
v 0.98214286 0.05540610 1.00000000
vt 0.59951958 0.40048042
vt 0.92250000 0.94459390
vt 0.98214286 0.94459390
vn -0.00000000 -0.00000000 1.00000000
vn -0.00000000 -0.00000000 1.00000000
vn -0.00000000 -0.00000000 1.00000000
usemtl rear
f 70/70/70 71/71/71 72/72/72
v 0.59951958 0.59951958 1.00000000
v 0.98214286 0.05540610 1.00000000
v 0.98214286 0.98214286 1.00000000
vt 0.59951958 0.40048042
vt 0.98214286 0.94459390
vt 0.98214286 0.01785714
vn -0.00000000 -0.00000000 1.00000000
vn -0.00000000 -0.00000000 1.00000000
vn -0.00000000 -0.00000000 1.00000000
usemtl rear
f 73/73/73 74/74/74 75/75/75
v 0.92187500 0.92187500 0.00000000
v 0.24240170 0.92187500 0.00000000
v 0.00000000 1.00000000 0.00000000
v 1.00000000 1.00000000 0.00000000
vt 0.92187500 0.07812500
vt 0.24240170 0.07812500
vt 0.00000000 0.00000000
vt 1.00000000 0.00000000
vn -0.00000000 -0.00000000 -1.00000000
vn -0.00000000 -0.00000000 -1.00000000
vn -0.00000000 -0.00000000 -1.00000000
vn -0.00000000 -0.00000000 -1.00000000
usemtl trim
f 76/76/76 77/77/77 78/78/78 79/79/79
v 0.24240170 0.92187500 0.00000000
v 0.24240170 0.87187500 0.00000000
v 0.00000000 0.93750000 0.00000000
v 0.00000000 1.00000000 0.00000000
vt 0.24240170 0.07812500
vt 0.24240170 0.12812500
vt 0.00000000 0.06250000
vt 0.00000000 0.00000000
vn -0.00000000 -0.00000000 -1.00000000
vn -0.00000000 -0.00000000 -1.00000000
vn -0.00000000 -0.00000000 -1.00000000
vn -0.00000000 -0.00000000 -1.00000000
usemtl trim
f 80/80/80 81/81/81 82/82/82 83/83/83
v 0.24240170 0.87187500 0.00000000
v 0.87187500 0.24240170 0.00000000
v 0.93750000 0.00000000 0.00000000
v 0.00000000 0.93750000 0.00000000
vt 0.24240170 0.12812500
vt 0.87187500 0.75759830
vt 0.93750000 1.00000000
vt 0.00000000 0.06250000
vn -0.00000000 -0.00000000 -1.00000000
vn -0.00000000 -0.00000000 -1.00000000
vn -0.00000000 -0.00000000 -1.00000000
vn -0.00000000 -0.00000000 -1.00000000
usemtl trim
f 84/84/84 85/85/85 86/86/86 87/87/87
v 0.87187500 0.24240170 0.00000000
v 0.92187500 0.24240170 0.00000000
v 1.00000000 0.00000000 0.00000000
v 0.93750000 0.00000000 0.00000000
vt 0.87187500 0.75759830
vt 0.92187500 0.75759830
vt 1.00000000 1.00000000
vt 0.93750000 1.00000000
vn -0.00000000 -0.00000000 -1.00000000
vn -0.00000000 -0.00000000 -1.00000000
vn -0.00000000 -0.00000000 -1.00000000
vn -0.00000000 -0.00000000 -1.00000000
usemtl trim
f 88/88/88 89/89/89 90/90/90 91/91/91
v 0.92187500 0.24240170 0.00000000
v 0.92187500 0.92187500 0.00000000
v 1.00000000 1.00000000 0.00000000
v 1.00000000 0.00000000 0.00000000
vt 0.92187500 0.75759830
vt 0.92187500 0.07812500
vt 1.00000000 0.00000000
vt 1.00000000 1.00000000
vn -0.00000000 -0.00000000 -1.00000000
vn -0.00000000 -0.00000000 -1.00000000
vn -0.00000000 -0.00000000 -1.00000000
vn -0.00000000 -0.00000000 -1.00000000
usemtl trim
f 92/92/92 93/93/93 94/94/94 95/95/95
v 0.92187500 0.92187500 0.18750000
v 0.24240170 0.92187500 0.18750000
v 0.24240170 0.92187500 0.00000000
v 0.92187500 0.92187500 0.00000000
vt 0.00000000 1.00000000
vt 1.00000000 1.00000000
vt 1.00000000 0.00000000
vt 0.00000000 0.00000000
vn 0.00000000 -1.00000000 -0.00000000
vn 0.00000000 -1.00000000 -0.00000000
vn 0.00000000 -1.00000000 -0.00000000
vn 0.00000000 -1.00000000 -0.00000000
usemtl cavity
f 96/96/96 97/97/97 98/98/98 99/99/99
v 0.24240170 0.92187500 0.18750000
v 0.24240170 0.87187500 0.18750000
v 0.24240170 0.87187500 0.00000000
v 0.24240170 0.92187500 0.00000000
vt 0.00000000 1.00000000
vt 1.00000000 1.00000000
vt 1.00000000 0.00000000
vt 0.00000000 0.00000000
vn 1.00000000 0.00000000 -0.00000000
vn 1.00000000 0.00000000 -0.00000000
vn 1.00000000 0.00000000 -0.00000000
vn 1.00000000 0.00000000 -0.00000000
usemtl cavity
f 100/100/100 101/101/101 102/102/102 103/103/103
v 0.24240170 0.87187500 0.18750000
v 0.87187500 0.24240170 0.18750000
v 0.87187500 0.24240170 0.00000000
v 0.24240170 0.87187500 0.00000000
vt 0.00000000 1.00000000
vt 1.00000000 1.00000000
vt 1.00000000 0.00000000
vt 0.00000000 0.00000000
vn 0.70710678 0.70710678 -0.00000000
vn 0.70710678 0.70710678 -0.00000000
vn 0.70710678 0.70710678 -0.00000000
vn 0.70710678 0.70710678 -0.00000000
usemtl cavity
f 104/104/104 105/105/105 106/106/106 107/107/107
v 0.87187500 0.24240170 0.18750000
v 0.92187500 0.24240170 0.18750000
v 0.92187500 0.24240170 0.00000000
v 0.87187500 0.24240170 0.00000000
vt 0.00000000 1.00000000
vt 1.00000000 1.00000000
vt 1.00000000 0.00000000
vt 0.00000000 0.00000000
vn 0.00000000 1.00000000 -0.00000000
vn 0.00000000 1.00000000 -0.00000000
vn 0.00000000 1.00000000 -0.00000000
vn 0.00000000 1.00000000 -0.00000000
usemtl cavity
f 108/108/108 109/109/109 110/110/110 111/111/111
v 0.92187500 0.24240170 0.18750000
v 0.92187500 0.92187500 0.18750000
v 0.92187500 0.92187500 0.00000000
v 0.92187500 0.24240170 0.00000000
vt 0.00000000 1.00000000
vt 1.00000000 1.00000000
vt 1.00000000 0.00000000
vt 0.00000000 0.00000000
vn -1.00000000 0.00000000 -0.00000000
vn -1.00000000 0.00000000 -0.00000000
vn -1.00000000 0.00000000 -0.00000000
vn -1.00000000 0.00000000 -0.00000000
usemtl cavity
f 112/112/112 113/113/113 114/114/114 115/115/115
v 0.24240170 0.92187500 0.18750000
v 0.92187500 0.92187500 0.18750000
v 0.64008568 0.64008568 0.18750000
vt 0.30680127 0.89238281
vt 0.81640625 0.89238281
vt 0.60506426 0.90999465
vn -0.00000000 -0.00000000 -1.00000000
vn -0.00000000 -0.00000000 -1.00000000
vn -0.00000000 -0.00000000 -1.00000000
usemtl impulse_on
f 116/116/116 117/117/117 118/118/118
v 0.24240170 0.87187500 0.18750000
v 0.24240170 0.92187500 0.18750000
v 0.64008568 0.64008568 0.18750000
vt 0.30680127 0.89550781
vt 0.30680127 0.89238281
vt 0.60506426 0.90999465
vn -0.00000000 -0.00000000 -1.00000000
vn -0.00000000 -0.00000000 -1.00000000
vn -0.00000000 -0.00000000 -1.00000000
usemtl impulse_on
f 119/119/119 120/120/120 121/121/121
v 0.87187500 0.24240170 0.18750000
v 0.24240170 0.87187500 0.18750000
v 0.64008568 0.64008568 0.18750000
vt 0.77890625 0.93484989
vt 0.30680127 0.89550781
vt 0.60506426 0.90999465
vn -0.00000000 -0.00000000 -1.00000000
vn -0.00000000 -0.00000000 -1.00000000
vn -0.00000000 -0.00000000 -1.00000000
usemtl impulse_on
f 122/122/122 123/123/123 124/124/124
v 0.92187500 0.24240170 0.18750000
v 0.87187500 0.24240170 0.18750000
v 0.64008568 0.64008568 0.18750000
vt 0.81640625 0.93484989
vt 0.77890625 0.93484989
vt 0.60506426 0.90999465
vn -0.00000000 -0.00000000 -1.00000000
vn -0.00000000 -0.00000000 -1.00000000
vn -0.00000000 -0.00000000 -1.00000000
usemtl impulse_on
f 125/125/125 126/126/126 127/127/127
v 0.92187500 0.92187500 0.18750000
v 0.92187500 0.24240170 0.18750000
v 0.64008568 0.64008568 0.18750000
vt 0.81640625 0.89238281
vt 0.81640625 0.93484989
vt 0.60506426 0.90999465
vn -0.00000000 -0.00000000 -1.00000000
vn -0.00000000 -0.00000000 -1.00000000
vn -0.00000000 -0.00000000 -1.00000000
usemtl impulse_on
f 128/128/128 129/129/129 130/130/130
v 0.46875000 0.64552670 0.02500000
v 0.46875000 0.92187500 0.02500000
v 0.53125000 0.92187500 0.02500000
vt 0.46875000 0.35447330
vt 0.46875000 0.07812500
vt 0.53125000 0.07812500
vn -0.00000000 -0.00000000 -1.00000000
vn -0.00000000 -0.00000000 -1.00000000
vn -0.00000000 -0.00000000 -1.00000000
usemtl trim
f 131/131/131 132/132/132 133/133/133
v 0.53125000 0.58302670 0.02500000
v 0.46875000 0.64552670 0.02500000
v 0.53125000 0.92187500 0.02500000
vt 0.53125000 0.41697330
vt 0.46875000 0.35447330
vt 0.53125000 0.07812500
vn -0.00000000 -0.00000000 -1.00000000
vn -0.00000000 -0.00000000 -1.00000000
vn -0.00000000 -0.00000000 -1.00000000
usemtl trim
f 134/134/134 135/135/135 136/136/136
v 0.53125000 0.92187500 0.02500000
v 0.46875000 0.92187500 0.02500000
v 0.46875000 0.92187500 0.18750000
v 0.53125000 0.92187500 0.18750000
vt 0.00000000 1.00000000
vt 1.00000000 1.00000000
vt 1.00000000 0.00000000
vt 0.00000000 0.00000000
vn -0.00000000 1.00000000 0.00000000
vn -0.00000000 1.00000000 0.00000000
vn -0.00000000 1.00000000 0.00000000
vn -0.00000000 1.00000000 0.00000000
usemtl trim
f 137/137/137 138/138/138 139/139/139 140/140/140
v 0.46875000 0.92187500 0.02500000
v 0.46875000 0.64552670 0.02500000
v 0.46875000 0.64552670 0.18750000
v 0.46875000 0.92187500 0.18750000
vt 0.00000000 1.00000000
vt 1.00000000 1.00000000
vt 1.00000000 0.00000000
vt 0.00000000 0.00000000
vn -1.00000000 -0.00000000 0.00000000
vn -1.00000000 -0.00000000 0.00000000
vn -1.00000000 -0.00000000 0.00000000
vn -1.00000000 -0.00000000 0.00000000
usemtl trim
f 141/141/141 142/142/142 143/143/143 144/144/144
v 0.46875000 0.64552670 0.02500000
v 0.53125000 0.58302670 0.02500000
v 0.53125000 0.58302670 0.18750000
v 0.46875000 0.64552670 0.18750000
vt 0.00000000 1.00000000
vt 1.00000000 1.00000000
vt 1.00000000 0.00000000
vt 0.00000000 0.00000000
vn -0.70710678 -0.70710678 0.00000000
vn -0.70710678 -0.70710678 0.00000000
vn -0.70710678 -0.70710678 0.00000000
vn -0.70710678 -0.70710678 0.00000000
usemtl trim
f 145/145/145 146/146/146 147/147/147 148/148/148
v 0.53125000 0.58302670 0.02500000
v 0.53125000 0.92187500 0.02500000
v 0.53125000 0.92187500 0.18750000
v 0.53125000 0.58302670 0.18750000
vt 0.00000000 1.00000000
vt 1.00000000 1.00000000
vt 1.00000000 0.00000000
vt 0.00000000 0.00000000
vn 1.00000000 -0.00000000 0.00000000
vn 1.00000000 -0.00000000 0.00000000
vn 1.00000000 -0.00000000 0.00000000
vn 1.00000000 -0.00000000 0.00000000
usemtl trim
f 149/149/149 150/150/150 151/151/151 152/152/152
v 0.92187500 0.68750000 0.04375000
v 0.42677670 0.68750000 0.04375000
v 0.39552670 0.71875000 0.04375000
vt 0.92187500 0.31250000
vt 0.42677670 0.31250000
vt 0.39552670 0.28125000
vn -0.00000000 -0.00000000 -1.00000000
vn -0.00000000 -0.00000000 -1.00000000
vn -0.00000000 -0.00000000 -1.00000000
usemtl dark_trim
f 153/153/153 154/154/154 155/155/155
v 0.92187500 0.71875000 0.04375000
v 0.92187500 0.68750000 0.04375000
v 0.39552670 0.71875000 0.04375000
vt 0.92187500 0.28125000
vt 0.92187500 0.31250000
vt 0.39552670 0.28125000
vn -0.00000000 -0.00000000 -1.00000000
vn -0.00000000 -0.00000000 -1.00000000
vn -0.00000000 -0.00000000 -1.00000000
usemtl dark_trim
f 156/156/156 157/157/157 158/158/158
v 0.39552670 0.71875000 0.04375000
v 0.42677670 0.68750000 0.04375000
v 0.42677670 0.68750000 0.18750000
v 0.39552670 0.71875000 0.18750000
vt 0.00000000 1.00000000
vt 1.00000000 1.00000000
vt 1.00000000 0.00000000
vt 0.00000000 0.00000000
vn -0.70710678 -0.70710678 0.00000000
vn -0.70710678 -0.70710678 0.00000000
vn -0.70710678 -0.70710678 0.00000000
vn -0.70710678 -0.70710678 0.00000000
usemtl dark_trim
f 159/159/159 160/160/160 161/161/161 162/162/162
v 0.42677670 0.68750000 0.04375000
v 0.92187500 0.68750000 0.04375000
v 0.92187500 0.68750000 0.18750000
v 0.42677670 0.68750000 0.18750000
vt 0.00000000 1.00000000
vt 1.00000000 1.00000000
vt 1.00000000 0.00000000
vt 0.00000000 0.00000000
vn -0.00000000 -1.00000000 0.00000000
vn -0.00000000 -1.00000000 0.00000000
vn -0.00000000 -1.00000000 0.00000000
vn -0.00000000 -1.00000000 0.00000000
usemtl dark_trim
f 163/163/163 164/164/164 165/165/165 166/166/166
v 0.92187500 0.68750000 0.04375000
v 0.92187500 0.71875000 0.04375000
v 0.92187500 0.71875000 0.18750000
v 0.92187500 0.68750000 0.18750000
vt 0.00000000 1.00000000
vt 1.00000000 1.00000000
vt 1.00000000 0.00000000
vt 0.00000000 0.00000000
vn 1.00000000 -0.00000000 0.00000000
vn 1.00000000 -0.00000000 0.00000000
vn 1.00000000 -0.00000000 0.00000000
vn 1.00000000 -0.00000000 0.00000000
usemtl dark_trim
f 167/167/167 168/168/168 169/169/169 170/170/170
v 0.92187500 0.71875000 0.04375000
v 0.39552670 0.71875000 0.04375000
v 0.39552670 0.71875000 0.18750000
v 0.92187500 0.71875000 0.18750000
vt 0.00000000 1.00000000
vt 1.00000000 1.00000000
vt 1.00000000 0.00000000
vt 0.00000000 0.00000000
vn -0.00000000 1.00000000 0.00000000
vn -0.00000000 1.00000000 0.00000000
vn -0.00000000 1.00000000 0.00000000
vn -0.00000000 1.00000000 0.00000000
usemtl dark_trim
f 171/171/171 172/172/172 173/173/173 174/174/174
v 0.92187500 0.48437500 0.04375000
v 0.62990170 0.48437500 0.04375000
v 0.59865170 0.51562500 0.04375000
vt 0.92187500 0.51562500
vt 0.62990170 0.51562500
vt 0.59865170 0.48437500
vn -0.00000000 -0.00000000 -1.00000000
vn -0.00000000 -0.00000000 -1.00000000
vn -0.00000000 -0.00000000 -1.00000000
usemtl dark_trim
f 175/175/175 176/176/176 177/177/177
v 0.92187500 0.51562500 0.04375000
v 0.92187500 0.48437500 0.04375000
v 0.59865170 0.51562500 0.04375000
vt 0.92187500 0.48437500
vt 0.92187500 0.51562500
vt 0.59865170 0.48437500
vn -0.00000000 -0.00000000 -1.00000000
vn -0.00000000 -0.00000000 -1.00000000
vn -0.00000000 -0.00000000 -1.00000000
usemtl dark_trim
f 178/178/178 179/179/179 180/180/180
v 0.59865170 0.51562500 0.04375000
v 0.62990170 0.48437500 0.04375000
v 0.62990170 0.48437500 0.18750000
v 0.59865170 0.51562500 0.18750000
vt 0.00000000 1.00000000
vt 1.00000000 1.00000000
vt 1.00000000 0.00000000
vt 0.00000000 0.00000000
vn -0.70710678 -0.70710678 0.00000000
vn -0.70710678 -0.70710678 0.00000000
vn -0.70710678 -0.70710678 0.00000000
vn -0.70710678 -0.70710678 0.00000000
usemtl dark_trim
f 181/181/181 182/182/182 183/183/183 184/184/184
v 0.62990170 0.48437500 0.04375000
v 0.92187500 0.48437500 0.04375000
v 0.92187500 0.48437500 0.18750000
v 0.62990170 0.48437500 0.18750000
vt 0.00000000 1.00000000
vt 1.00000000 1.00000000
vt 1.00000000 0.00000000
vt 0.00000000 0.00000000
vn -0.00000000 -1.00000000 0.00000000
vn -0.00000000 -1.00000000 0.00000000
vn -0.00000000 -1.00000000 0.00000000
vn -0.00000000 -1.00000000 0.00000000
usemtl dark_trim
f 185/185/185 186/186/186 187/187/187 188/188/188
v 0.92187500 0.48437500 0.04375000
v 0.92187500 0.51562500 0.04375000
v 0.92187500 0.51562500 0.18750000
v 0.92187500 0.48437500 0.18750000
vt 0.00000000 1.00000000
vt 1.00000000 1.00000000
vt 1.00000000 0.00000000
vt 0.00000000 0.00000000
vn 1.00000000 -0.00000000 0.00000000
vn 1.00000000 -0.00000000 0.00000000
vn 1.00000000 -0.00000000 0.00000000
vn 1.00000000 -0.00000000 0.00000000
usemtl dark_trim
f 189/189/189 190/190/190 191/191/191 192/192/192
v 0.92187500 0.51562500 0.04375000
v 0.59865170 0.51562500 0.04375000
v 0.59865170 0.51562500 0.18750000
v 0.92187500 0.51562500 0.18750000
vt 0.00000000 1.00000000
vt 1.00000000 1.00000000
vt 1.00000000 0.00000000
vt 0.00000000 0.00000000
vn -0.00000000 1.00000000 0.00000000
vn -0.00000000 1.00000000 0.00000000
vn -0.00000000 1.00000000 0.00000000
vn -0.00000000 1.00000000 0.00000000
usemtl dark_trim
f 193/193/193 194/194/194 195/195/195 196/196/196
v 0.92187500 0.28125000 0.04375000
v 0.83302670 0.28125000 0.04375000
v 0.80177670 0.31250000 0.04375000
vt 0.92187500 0.71875000
vt 0.83302670 0.71875000
vt 0.80177670 0.68750000
vn -0.00000000 -0.00000000 -1.00000000
vn -0.00000000 -0.00000000 -1.00000000
vn -0.00000000 -0.00000000 -1.00000000
usemtl dark_trim
f 197/197/197 198/198/198 199/199/199
v 0.92187500 0.31250000 0.04375000
v 0.92187500 0.28125000 0.04375000
v 0.80177670 0.31250000 0.04375000
vt 0.92187500 0.68750000
vt 0.92187500 0.71875000
vt 0.80177670 0.68750000
vn -0.00000000 -0.00000000 -1.00000000
vn -0.00000000 -0.00000000 -1.00000000
vn -0.00000000 -0.00000000 -1.00000000
usemtl dark_trim
f 200/200/200 201/201/201 202/202/202
v 0.80177670 0.31250000 0.04375000
v 0.83302670 0.28125000 0.04375000
v 0.83302670 0.28125000 0.18750000
v 0.80177670 0.31250000 0.18750000
vt 0.00000000 1.00000000
vt 1.00000000 1.00000000
vt 1.00000000 0.00000000
vt 0.00000000 0.00000000
vn -0.70710678 -0.70710678 0.00000000
vn -0.70710678 -0.70710678 0.00000000
vn -0.70710678 -0.70710678 0.00000000
vn -0.70710678 -0.70710678 0.00000000
usemtl dark_trim
f 203/203/203 204/204/204 205/205/205 206/206/206
v 0.83302670 0.28125000 0.04375000
v 0.92187500 0.28125000 0.04375000
v 0.92187500 0.28125000 0.18750000
v 0.83302670 0.28125000 0.18750000
vt 0.00000000 1.00000000
vt 1.00000000 1.00000000
vt 1.00000000 0.00000000
vt 0.00000000 0.00000000
vn -0.00000000 -1.00000000 0.00000000
vn -0.00000000 -1.00000000 0.00000000
vn -0.00000000 -1.00000000 0.00000000
vn -0.00000000 -1.00000000 0.00000000
usemtl dark_trim
f 207/207/207 208/208/208 209/209/209 210/210/210
v 0.92187500 0.28125000 0.04375000
v 0.92187500 0.31250000 0.04375000
v 0.92187500 0.31250000 0.18750000
v 0.92187500 0.28125000 0.18750000
vt 0.00000000 1.00000000
vt 1.00000000 1.00000000
vt 1.00000000 0.00000000
vt 0.00000000 0.00000000
vn 1.00000000 -0.00000000 0.00000000
vn 1.00000000 -0.00000000 0.00000000
vn 1.00000000 -0.00000000 0.00000000
vn 1.00000000 -0.00000000 0.00000000
usemtl dark_trim
f 211/211/211 212/212/212 213/213/213 214/214/214
v 0.92187500 0.31250000 0.04375000
v 0.80177670 0.31250000 0.04375000
v 0.80177670 0.31250000 0.18750000
v 0.92187500 0.31250000 0.18750000
vt 0.00000000 1.00000000
vt 1.00000000 1.00000000
vt 1.00000000 0.00000000
vt 0.00000000 0.00000000
vn -0.00000000 1.00000000 0.00000000
vn -0.00000000 1.00000000 0.00000000
vn -0.00000000 1.00000000 0.00000000
vn -0.00000000 1.00000000 0.00000000
usemtl dark_trim
f 215/215/215 216/216/216 217/217/217 218/218/218
