mtllib impulse_engine_hexagonal_on.mtl
o thruster
v 0.26519040 0.36858629 0.90444982
v 0.42788853 0.65952126 0.95314200
v 0.41702031 0.67503018 0.94219346
v 0.24798329 0.37276009 0.89160418
vt 0.00000000 1.00000000
vt 1.00000000 1.00000000
vt 1.00000000 0.00000000
vt 0.00000000 0.00000000
vn -0.56054592 0.17811674 0.80874143
vn -0.56054592 0.17811674 0.80874143
vn -0.56054592 0.17811674 0.80874143
vn -0.56054592 0.17811674 0.80874143
usemtl trim
f 1/1/1 2/2/2 3/3/3 4/4/4
v 0.42788853 0.65952126 0.95314200
v 0.75328480 0.68646435 0.87021970
v 0.75509435 0.70302300 0.85604042
v 0.41702031 0.67503018 0.94219346
vt 0.00000000 1.00000000
vt 1.00000000 1.00000000
vt 1.00000000 0.00000000
vt 0.00000000 0.00000000
vn 0.14097997 0.63499493 0.75954334
vn 0.14097997 0.63499493 0.75954334
vn 0.14097997 0.63499493 0.75954334
vn 0.14097997 0.63499493 0.75954334
usemtl trim
f 5/5/5 6/6/6 7/7/7 8/8/8
v 0.75328480 0.68646435 0.87021970
v 0.91598293 0.42247247 0.73860522
v 0.92413137 0.42874573 0.71929810
v 0.75509435 0.70302300 0.85604042
vt 0.00000000 1.00000000
vt 1.00000000 1.00000000
vt 1.00000000 0.00000000
vt 0.00000000 0.00000000
vn 0.84250586 0.29429062 0.45119498
vn 0.84250586 0.29429062 0.45119498
vn 0.84250586 0.29429062 0.45119498
vn 0.84250586 0.29429062 0.45119498
usemtl trim
f 9/9/9 10/10/10 11/11/11 12/12/12
v 0.91598293 0.42247247 0.73860522
v 0.75328480 0.13153749 0.68991304
v 0.75509435 0.12647563 0.66870882
v 0.92413137 0.42874573 0.71929810
vt 0.00000000 1.00000000
vt 1.00000000 1.00000000
vt 1.00000000 0.00000000
vt 0.00000000 0.00000000
vn 0.84250586 -0.50329187 0.19204472
vn 0.84250586 -0.50329187 0.19204472
vn 0.84250586 -0.50329187 0.19204472
vn 0.84250586 -0.50329187 0.19204472
usemtl trim
f 13/13/13 14/14/14 15/15/15 16/16/16
v 0.75328480 0.13153749 0.68991304
v 0.42788853 0.10459441 0.77283534
v 0.41702031 0.09848281 0.75486186
v 0.75509435 0.12647563 0.66870882
vt 0.00000000 1.00000000
vt 1.00000000 1.00000000
vt 1.00000000 0.00000000
vt 0.00000000 0.00000000
vn 0.14097997 -0.96017007 0.24124281
vn 0.14097997 -0.96017007 0.24124281
vn 0.14097997 -0.96017007 0.24124281
vn 0.14097997 -0.96017007 0.24124281
usemtl trim
f 17/17/17 18/18/18 19/19/19 20/20/20
v 0.42788853 0.10459441 0.77283534
v 0.26519040 0.36858629 0.90444982
v 0.24798329 0.37276009 0.89160418
v 0.41702031 0.09848281 0.75486186
vt 0.00000000 1.00000000
vt 1.00000000 1.00000000
vt 1.00000000 0.00000000
vt 0.00000000 0.00000000
vn -0.56054592 -0.61946575 0.54959117
vn -0.56054592 -0.61946575 0.54959117
vn -0.56054592 -0.61946575 0.54959117
vn -0.56054592 -0.61946575 0.54959117
usemtl trim
f 21/21/21 22/22/22 23/23/23 24/24/24
v 0.24798329 0.37276009 0.89160418
v 0.41702031 0.67503018 0.94219346
v 0.24717031 0.87091260 0.33932936
v 0.07813329 0.56864251 0.28874008
vt 0.00000000 1.00000000
vt 1.00000000 1.00000000
vt 1.00000000 0.00000000
vt 0.00000000 0.00000000
vn -0.83651630 0.40626399 0.36768198
vn -0.83651630 0.40626399 0.36768198
vn -0.83651630 0.40626399 0.36768198
vn -0.83651630 0.40626399 0.36768198
usemtl side
f 25/25/25 26/26/26 27/27/27 28/28/28
v 0.41702031 0.67503018 0.94219346
v 0.75509435 0.70302300 0.85604042
v 0.58524435 0.89890542 0.25317632
v 0.24717031 0.87091260 0.33932936
vt 0.00000000 1.00000000
vt 1.00000000 1.00000000
vt 1.00000000 0.00000000
vt 0.00000000 0.00000000
vn -0.00000000 0.95105652 0.30901699
vn -0.00000000 0.95105652 0.30901699
vn -0.00000000 0.95105652 0.30901699
vn -0.00000000 0.95105652 0.30901699
usemtl side
f 29/29/29 30/30/30 31/31/31 32/32/32
v 0.75509435 0.70302300 0.85604042
v 0.92413137 0.42874573 0.71929810
v 0.75428137 0.62462815 0.11643401
v 0.58524435 0.89890542 0.25317632
vt 0.00000000 1.00000000
vt 1.00000000 1.00000000
vt 1.00000000 0.00000000
vt 0.00000000 0.00000000
vn 0.83651630 0.54479252 -0.05866499
vn 0.83651630 0.54479252 -0.05866499
vn 0.83651630 0.54479252 -0.05866499
vn 0.83651630 0.54479252 -0.05866499
usemtl side
f 33/33/33 34/34/34 35/35/35 36/36/36
v 0.92413137 0.42874573 0.71929810
v 0.75509435 0.12647563 0.66870882
v 0.58524435 0.32235805 0.06584473
v 0.75428137 0.62462815 0.11643401
vt 0.00000000 1.00000000
vt 1.00000000 1.00000000
vt 1.00000000 0.00000000
vt 0.00000000 0.00000000
vn 0.83651630 -0.40626399 -0.36768198
vn 0.83651630 -0.40626399 -0.36768198
vn 0.83651630 -0.40626399 -0.36768198
vn 0.83651630 -0.40626399 -0.36768198
usemtl side
f 37/37/37 38/38/38 39/39/39 40/40/40
v 0.75509435 0.12647563 0.66870882
v 0.41702031 0.09848281 0.75486186
v 0.24717031 0.29436523 0.15199777
v 0.58524435 0.32235805 0.06584473
vt 0.00000000 1.00000000
vt 1.00000000 1.00000000
vt 1.00000000 0.00000000
vt 0.00000000 0.00000000
vn 0.00000000 -0.95105652 -0.30901699
vn 0.00000000 -0.95105652 -0.30901699
vn 0.00000000 -0.95105652 -0.30901699
vn 0.00000000 -0.95105652 -0.30901699
usemtl side
f 41/41/41 42/42/42 43/43/43 44/44/44
v 0.41702031 0.09848281 0.75486186
v 0.24798329 0.37276009 0.89160418
v 0.07813329 0.56864251 0.28874008
v 0.24717031 0.29436523 0.15199777
vt 0.00000000 1.00000000
vt 1.00000000 1.00000000
vt 1.00000000 0.00000000
vt 0.00000000 0.00000000
vn -0.83651630 -0.54479252 0.05866499
vn -0.83651630 -0.54479252 0.05866499
vn -0.83651630 -0.54479252 0.05866499
vn -0.83651630 -0.54479252 0.05866499
usemtl side
f 45/45/45 46/46/46 47/47/47 48/48/48
v 0.07813329 0.56864251 0.28874008
v 0.24717031 0.87091260 0.33932936
v 0.24882817 0.86503404 0.30837768
v 0.08824300 0.57787745 0.26031787
vt 0.00000000 1.00000000
vt 1.00000000 1.00000000
vt 1.00000000 0.00000000
vt 0.00000000 0.00000000
vn -0.85385389 0.50107869 -0.14090309
vn -0.85385389 0.50107869 -0.14090309
vn -0.85385389 0.50107869 -0.14090309
vn -0.85385389 0.50107869 -0.14090309
usemtl dark_trim
f 49/49/49 50/50/50 51/51/51 52/52/52
v 0.24717031 0.87091260 0.33932936
v 0.58524435 0.89890542 0.25317632
v 0.56999850 0.89162722 0.22653230
v 0.24882817 0.86503404 0.30837768
vt 0.00000000 1.00000000
vt 1.00000000 1.00000000
vt 1.00000000 0.00000000
vt 0.00000000 0.00000000
vn -0.12940952 0.97288285 -0.19170846
vn -0.12940952 0.97288285 -0.19170846
vn -0.12940952 0.97288285 -0.19170846
vn -0.12940952 0.97288285 -0.19170846
usemtl dark_trim
f 53/53/53 54/54/54 55/55/55 56/56/56
v 0.58524435 0.89890542 0.25317632
v 0.75428137 0.62462815 0.11643401
v 0.73058367 0.63106380 0.09662710
v 0.56999850 0.89162722 0.22653230
vt 0.00000000 1.00000000
vt 1.00000000 1.00000000
vt 1.00000000 0.00000000
vt 0.00000000 0.00000000
vn 0.59503485 0.62104791 -0.51013040
vn 0.59503485 0.62104791 -0.51013040
vn 0.59503485 0.62104791 -0.51013040
vn 0.59503485 0.62104791 -0.51013040
usemtl dark_trim
f 57/57/57 58/58/58 59/59/59 60/60/60
v 0.75428137 0.62462815 0.11643401
v 0.58524435 0.32235805 0.06584473
v 0.56999850 0.34390721 0.04856728
v 0.73058367 0.63106380 0.09662710
vt 0.00000000 1.00000000
vt 1.00000000 1.00000000
vt 1.00000000 0.00000000
vt 0.00000000 0.00000000
vn 0.59503485 -0.20259119 -0.77774696
vn 0.59503485 -0.20259119 -0.77774696
vn 0.59503485 -0.20259119 -0.77774696
vn 0.59503485 -0.20259119 -0.77774696
usemtl dark_trim
f 61/61/61 62/62/62 63/63/63 64/64/64
v 0.58524435 0.32235805 0.06584473
v 0.24717031 0.29436523 0.15199777
v 0.24882817 0.31731403 0.13041267
v 0.56999850 0.34390721 0.04856728
vt 0.00000000 1.00000000
vt 1.00000000 1.00000000
vt 1.00000000 0.00000000
vt 0.00000000 0.00000000
vn -0.12940952 -0.67439535 -0.72694159
vn -0.12940952 -0.67439535 -0.72694159
vn -0.12940952 -0.67439535 -0.72694159
vn -0.12940952 -0.67439535 -0.72694159
usemtl dark_trim
f 65/65/65 66/66/66 67/67/67 68/68/68
v 0.24717031 0.29436523 0.15199777
v 0.07813329 0.56864251 0.28874008
v 0.08824300 0.57787745 0.26031787
v 0.24882817 0.31731403 0.13041267
vt 0.00000000 1.00000000
vt 1.00000000 1.00000000
vt 1.00000000 0.00000000
vt 0.00000000 0.00000000
vn -0.85385389 -0.32256041 -0.40851965
vn -0.85385389 -0.32256041 -0.40851965
vn -0.85385389 -0.32256041 -0.40851965
vn -0.85385389 -0.32256041 -0.40851965
usemtl dark_trim
f 69/69/69 70/70/70 71/71/71 72/72/72
v 0.40941333 0.60447062 0.17847248
v 0.08824300 0.57787745 0.26031787
v 0.24882817 0.86503404 0.30837768
vt 0.50000000 0.50000000
vt 0.02500000 0.50000000
vt 0.26250000 0.91136207
vn -0.25881905 0.29848750 -0.91865005
vn -0.25881905 0.29848750 -0.91865005
vn -0.25881905 0.29848750 -0.91865005
usemtl rear
f 73/73/73 74/74/74 75/75/75
v 0.40941333 0.60447062 0.17847248
v 0.24882817 0.86503404 0.30837768
v 0.56999850 0.89162722 0.22653230
vt 0.50000000 0.50000000
vt 0.26250000 0.91136207
vt 0.73750000 0.91136207
vn -0.25881905 0.29848750 -0.91865005
vn -0.25881905 0.29848750 -0.91865005
vn -0.25881905 0.29848750 -0.91865005
usemtl rear
f 76/76/76 77/77/77 78/78/78
v 0.40941333 0.60447062 0.17847248
v 0.56999850 0.89162722 0.22653230
v 0.73058367 0.63106380 0.09662710
vt 0.50000000 0.50000000
vt 0.73750000 0.91136207
vt 0.97500000 0.50000000
vn -0.25881905 0.29848750 -0.91865005
vn -0.25881905 0.29848750 -0.91865005
vn -0.25881905 0.29848750 -0.91865005
usemtl rear
f 79/79/79 80/80/80 81/81/81
v 0.40941333 0.60447062 0.17847248
v 0.73058367 0.63106380 0.09662710
v 0.56999850 0.34390721 0.04856728
vt 0.50000000 0.50000000
vt 0.97500000 0.50000000
vt 0.73750000 0.08863793
vn -0.25881905 0.29848750 -0.91865005
vn -0.25881905 0.29848750 -0.91865005
vn -0.25881905 0.29848750 -0.91865005
usemtl rear
f 82/82/82 83/83/83 84/84/84
v 0.40941333 0.60447062 0.17847248
v 0.56999850 0.34390721 0.04856728
v 0.24882817 0.31731403 0.13041267
vt 0.50000000 0.50000000
vt 0.73750000 0.08863793
vt 0.26250000 0.08863793
vn -0.25881905 0.29848750 -0.91865005
vn -0.25881905 0.29848750 -0.91865005
vn -0.25881905 0.29848750 -0.91865005
usemtl rear
f 85/85/85 86/86/86 87/87/87
v 0.40941333 0.60447062 0.17847248
v 0.24882817 0.31731403 0.13041267
v 0.08824300 0.57787745 0.26031787
vt 0.50000000 0.50000000
vt 0.26250000 0.08863793
vt 0.02500000 0.50000000
vn -0.25881905 0.29848750 -0.91865005
vn -0.25881905 0.29848750 -0.91865005
vn -0.25881905 0.29848750 -0.91865005
usemtl rear
f 88/88/88 89/89/89 90/90/90
v 0.32646632 0.37365999 0.88883458
v 0.45852649 0.60980850 0.92835745
v 0.42788853 0.65952126 0.95314200
v 0.26519040 0.36858629 0.90444982
vt 0.10937500 0.50000000
vt 0.30468750 0.83829117
vt 0.25937500 0.91677473
vt 0.01875000 0.50000000
vn 0.25881905 -0.29848750 0.91865005
vn 0.25881905 -0.29848750 0.91865005
vn 0.25881905 -0.29848750 0.91865005
vn 0.25881905 -0.29848750 0.91865005
usemtl trim
f 91/91/91 92/92/92 93/93/93 94/94/94
v 0.45852649 0.60980850 0.92835745
v 0.72264684 0.63167789 0.86105039
v 0.75328480 0.68646435 0.87021970
v 0.42788853 0.65952126 0.95314200
vt 0.30468750 0.83829117
vt 0.69531250 0.83829117
vt 0.74062500 0.91677473
vt 0.25937500 0.91677473
vn 0.25881905 -0.29848750 0.91865005
vn 0.25881905 -0.29848750 0.91865005
vn 0.25881905 -0.29848750 0.91865005
vn 0.25881905 -0.29848750 0.91865005
usemtl trim
f 95/95/95 96/96/96 97/97/97 98/98/98
v 0.72264684 0.63167789 0.86105039
v 0.85470701 0.41739877 0.75422046
v 0.91598293 0.42247247 0.73860522
v 0.75328480 0.68646435 0.87021970
vt 0.69531250 0.83829117
vt 0.89062500 0.50000000
vt 0.98125000 0.50000000
vt 0.74062500 0.91677473
vn 0.25881905 -0.29848750 0.91865005
vn 0.25881905 -0.29848750 0.91865005
vn 0.25881905 -0.29848750 0.91865005
vn 0.25881905 -0.29848750 0.91865005
usemtl trim
f 99/99/99 100/100/100 101/101/101 102/102/102
v 0.85470701 0.41739877 0.75422046
v 0.72264684 0.18125026 0.71469758
v 0.75328480 0.13153749 0.68991304
v 0.91598293 0.42247247 0.73860522
vt 0.89062500 0.50000000
vt 0.69531250 0.16170883
vt 0.74062500 0.08322527
vt 0.98125000 0.50000000
vn 0.25881905 -0.29848750 0.91865005
vn 0.25881905 -0.29848750 0.91865005
vn 0.25881905 -0.29848750 0.91865005
vn 0.25881905 -0.29848750 0.91865005
usemtl trim
f 103/103/103 104/104/104 105/105/105 106/106/106
v 0.72264684 0.18125026 0.71469758
v 0.45852649 0.15938087 0.78200464
v 0.42788853 0.10459441 0.77283534
v 0.75328480 0.13153749 0.68991304
vt 0.69531250 0.16170883
vt 0.30468750 0.16170883
vt 0.25937500 0.08322527
vt 0.74062500 0.08322527
vn 0.25881905 -0.29848750 0.91865005
vn 0.25881905 -0.29848750 0.91865005
vn 0.25881905 -0.29848750 0.91865005
vn 0.25881905 -0.29848750 0.91865005
usemtl trim
f 107/107/107 108/108/108 109/109/109 110/110/110
v 0.45852649 0.15938087 0.78200464
v 0.32646632 0.37365999 0.88883458
v 0.26519040 0.36858629 0.90444982
v 0.42788853 0.10459441 0.77283534
vt 0.30468750 0.16170883
vt 0.10937500 0.50000000
vt 0.01875000 0.50000000
vt 0.25937500 0.08322527
vn 0.25881905 -0.29848750 0.91865005
vn 0.25881905 -0.29848750 0.91865005
vn 0.25881905 -0.29848750 0.91865005
vn 0.25881905 -0.29848750 0.91865005
usemtl trim
f 111/111/111 112/112/112 113/113/113 114/114/114
v 0.29249632 0.41283647 0.76826176
v 0.42455649 0.64898498 0.80778463
v 0.45852649 0.60980850 0.92835745
v 0.32646632 0.37365999 0.88883458
vt 0.00000000 1.00000000
vt 1.00000000 1.00000000
vt 1.00000000 0.00000000
vt 0.00000000 0.00000000
vn 0.83651630 -0.40626399 -0.36768198
vn 0.83651630 -0.40626399 -0.36768198
vn 0.83651630 -0.40626399 -0.36768198
vn 0.83651630 -0.40626399 -0.36768198
usemtl cavity
f 115/115/115 116/116/116 117/117/117 118/118/118
v 0.42455649 0.64898498 0.80778463
v 0.68867684 0.67085437 0.74047757
v 0.72264684 0.63167789 0.86105039
v 0.45852649 0.60980850 0.92835745
vt 0.00000000 1.00000000
vt 1.00000000 1.00000000
vt 1.00000000 0.00000000
vt 0.00000000 0.00000000
vn 0.00000000 -0.95105652 -0.30901699
vn 0.00000000 -0.95105652 -0.30901699
vn 0.00000000 -0.95105652 -0.30901699
vn 0.00000000 -0.95105652 -0.30901699
usemtl cavity
f 119/119/119 120/120/120 121/121/121 122/122/122
v 0.68867684 0.67085437 0.74047757
v 0.82073701 0.45657525 0.63364764
v 0.85470701 0.41739877 0.75422046
v 0.72264684 0.63167789 0.86105039
vt 0.00000000 1.00000000
vt 1.00000000 1.00000000
vt 1.00000000 0.00000000
vt 0.00000000 0.00000000
vn -0.83651630 -0.54479252 0.05866499
vn -0.83651630 -0.54479252 0.05866499
vn -0.83651630 -0.54479252 0.05866499
vn -0.83651630 -0.54479252 0.05866499
usemtl cavity
f 123/123/123 124/124/124 125/125/125 126/126/126
v 0.82073701 0.45657525 0.63364764
v 0.68867684 0.22042674 0.59412476
v 0.72264684 0.18125026 0.71469758
v 0.85470701 0.41739877 0.75422046
vt 0.00000000 1.00000000
vt 1.00000000 1.00000000
vt 1.00000000 0.00000000
vt 0.00000000 0.00000000
vn -0.83651630 0.40626399 0.36768198
vn -0.83651630 0.40626399 0.36768198
vn -0.83651630 0.40626399 0.36768198
vn -0.83651630 0.40626399 0.36768198
usemtl cavity
f 127/127/127 128/128/128 129/129/129 130/130/130
v 0.68867684 0.22042674 0.59412476
v 0.42455649 0.19855735 0.66143183
v 0.45852649 0.15938087 0.78200464
v 0.72264684 0.18125026 0.71469758
vt 0.00000000 1.00000000
vt 1.00000000 1.00000000
vt 1.00000000 0.00000000
vt 0.00000000 0.00000000
vn 0.00000000 0.95105652 0.30901699
vn 0.00000000 0.95105652 0.30901699
vn 0.00000000 0.95105652 0.30901699
vn 0.00000000 0.95105652 0.30901699
usemtl cavity
f 131/131/131 132/132/132 133/133/133 134/134/134
v 0.42455649 0.19855735 0.66143183
v 0.29249632 0.41283647 0.76826176
v 0.32646632 0.37365999 0.88883458
v 0.45852649 0.15938087 0.78200464
vt 0.00000000 1.00000000
vt 1.00000000 1.00000000
vt 1.00000000 0.00000000
vt 0.00000000 0.00000000
vn 0.83651630 0.54479252 -0.05866499
vn 0.83651630 0.54479252 -0.05866499
vn 0.83651630 0.54479252 -0.05866499
vn 0.83651630 0.54479252 -0.05866499
usemtl cavity
f 135/135/135 136/136/136 137/137/137 138/138/138
v 0.42455649 0.64898498 0.80778463
v 0.29249632 0.41283647 0.76826176
v 0.55661667 0.43470586 0.70095470
vt 0.35351562 0.93989320
vt 0.20703125 0.91875000
vt 0.50000000 0.91875000
vn 0.25881905 -0.29848750 0.91865005
vn 0.25881905 -0.29848750 0.91865005
vn 0.25881905 -0.29848750 0.91865005
usemtl impulse_on
f 139/139/139 140/140/140 141/141/141
v 0.68867684 0.67085437 0.74047757
v 0.42455649 0.64898498 0.80778463
v 0.55661667 0.43470586 0.70095470
vt 0.64648437 0.93989320
vt 0.35351562 0.93989320
vt 0.50000000 0.91875000
vn 0.25881905 -0.29848750 0.91865005
vn 0.25881905 -0.29848750 0.91865005
vn 0.25881905 -0.29848750 0.91865005
usemtl impulse_on
f 142/142/142 143/143/143 144/144/144
v 0.82073701 0.45657525 0.63364764
v 0.68867684 0.67085437 0.74047757
v 0.55661667 0.43470586 0.70095470
vt 0.79296875 0.91875000
vt 0.64648437 0.93989320
vt 0.50000000 0.91875000
vn 0.25881905 -0.29848750 0.91865005
vn 0.25881905 -0.29848750 0.91865005
vn 0.25881905 -0.29848750 0.91865005
usemtl impulse_on
f 145/145/145 146/146/146 147/147/147
v 0.68867684 0.22042674 0.59412476
v 0.82073701 0.45657525 0.63364764
v 0.55661667 0.43470586 0.70095470
vt 0.64648438 0.89760680
vt 0.79296875 0.91875000
vt 0.50000000 0.91875000
vn 0.25881905 -0.29848750 0.91865005
vn 0.25881905 -0.29848750 0.91865005
vn 0.25881905 -0.29848750 0.91865005
usemtl impulse_on
f 148/148/148 149/149/149 150/150/150
v 0.42455649 0.19855735 0.66143183
v 0.68867684 0.22042674 0.59412476
v 0.55661667 0.43470586 0.70095470
vt 0.35351562 0.89760680
vt 0.64648438 0.89760680
vt 0.50000000 0.91875000
vn 0.25881905 -0.29848750 0.91865005
vn 0.25881905 -0.29848750 0.91865005
vn 0.25881905 -0.29848750 0.91865005
usemtl impulse_on
f 151/151/151 152/152/152 153/153/153
v 0.29249632 0.41283647 0.76826176
v 0.42455649 0.19855735 0.66143183
v 0.55661667 0.43470586 0.70095470
vt 0.20703125 0.91875000
vt 0.35351562 0.89760680
vt 0.50000000 0.91875000
vn 0.25881905 -0.29848750 0.91865005
vn 0.25881905 -0.29848750 0.91865005
vn 0.25881905 -0.29848750 0.91865005
usemtl impulse_on
f 154/154/154 155/155/155 156/156/156
v 0.60718696 0.17728864 0.72689017
v 0.60718696 0.62771627 0.87324298
v 0.56492771 0.62421717 0.88401211
vt 0.53125000 0.16170883
vt 0.53125000 0.83829117
vt 0.46875000 0.83829117
vn 0.25881905 -0.29848750 0.91865005
vn 0.25881905 -0.29848750 0.91865005
vn 0.25881905 -0.29848750 0.91865005
usemtl trim
f 157/157/157 158/158/158 159/159/159
v 0.56492771 0.17378954 0.73765930
v 0.60718696 0.17728864 0.72689017
v 0.56492771 0.62421717 0.88401211
vt 0.46875000 0.16170883
vt 0.53125000 0.16170883
vt 0.46875000 0.83829117
vn 0.25881905 -0.29848750 0.91865005
vn 0.25881905 -0.29848750 0.91865005
vn 0.25881905 -0.29848750 0.91865005
usemtl trim
f 160/160/160 161/161/161 162/162/162
v 0.56492771 0.62421717 0.88401211
v 0.60718696 0.62771627 0.87324298
v 0.57774629 0.66166923 0.76874654
v 0.53548704 0.65817012 0.77951567
vt 0.00000000 1.00000000
vt 1.00000000 1.00000000
vt 1.00000000 0.00000000
vt 0.00000000 0.00000000
vn -0.00000000 0.95105652 0.30901699
vn -0.00000000 0.95105652 0.30901699
vn -0.00000000 0.95105652 0.30901699
vn -0.00000000 0.95105652 0.30901699
usemtl trim
f 163/163/163 164/164/164 165/165/165 166/166/166
v 0.60718696 0.62771627 0.87324298
v 0.60718696 0.17728864 0.72689017
v 0.57774629 0.21124160 0.62239373
v 0.57774629 0.66166923 0.76874654
vt 0.00000000 1.00000000
vt 1.00000000 1.00000000
vt 1.00000000 0.00000000
vt 0.00000000 0.00000000
vn 0.96592583 0.07997948 -0.24615154
vn 0.96592583 0.07997948 -0.24615154
vn 0.96592583 0.07997948 -0.24615154
vn 0.96592583 0.07997948 -0.24615154
usemtl trim
f 167/167/167 168/168/168 169/169/169 170/170/170
v 0.60718696 0.17728864 0.72689017
v 0.56492771 0.17378954 0.73765930
v 0.53548704 0.20774249 0.63316286
v 0.57774629 0.21124160 0.62239373
vt 0.00000000 1.00000000
vt 1.00000000 1.00000000
vt 1.00000000 0.00000000
vt 0.00000000 0.00000000
vn 0.00000000 -0.95105652 -0.30901699
vn 0.00000000 -0.95105652 -0.30901699
vn 0.00000000 -0.95105652 -0.30901699
vn 0.00000000 -0.95105652 -0.30901699
usemtl trim
f 171/171/171 172/172/172 173/173/173 174/174/174
v 0.56492771 0.17378954 0.73765930
v 0.56492771 0.62421717 0.88401211
v 0.53548704 0.65817012 0.77951567
v 0.53548704 0.20774249 0.63316286
vt 0.00000000 1.00000000
vt 1.00000000 1.00000000
vt 1.00000000 0.00000000
vt 0.00000000 0.00000000
vn -0.96592583 -0.07997948 0.24615154
vn -0.96592583 -0.07997948 0.24615154
vn -0.96592583 -0.07997948 0.24615154
vn -0.96592583 -0.07997948 0.24615154
usemtl trim
f 175/175/175 176/176/176 177/177/177 178/178/178
v 0.40393436 0.24424136 0.79162123
v 0.76138630 0.27383869 0.70053003
v 0.77358550 0.29565315 0.70418100
vt 0.23567037 0.28125000
vt 0.76432963 0.28125000
vt 0.78237182 0.31250000
vn 0.25881905 -0.29848750 0.91865005
vn 0.25881905 -0.29848750 0.91865005
vn 0.25881905 -0.29848750 0.91865005
usemtl dark_trim
f 179/179/179 180/180/180 181/181/181
v 0.39173517 0.26403562 0.80148976
v 0.40393436 0.24424136 0.79162123
v 0.77358550 0.29565315 0.70418100
vt 0.21762818 0.31250000
vt 0.23567037 0.28125000
vt 0.78237182 0.31250000
vn 0.25881905 -0.29848750 0.91865005
vn 0.25881905 -0.29848750 0.91865005
vn 0.25881905 -0.29848750 0.91865005
usemtl dark_trim
f 182/182/182 183/183/183 184/184/184
v 0.77358550 0.29565315 0.70418100
v 0.76138630 0.27383869 0.70053003
v 0.73534264 0.30387399 0.60809087
v 0.74754183 0.32568846 0.61174184
vt 0.00000000 1.00000000
vt 1.00000000 1.00000000
vt 1.00000000 0.00000000
vt 0.00000000 0.00000000
vn 0.83651630 -0.40626399 -0.36768198
vn 0.83651630 -0.40626399 -0.36768198
vn 0.83651630 -0.40626399 -0.36768198
vn 0.83651630 -0.40626399 -0.36768198
usemtl dark_trim
f 185/185/185 186/186/186 187/187/187 188/188/188
v 0.76138630 0.27383869 0.70053003
v 0.40393436 0.24424136 0.79162123
v 0.37789069 0.27427667 0.69918207
v 0.73534264 0.30387399 0.60809087
vt 0.00000000 1.00000000
vt 1.00000000 1.00000000
vt 1.00000000 0.00000000
vt 0.00000000 0.00000000
vn -0.00000000 -0.95105652 -0.30901699
vn -0.00000000 -0.95105652 -0.30901699
vn -0.00000000 -0.95105652 -0.30901699
vn -0.00000000 -0.95105652 -0.30901699
usemtl dark_trim
f 189/189/189 190/190/190 191/191/191 192/192/192
v 0.40393436 0.24424136 0.79162123
v 0.39173517 0.26403562 0.80148976
v 0.36569150 0.29407093 0.70905060
v 0.37789069 0.27427667 0.69918207
vt 0.00000000 1.00000000
vt 1.00000000 1.00000000
vt 1.00000000 0.00000000
vt 0.00000000 0.00000000
vn -0.83651630 -0.54479252 0.05866499
vn -0.83651630 -0.54479252 0.05866499
vn -0.83651630 -0.54479252 0.05866499
vn -0.83651630 -0.54479252 0.05866499
usemtl dark_trim
f 193/193/193 194/194/194 195/195/195 196/196/196
v 0.39173517 0.26403562 0.80148976
v 0.77358550 0.29565315 0.70418100
v 0.74754183 0.32568846 0.61174184
v 0.36569150 0.29407093 0.70905060
vt 0.00000000 1.00000000
vt 1.00000000 1.00000000
vt 1.00000000 0.00000000
vt 0.00000000 0.00000000
vn -0.00000000 0.95105652 0.30901699
vn -0.00000000 0.95105652 0.30901699
vn -0.00000000 0.95105652 0.30901699
vn -0.00000000 0.95105652 0.30901699
usemtl dark_trim
f 197/197/197 198/198/198 199/199/199 200/200/200
v 0.84068108 0.43643707 0.73102106
v 0.32463959 0.39370840 0.86252640
v 0.31853999 0.38280117 0.86070092
vt 0.88160390 0.51562500
vt 0.11839610 0.51562500
vt 0.10937500 0.50000000
vn 0.25881905 -0.29848750 0.91865005
vn 0.25881905 -0.29848750 0.91865005
vn 0.25881905 -0.29848750 0.91865005
usemtl dark_trim
f 201/201/201 202/202/202 203/203/203
v 0.84678068 0.42653995 0.72608680
v 0.84068108 0.43643707 0.73102106
v 0.31853999 0.38280117 0.86070092
vt 0.89062500 0.50000000
vt 0.88160390 0.51562500
vt 0.10937500 0.50000000
vn 0.25881905 -0.29848750 0.91865005
vn 0.25881905 -0.29848750 0.91865005
vn 0.25881905 -0.29848750 0.91865005
usemtl dark_trim
f 204/204/204 205/205/205 206/206/206
v 0.84068108 0.41563271 0.72426132
v 0.84678068 0.42653995 0.72608680
v 0.31853999 0.38280117 0.86070092
vt 0.88160390 0.48437500
vt 0.89062500 0.50000000
vt 0.10937500 0.50000000
vn 0.25881905 -0.29848750 0.91865005
vn 0.25881905 -0.29848750 0.91865005
vn 0.25881905 -0.29848750 0.91865005
usemtl dark_trim
f 207/207/207 208/208/208 209/209/209
v 0.32463959 0.37290404 0.85576666
v 0.84068108 0.41563271 0.72426132
v 0.31853999 0.38280117 0.86070092
vt 0.11839610 0.48437500
vt 0.88160390 0.48437500
vt 0.10937500 0.50000000
vn 0.25881905 -0.29848750 0.91865005
vn 0.25881905 -0.29848750 0.91865005
vn 0.25881905 -0.29848750 0.91865005
usemtl dark_trim
f 210/210/210 211/211/211 212/212/212
v 0.31853999 0.38280117 0.86070092
v 0.32463959 0.39370840 0.86252640
v 0.29859592 0.42374370 0.77008724
v 0.29249632 0.41283647 0.76826176
vt 0.00000000 1.00000000
vt 1.00000000 1.00000000
vt 1.00000000 0.00000000
vt 0.00000000 0.00000000
vn -0.83651630 0.40626399 0.36768198
vn -0.83651630 0.40626399 0.36768198
vn -0.83651630 0.40626399 0.36768198
vn -0.83651630 0.40626399 0.36768198
usemtl dark_trim
f 213/213/213 214/214/214 215/215/215 216/216/216
v 0.32463959 0.39370840 0.86252640
v 0.84068108 0.43643707 0.73102106
v 0.81463741 0.46647238 0.63858190
v 0.29859592 0.42374370 0.77008724
vt 0.00000000 1.00000000
vt 1.00000000 1.00000000
vt 1.00000000 0.00000000
vt 0.00000000 0.00000000
vn -0.00000000 0.95105652 0.30901699
vn -0.00000000 0.95105652 0.30901699
vn -0.00000000 0.95105652 0.30901699
vn -0.00000000 0.95105652 0.30901699
usemtl dark_trim
f 217/217/217 218/218/218 219/219/219 220/220/220
v 0.84068108 0.43643707 0.73102106
v 0.84678068 0.42653995 0.72608680
v 0.82073701 0.45657525 0.63364764
v 0.81463741 0.46647238 0.63858190
vt 0.00000000 1.00000000
vt 1.00000000 1.00000000
vt 1.00000000 0.00000000
vt 0.00000000 0.00000000
vn 0.83651630 0.54479252 -0.05866499
vn 0.83651630 0.54479252 -0.05866499
vn 0.83651630 0.54479252 -0.05866499
vn 0.83651630 0.54479252 -0.05866499
usemtl dark_trim
f 221/221/221 222/222/222 223/223/223 224/224/224
v 0.84678068 0.42653995 0.72608680
v 0.84068108 0.41563271 0.72426132
v 0.81463741 0.44566802 0.63182215
v 0.82073701 0.45657525 0.63364764
vt 0.00000000 1.00000000
vt 1.00000000 1.00000000
vt 1.00000000 0.00000000
vt 0.00000000 0.00000000
vn 0.83651630 -0.40626399 -0.36768198
vn 0.83651630 -0.40626399 -0.36768198
vn 0.83651630 -0.40626399 -0.36768198
vn 0.83651630 -0.40626399 -0.36768198
usemtl dark_trim
f 225/225/225 226/226/226 227/227/227 228/228/228
v 0.84068108 0.41563271 0.72426132
v 0.32463959 0.37290404 0.85576666
v 0.29859592 0.40293934 0.76332750
v 0.81463741 0.44566802 0.63182215
vt 0.00000000 1.00000000
vt 1.00000000 1.00000000
vt 1.00000000 0.00000000
vt 0.00000000 0.00000000
vn -0.00000000 -0.95105652 -0.30901699
vn -0.00000000 -0.95105652 -0.30901699
vn -0.00000000 -0.95105652 -0.30901699
vn -0.00000000 -0.95105652 -0.30901699
usemtl dark_trim
f 229/229/229 230/230/230 231/231/231 232/232/232
v 0.32463959 0.37290404 0.85576666
v 0.31853999 0.38280117 0.86070092
v 0.29249632 0.41283647 0.76826176
v 0.29859592 0.40293934 0.76332750
vt 0.00000000 1.00000000
vt 1.00000000 1.00000000
vt 1.00000000 0.00000000
vt 0.00000000 0.00000000
vn -0.83651630 -0.54479252 0.05866499
vn -0.83651630 -0.54479252 0.05866499
vn -0.83651630 -0.54479252 0.05866499
vn -0.83651630 -0.54479252 0.05866499
usemtl dark_trim
f 233/233/233 234/234/234 235/235/235 236/236/236
v 0.76138630 0.56509975 0.79516649
v 0.40393436 0.53550242 0.88625769
v 0.39173517 0.51368796 0.88260672
vt 0.76432963 0.71875000
vt 0.23567037 0.71875000
vt 0.21762818 0.68750000
vn 0.25881905 -0.29848750 0.91865005
vn 0.25881905 -0.29848750 0.91865005
vn 0.25881905 -0.29848750 0.91865005
usemtl dark_trim
f 237/237/237 238/238/238 239/239/239
v 0.77358550 0.54530549 0.78529796
v 0.76138630 0.56509975 0.79516649
v 0.39173517 0.51368796 0.88260672
vt 0.78237182 0.68750000
vt 0.76432963 0.71875000
vt 0.21762818 0.68750000
vn 0.25881905 -0.29848750 0.91865005
vn 0.25881905 -0.29848750 0.91865005
vn 0.25881905 -0.29848750 0.91865005
usemtl dark_trim
f 240/240/240 241/241/241 242/242/242
v 0.39173517 0.51368796 0.88260672
v 0.40393436 0.53550242 0.88625769
v 0.37789069 0.56553773 0.79381853
v 0.36569150 0.54372326 0.79016756
vt 0.00000000 1.00000000
vt 1.00000000 1.00000000
vt 1.00000000 0.00000000
vt 0.00000000 0.00000000
vn -0.83651630 0.40626399 0.36768198
vn -0.83651630 0.40626399 0.36768198
vn -0.83651630 0.40626399 0.36768198
vn -0.83651630 0.40626399 0.36768198
usemtl dark_trim
f 243/243/243 244/244/244 245/245/245 246/246/246
v 0.40393436 0.53550242 0.88625769
v 0.76138630 0.56509975 0.79516649
v 0.73534264 0.59513505 0.70272732
v 0.37789069 0.56553773 0.79381853
vt 0.00000000 1.00000000
vt 1.00000000 1.00000000
vt 1.00000000 0.00000000
vt 0.00000000 0.00000000
vn -0.00000000 0.95105652 0.30901699
vn -0.00000000 0.95105652 0.30901699
vn -0.00000000 0.95105652 0.30901699
vn -0.00000000 0.95105652 0.30901699
usemtl dark_trim
f 247/247/247 248/248/248 249/249/249 250/250/250
v 0.76138630 0.56509975 0.79516649
v 0.77358550 0.54530549 0.78529796
v 0.74754183 0.57534079 0.69285880
v 0.73534264 0.59513505 0.70272732
vt 0.00000000 1.00000000
vt 1.00000000 1.00000000
vt 1.00000000 0.00000000
vt 0.00000000 0.00000000
vn 0.83651630 0.54479252 -0.05866499
vn 0.83651630 0.54479252 -0.05866499
vn 0.83651630 0.54479252 -0.05866499
vn 0.83651630 0.54479252 -0.05866499
usemtl dark_trim
f 251/251/251 252/252/252 253/253/253 254/254/254
v 0.77358550 0.54530549 0.78529796
v 0.39173517 0.51368796 0.88260672
v 0.36569150 0.54372326 0.79016756
v 0.74754183 0.57534079 0.69285880
vt 0.00000000 1.00000000
vt 1.00000000 1.00000000
vt 1.00000000 0.00000000
vt 0.00000000 0.00000000
vn -0.00000000 -0.95105652 -0.30901699
vn -0.00000000 -0.95105652 -0.30901699
vn -0.00000000 -0.95105652 -0.30901699
vn -0.00000000 -0.95105652 -0.30901699
usemtl dark_trim
f 255/255/255 256/256/256 257/257/257 258/258/258
