mtllib impulse_engine_wedge_bottom_right_on.mtl
o thruster
v 0.24798329 0.03989031 0.78344823
v 0.92413137 0.09587595 0.61114216
v 0.92866070 0.09065242 0.62721853
v 0.25251263 0.03466678 0.79952461
vt 0.00000000 0.00000000
vt 1.00000000 0.00000000
vt 1.00000000 1.00000000
vt 0.00000000 1.00000000
vn 0.00000000 -0.95105652 -0.30901699
vn 0.00000000 -0.95105652 -0.30901699
vn 0.00000000 -0.95105652 -0.30901699
vn 0.00000000 -0.95105652 -0.30901699
usemtl trim
f 1/1/1 2/2/2 3/3/3 4/4/4
v 0.92413137 0.09587595 0.61114216
v 0.92413137 0.13748467 0.62466165
v 0.92866070 0.13226114 0.64073802
v 0.92866070 0.09065242 0.62721853
vt 0.00000000 0.00000000
vt 1.00000000 0.00000000
vt 1.00000000 1.00000000
vt 0.00000000 1.00000000
vn 0.96592583 0.07997948 -0.24615154
vn 0.96592583 0.07997948 -0.24615154
vn 0.96592583 0.07997948 -0.24615154
vn 0.96592583 0.07997948 -0.24615154
usemtl trim
f 5/5/5 6/6/6 7/7/7 8/8/8
v 0.92413137 0.13748467 0.62466165
v 0.29024255 0.70912897 0.98899100
v 0.29477188 0.70390544 1.00506737
v 0.92866070 0.13226114 0.64073802
vt 0.00000000 0.00000000
vt 1.00000000 0.00000000
vt 1.00000000 1.00000000
vt 0.00000000 1.00000000
vn 0.68301270 0.72905255 0.04445259
vn 0.68301270 0.72905255 0.04445259
vn 0.68301270 0.72905255 0.04445259
vn 0.68301270 0.72905255 0.04445259
usemtl trim
f 9/9/9 10/10/10 11/11/11 12/12/12
v 0.29024255 0.70912897 0.98899100
v 0.24798329 0.70562987 0.99976013
v 0.25251263 0.70040634 1.01583650
v 0.29477188 0.70390544 1.00506737
vt 0.00000000 0.00000000
vt 1.00000000 0.00000000
vt 1.00000000 1.00000000
vt 0.00000000 1.00000000
vn 0.00000000 0.95105652 0.30901699
vn 0.00000000 0.95105652 0.30901699
vn 0.00000000 0.95105652 0.30901699
vn 0.00000000 0.95105652 0.30901699
usemtl trim
f 13/13/13 14/14/14 15/15/15 16/16/16
v 0.24798329 0.70562987 0.99976013
v 0.24798329 0.03989031 0.78344823
v 0.25251263 0.03466678 0.79952461
v 0.25251263 0.70040634 1.01583650
vt 0.00000000 0.00000000
vt 1.00000000 0.00000000
vt 1.00000000 1.00000000
vt 0.00000000 1.00000000
vn -0.96592583 -0.07997948 0.24615154
vn -0.96592583 -0.07997948 0.24615154
vn -0.96592583 -0.07997948 0.24615154
vn -0.96592583 -0.07997948 0.24615154
usemtl trim
f 17/17/17 18/18/18 19/19/19 20/20/20
v 0.07813329 0.23577273 0.18058414
v 0.75428137 0.29175837 0.00827806
v 0.92413137 0.09587595 0.61114216
v 0.24798329 0.03989031 0.78344823
vt 0.00000000 0.00000000
vt 1.00000000 0.00000000
vt 1.00000000 1.00000000
vt 0.00000000 1.00000000
vn 0.00000000 -0.95105652 -0.30901699
vn 0.00000000 -0.95105652 -0.30901699
vn 0.00000000 -0.95105652 -0.30901699
vn 0.00000000 -0.95105652 -0.30901699
usemtl side
f 21/21/21 22/22/22 23/23/23 24/24/24
v 0.75428137 0.29175837 0.00827806
v 0.75428137 0.33336709 0.02179755
v 0.92413137 0.13748467 0.62466165
v 0.92413137 0.09587595 0.61114216
vt 0.00000000 0.00000000
vt 1.00000000 0.00000000
vt 1.00000000 1.00000000
vt 0.00000000 1.00000000
vn 0.96592583 0.07997948 -0.24615154
vn 0.96592583 0.07997948 -0.24615154
vn 0.96592583 0.07997948 -0.24615154
vn 0.96592583 0.07997948 -0.24615154
usemtl side
f 25/25/25 26/26/26 27/27/27 28/28/28
v 0.75428137 0.33336709 0.02179755
v 0.12039255 0.90501139 0.38612690
v 0.29024255 0.70912897 0.98899100
v 0.92413137 0.13748467 0.62466165
vt 0.00000000 0.00000000
vt 1.00000000 0.00000000
vt 1.00000000 1.00000000
vt 0.00000000 1.00000000
vn 0.68301270 0.72905255 0.04445259
vn 0.68301270 0.72905255 0.04445259
vn 0.68301270 0.72905255 0.04445259
vn 0.68301270 0.72905255 0.04445259
usemtl side
f 29/29/29 30/30/30 31/31/31 32/32/32
v 0.12039255 0.90501139 0.38612690
v 0.07813329 0.90151229 0.39689603
v 0.24798329 0.70562987 0.99976013
v 0.29024255 0.70912897 0.98899100
vt 0.00000000 0.00000000
vt 1.00000000 0.00000000
vt 1.00000000 1.00000000
vt 0.00000000 1.00000000
vn 0.00000000 0.95105652 0.30901699
vn 0.00000000 0.95105652 0.30901699
vn 0.00000000 0.95105652 0.30901699
vn 0.00000000 0.95105652 0.30901699
usemtl side
f 33/33/33 34/34/34 35/35/35 36/36/36
v 0.07813329 0.90151229 0.39689603
v 0.07813329 0.23577273 0.18058414
v 0.24798329 0.03989031 0.78344823
v 0.24798329 0.70562987 0.99976013
vt 0.00000000 0.00000000
vt 1.00000000 0.00000000
vt 1.00000000 1.00000000
vt 0.00000000 1.00000000
vn -0.96592583 -0.07997948 0.24615154
vn -0.96592583 -0.07997948 0.24615154
vn -0.96592583 -0.07997948 0.24615154
vn -0.96592583 -0.07997948 0.24615154
usemtl side
f 37/37/37 38/38/38 39/39/39 40/40/40
v 0.08341337 0.25649597 0.15725539
v 0.71002465 0.30837992 -0.00242699
v 0.75428137 0.29175837 0.00827806
v 0.07813329 0.23577273 0.18058414
vt 0.00000000 0.00000000
vt 1.00000000 0.00000000
vt 1.00000000 1.00000000
vt 0.00000000 1.00000000
vn -0.11127500 -0.73034158 -0.67395775
vn -0.11127500 -0.73034158 -0.67395775
vn -0.11127500 -0.73034158 -0.67395775
vn -0.11127500 -0.73034158 -0.67395775
usemtl dark_trim
f 41/41/41 42/42/42 43/43/43 44/44/44
v 0.71002465 0.30837992 -0.00242699
v 0.71002465 0.34808653 0.01047447
v 0.75428137 0.33336709 0.02179755
v 0.75428137 0.29175837 0.00827806
vt 0.00000000 0.00000000
vt 1.00000000 0.00000000
vt 1.00000000 1.00000000
vt 0.00000000 1.00000000
vn 0.32706876 0.29202123 -0.89874892
vn 0.32706876 0.29202123 -0.89874892
vn 0.32706876 0.29202123 -0.89874892
vn 0.32706876 0.29202123 -0.89874892
usemtl dark_trim
f 45/45/45 46/46/46 47/47/47 48/48/48
v 0.71002465 0.34808653 0.01047447
v 0.12374077 0.87680044 0.34744275
v 0.12039255 0.90501139 0.38612690
v 0.75428137 0.33336709 0.02179755
vt 0.00000000 0.00000000
vt 1.00000000 0.00000000
vt 1.00000000 1.00000000
vt 0.00000000 1.00000000
vn 0.38643444 0.76080784 -0.52138264
vn 0.38643444 0.76080784 -0.52138264
vn 0.38643444 0.76080784 -0.52138264
vn 0.38643444 0.76080784 -0.52138264
usemtl dark_trim
f 49/49/49 50/50/50 51/51/51 52/52/52
v 0.12374077 0.87680044 0.34744275
v 0.08341337 0.87346130 0.35771958
v 0.07813329 0.90151229 0.39689603
v 0.12039255 0.90501139 0.38612690
vt 0.00000000 0.00000000
vt 1.00000000 0.00000000
vt 1.00000000 1.00000000
vt 0.00000000 1.00000000
vn -0.21434068 0.78026713 -0.58757235
vn -0.21434068 0.78026713 -0.58757235
vn -0.21434068 0.78026713 -0.58757235
vn -0.21434068 0.78026713 -0.58757235
usemtl dark_trim
f 53/53/53 54/54/54 55/55/55 56/56/56
v 0.08341337 0.87346130 0.35771958
v 0.08341337 0.25649597 0.15725539
v 0.07813329 0.23577273 0.18058414
v 0.07813329 0.90151229 0.39689603
vt 0.00000000 0.00000000
vt 1.00000000 0.00000000
vt 1.00000000 1.00000000
vt 0.00000000 1.00000000
vn -0.98337129 0.05611948 -0.17271800
vn -0.98337129 0.05611948 -0.17271800
vn -0.98337129 0.05611948 -0.17271800
vn -0.98337129 0.05611948 -0.17271800
usemtl dark_trim
f 57/57/57 58/58/58 59/59/59 60/60/60
v 0.71002465 0.30837992 -0.00242699
v 0.08341337 0.25649597 0.15725539
v 0.34212336 0.53264483 0.17409304
vt 0.05540610 0.01785714
vt 0.98214286 0.01785714
vt 0.59951958 0.40048042
vn -0.25881905 0.29848750 -0.91865005
vn -0.25881905 0.29848750 -0.91865005
vn -0.25881905 0.29848750 -0.91865005
usemtl rear
f 61/61/61 62/62/62 63/63/63
v 0.71002465 0.34808653 0.01047447
v 0.71002465 0.30837992 -0.00242699
v 0.34212336 0.53264483 0.17409304
vt 0.05540610 0.07750000
vt 0.05540610 0.01785714
vt 0.59951958 0.40048042
vn -0.25881905 0.29848750 -0.91865005
vn -0.25881905 0.29848750 -0.91865005
vn -0.25881905 0.29848750 -0.91865005
usemtl rear
f 64/64/64 65/65/65 66/66/66
v 0.12374077 0.87680044 0.34744275
v 0.71002465 0.34808653 0.01047447
v 0.34212336 0.53264483 0.17409304
vt 0.92250000 0.94459390
vt 0.05540610 0.07750000
vt 0.59951958 0.40048042
vn -0.25881905 0.29848750 -0.91865005
vn -0.25881905 0.29848750 -0.91865005
vn -0.25881905 0.29848750 -0.91865005
usemtl rear
f 67/67/67 68/68/68 69/69/69
v 0.08341337 0.87346130 0.35771958
v 0.12374077 0.87680044 0.34744275
v 0.34212336 0.53264483 0.17409304
vt 0.98214286 0.94459390
vt 0.92250000 0.94459390
vt 0.59951958 0.40048042
vn -0.25881905 0.29848750 -0.91865005
vn -0.25881905 0.29848750 -0.91865005
vn -0.25881905 0.29848750 -0.91865005
usemtl rear
f 70/70/70 71/71/71 72/72/72
v 0.08341337 0.25649597 0.15725539
v 0.08341337 0.87346130 0.35771958
v 0.34212336 0.53264483 0.17409304
vt 0.98214286 0.01785714
vt 0.98214286 0.94459390
vt 0.59951958 0.40048042
vn -0.25881905 0.29848750 -0.91865005
vn -0.25881905 0.29848750 -0.91865005
vn -0.25881905 0.29848750 -0.91865005
usemtl rear
f 73/73/73 74/74/74 75/75/75
v 0.25251263 0.03466678 0.79952461
v 0.92866070 0.09065242 0.62721853
v 0.76476126 0.12909230 0.68588518
v 0.30533670 0.09105156 0.80296256
vt 1.00000000 0.00000000
vt 0.00000000 0.00000000
vt 0.24240170 0.07812500
vt 0.92187500 0.07812500
vn 0.25881905 -0.29848750 0.91865005
vn 0.25881905 -0.29848750 0.91865005
vn 0.25881905 -0.29848750 0.91865005
vn 0.25881905 -0.29848750 0.91865005
usemtl trim
f 76/76/76 77/77/77 78/78/78 79/79/79
v 0.92866070 0.09065242 0.62721853
v 0.92866070 0.13226114 0.64073802
v 0.76476126 0.16237928 0.69670078
v 0.76476126 0.12909230 0.68588518
vt 0.00000000 0.00000000
vt 0.00000000 0.06250000
vt 0.24240170 0.12812500
vt 0.24240170 0.07812500
vn 0.25881905 -0.29848750 0.91865005
vn 0.25881905 -0.29848750 0.91865005
vn 0.25881905 -0.29848750 0.91865005
vn 0.25881905 -0.29848750 0.91865005
usemtl trim
f 80/80/80 81/81/81 82/82/82 83/83/83
v 0.92866070 0.13226114 0.64073802
v 0.29477188 0.70390544 1.00506737
v 0.33914410 0.54620310 0.94132542
v 0.76476126 0.16237928 0.69670078
vt 0.00000000 0.06250000
vt 0.93750000 1.00000000
vt 0.87187500 0.75759830
vt 0.24240170 0.12812500
vn 0.25881905 -0.29848750 0.91865005
vn 0.25881905 -0.29848750 0.91865005
vn 0.25881905 -0.29848750 0.91865005
vn 0.25881905 -0.29848750 0.91865005
usemtl trim
f 84/84/84 85/85/85 86/86/86 87/87/87
v 0.29477188 0.70390544 1.00506737
v 0.25251263 0.70040634 1.01583650
v 0.30533670 0.54340381 0.94994072
v 0.33914410 0.54620310 0.94132542
vt 0.93750000 1.00000000
vt 1.00000000 1.00000000
vt 0.92187500 0.75759830
vt 0.87187500 0.75759830
vn 0.25881905 -0.29848750 0.91865005
vn 0.25881905 -0.29848750 0.91865005
vn 0.25881905 -0.29848750 0.91865005
vn 0.25881905 -0.29848750 0.91865005
usemtl trim
f 88/88/88 89/89/89 90/90/90 91/91/91
v 0.25251263 0.70040634 1.01583650
v 0.25251263 0.03466678 0.79952461
v 0.30533670 0.09105156 0.80296256
v 0.30533670 0.54340381 0.94994072
vt 1.00000000 1.00000000
vt 1.00000000 0.00000000
vt 0.92187500 0.07812500
vt 0.92187500 0.75759830
vn 0.25881905 -0.29848750 0.91865005
vn 0.25881905 -0.29848750 0.91865005
vn 0.25881905 -0.29848750 0.91865005
vn 0.25881905 -0.29848750 0.91865005
usemtl trim
f 92/92/92 93/93/93 94/94/94 95/95/95
v 0.30533670 0.09105156 0.80296256
v 0.76476126 0.12909230 0.68588518
v 0.73079126 0.16826879 0.56531236
v 0.27136670 0.13022804 0.68238974
vt 0.00000000 0.00000000
vt 1.00000000 0.00000000
vt 1.00000000 1.00000000
vt 0.00000000 1.00000000
vn 0.00000000 0.95105652 0.30901699
vn 0.00000000 0.95105652 0.30901699
vn 0.00000000 0.95105652 0.30901699
vn 0.00000000 0.95105652 0.30901699
usemtl cavity
f 96/96/96 97/97/97 98/98/98 99/99/99
v 0.76476126 0.12909230 0.68588518
v 0.76476126 0.16237928 0.69670078
v 0.73079126 0.20155577 0.57612796
v 0.73079126 0.16826879 0.56531236
vt 0.00000000 0.00000000
vt 1.00000000 0.00000000
vt 1.00000000 1.00000000
vt 0.00000000 1.00000000
vn -0.96592583 -0.07997948 0.24615154
vn -0.96592583 -0.07997948 0.24615154
vn -0.96592583 -0.07997948 0.24615154
vn -0.96592583 -0.07997948 0.24615154
usemtl cavity
f 100/100/100 101/101/101 102/102/102 103/103/103
v 0.76476126 0.16237928 0.69670078
v 0.33914410 0.54620310 0.94132542
v 0.30517410 0.58537958 0.82075260
v 0.73079126 0.20155577 0.57612796
vt 0.00000000 0.00000000
vt 1.00000000 0.00000000
vt 1.00000000 1.00000000
vt 0.00000000 1.00000000
vn -0.68301270 -0.72905255 -0.04445259
vn -0.68301270 -0.72905255 -0.04445259
vn -0.68301270 -0.72905255 -0.04445259
vn -0.68301270 -0.72905255 -0.04445259
usemtl cavity
f 104/104/104 105/105/105 106/106/106 107/107/107
v 0.33914410 0.54620310 0.94132542
v 0.30533670 0.54340381 0.94994072
v 0.27136670 0.58258030 0.82936790
v 0.30517410 0.58537958 0.82075260
vt 0.00000000 0.00000000
vt 1.00000000 0.00000000
vt 1.00000000 1.00000000
vt 0.00000000 1.00000000
vn 0.00000000 -0.95105652 -0.30901699
vn 0.00000000 -0.95105652 -0.30901699
vn 0.00000000 -0.95105652 -0.30901699
vn 0.00000000 -0.95105652 -0.30901699
usemtl cavity
f 108/108/108 109/109/109 110/110/110 111/111/111
v 0.30533670 0.54340381 0.94994072
v 0.30533670 0.09105156 0.80296256
v 0.27136670 0.13022804 0.68238974
v 0.27136670 0.58258030 0.82936790
vt 0.00000000 0.00000000
vt 1.00000000 0.00000000
vt 1.00000000 1.00000000
vt 0.00000000 1.00000000
vn 0.96592583 0.07997948 -0.24615154
vn 0.96592583 0.07997948 -0.24615154
vn 0.96592583 0.07997948 -0.24615154
vn 0.96592583 0.07997948 -0.24615154
usemtl cavity
f 112/112/112 113/113/113 114/114/114 115/115/115
v 0.46189800 0.33360249 0.69479011
v 0.27136670 0.13022804 0.68238974
v 0.73079126 0.16826879 0.56531236
vt 0.60506426 0.90999465
vt 0.81640625 0.89238281
vt 0.30680127 0.89238281
vn 0.25881905 -0.29848750 0.91865005
vn 0.25881905 -0.29848750 0.91865005
vn 0.25881905 -0.29848750 0.91865005
usemtl impulse_on
f 116/116/116 117/117/117 118/118/118
v 0.46189800 0.33360249 0.69479011
v 0.73079126 0.16826879 0.56531236
v 0.73079126 0.20155577 0.57612796
vt 0.60506426 0.90999465
vt 0.30680127 0.89238281
vt 0.30680127 0.89550781
vn 0.25881905 -0.29848750 0.91865005
vn 0.25881905 -0.29848750 0.91865005
vn 0.25881905 -0.29848750 0.91865005
usemtl impulse_on
f 119/119/119 120/120/120 121/121/121
v 0.46189800 0.33360249 0.69479011
v 0.73079126 0.20155577 0.57612796
v 0.30517410 0.58537958 0.82075260
vt 0.60506426 0.90999465
vt 0.30680127 0.89550781
vt 0.77890625 0.93484989
vn 0.25881905 -0.29848750 0.91865005
vn 0.25881905 -0.29848750 0.91865005
vn 0.25881905 -0.29848750 0.91865005
usemtl impulse_on
f 122/122/122 123/123/123 124/124/124
v 0.46189800 0.33360249 0.69479011
v 0.30517410 0.58537958 0.82075260
v 0.27136670 0.58258030 0.82936790
vt 0.60506426 0.90999465
vt 0.77890625 0.93484989
vt 0.81640625 0.93484989
vn 0.25881905 -0.29848750 0.91865005
vn 0.25881905 -0.29848750 0.91865005
vn 0.25881905 -0.29848750 0.91865005
usemtl impulse_on
f 125/125/125 126/126/126 127/127/127
v 0.46189800 0.33360249 0.69479011
v 0.27136670 0.58258030 0.82936790
v 0.27136670 0.13022804 0.68238974
vt 0.60506426 0.90999465
vt 0.81640625 0.93484989
vt 0.81640625 0.89238281
vn 0.25881905 -0.29848750 0.91865005
vn 0.25881905 -0.29848750 0.91865005
vn 0.25881905 -0.29848750 0.91865005
usemtl impulse_on
f 128/128/128 129/129/129 130/130/130
v 0.56492771 0.11814448 0.71957913
v 0.60718696 0.12164358 0.70881000
v 0.60718696 0.30561958 0.76858742
vt 0.53125000 0.07812500
vt 0.46875000 0.07812500
vt 0.46875000 0.35447330
vn 0.25881905 -0.29848750 0.91865005
vn 0.25881905 -0.29848750 0.91865005
vn 0.25881905 -0.29848750 0.91865005
usemtl trim
f 131/131/131 132/132/132 133/133/133
v 0.56492771 0.11814448 0.71957913
v 0.60718696 0.30561958 0.76858742
v 0.56492771 0.34372920 0.79287604
vt 0.53125000 0.07812500
vt 0.46875000 0.35447330
vt 0.53125000 0.41697330
vn 0.25881905 -0.29848750 0.91865005
vn 0.25881905 -0.29848750 0.91865005
vn 0.25881905 -0.29848750 0.91865005
usemtl trim
f 134/134/134 135/135/135 136/136/136
v 0.53548704 0.15209743 0.61508268
v 0.57774629 0.15559653 0.60431355
v 0.60718696 0.12164358 0.70881000
v 0.56492771 0.11814448 0.71957913
vt 0.00000000 0.00000000
vt 1.00000000 0.00000000
vt 1.00000000 1.00000000
vt 0.00000000 1.00000000
vn 0.00000000 -0.95105652 -0.30901699
vn 0.00000000 -0.95105652 -0.30901699
vn 0.00000000 -0.95105652 -0.30901699
vn 0.00000000 -0.95105652 -0.30901699
usemtl trim
f 137/137/137 138/138/138 139/139/139 140/140/140
v 0.57774629 0.15559653 0.60431355
v 0.57774629 0.33957253 0.66409098
v 0.60718696 0.30561958 0.76858742
v 0.60718696 0.12164358 0.70881000
vt 0.00000000 0.00000000
vt 1.00000000 0.00000000
vt 1.00000000 1.00000000
vt 0.00000000 1.00000000
vn 0.96592583 0.07997948 -0.24615154
vn 0.96592583 0.07997948 -0.24615154
vn 0.96592583 0.07997948 -0.24615154
vn 0.96592583 0.07997948 -0.24615154
usemtl trim
f 141/141/141 142/142/142 143/143/143 144/144/144
v 0.57774629 0.33957253 0.66409098
v 0.53548704 0.37768215 0.68837960
v 0.56492771 0.34372920 0.79287604
v 0.60718696 0.30561958 0.76858742
vt 0.00000000 0.00000000
vt 1.00000000 0.00000000
vt 1.00000000 1.00000000
vt 0.00000000 1.00000000
vn 0.68301270 0.72905255 0.04445259
vn 0.68301270 0.72905255 0.04445259
vn 0.68301270 0.72905255 0.04445259
vn 0.68301270 0.72905255 0.04445259
usemtl trim
f 145/145/145 146/146/146 147/147/147 148/148/148
v 0.53548704 0.37768215 0.68837960
v 0.53548704 0.15209743 0.61508268
v 0.56492771 0.11814448 0.71957913
v 0.56492771 0.34372920 0.79287604
vt 0.00000000 0.00000000
vt 1.00000000 0.00000000
vt 1.00000000 1.00000000
vt 0.00000000 1.00000000
vn -0.96592583 -0.07997948 0.24615154
vn -0.96592583 -0.07997948 0.24615154
vn -0.96592583 -0.07997948 0.24615154
vn -0.96592583 -0.07997948 0.24615154
usemtl trim
f 149/149/149 150/150/150 151/151/151 152/152/152
v 0.65329975 0.26488903 0.72807425
v 0.63217013 0.28394384 0.74021856
v 0.29741036 0.25622545 0.82552701
vt 0.39552670 0.28125000
vt 0.42677670 0.31250000
vt 0.92187500 0.31250000
vn 0.25881905 -0.29848750 0.91865005
vn 0.25881905 -0.29848750 0.91865005
vn 0.25881905 -0.29848750 0.91865005
usemtl dark_trim
f 153/153/153 154/154/154 155/155/155
v 0.65329975 0.26488903 0.72807425
v 0.29741036 0.25622545 0.82552701
v 0.29741036 0.23542109 0.81876726
vt 0.39552670 0.28125000
vt 0.92187500 0.31250000
vt 0.92187500 0.28125000
vn 0.25881905 -0.29848750 0.91865005
vn 0.25881905 -0.29848750 0.91865005
vn 0.25881905 -0.29848750 0.91865005
usemtl dark_trim
f 156/156/156 157/157/157 158/158/158
v 0.62725609 0.29492434 0.63563509
v 0.60612646 0.31397915 0.64777940
v 0.63217013 0.28394384 0.74021856
v 0.65329975 0.26488903 0.72807425
vt 0.00000000 0.00000000
vt 1.00000000 0.00000000
vt 1.00000000 1.00000000
vt 0.00000000 1.00000000
vn 0.68301270 0.72905255 0.04445259
vn 0.68301270 0.72905255 0.04445259
vn 0.68301270 0.72905255 0.04445259
vn 0.68301270 0.72905255 0.04445259
usemtl dark_trim
f 159/159/159 160/160/160 161/161/161 162/162/162
v 0.60612646 0.31397915 0.64777940
v 0.27136670 0.28626075 0.73308784
v 0.29741036 0.25622545 0.82552701
v 0.63217013 0.28394384 0.74021856
vt 0.00000000 0.00000000
vt 1.00000000 0.00000000
vt 1.00000000 1.00000000
vt 0.00000000 1.00000000
vn 0.00000000 0.95105652 0.30901699
vn 0.00000000 0.95105652 0.30901699
vn 0.00000000 0.95105652 0.30901699
vn 0.00000000 0.95105652 0.30901699
usemtl dark_trim
f 163/163/163 164/164/164 165/165/165 166/166/166
v 0.27136670 0.28626075 0.73308784
v 0.27136670 0.26545639 0.72632810
v 0.29741036 0.23542109 0.81876726
v 0.29741036 0.25622545 0.82552701
vt 0.00000000 0.00000000
vt 1.00000000 0.00000000
vt 1.00000000 1.00000000
vt 0.00000000 1.00000000
vn -0.96592583 -0.07997948 0.24615154
vn -0.96592583 -0.07997948 0.24615154
vn -0.96592583 -0.07997948 0.24615154
vn -0.96592583 -0.07997948 0.24615154
usemtl dark_trim
f 167/167/167 168/168/168 169/169/169 170/170/170
v 0.27136670 0.26545639 0.72632810
v 0.62725609 0.29492434 0.63563509
v 0.65329975 0.26488903 0.72807425
v 0.29741036 0.23542109 0.81876726
vt 0.00000000 0.00000000
vt 1.00000000 0.00000000
vt 1.00000000 1.00000000
vt 0.00000000 1.00000000
vn 0.00000000 -0.95105652 -0.30901699
vn 0.00000000 -0.95105652 -0.30901699
vn 0.00000000 -0.95105652 -0.30901699
vn 0.00000000 -0.95105652 -0.30901699
usemtl dark_trim
f 171/171/171 172/172/172 173/173/173 174/174/174
v 0.51595718 0.38874530 0.80701227
v 0.49482755 0.40780011 0.81915659
v 0.29741036 0.39145380 0.86946536
vt 0.59865170 0.48437500
vt 0.62990170 0.51562500
vt 0.92187500 0.51562500
vn 0.25881905 -0.29848750 0.91865005
vn 0.25881905 -0.29848750 0.91865005
vn 0.25881905 -0.29848750 0.91865005
usemtl dark_trim
f 175/175/175 176/176/176 177/177/177
v 0.51595718 0.38874530 0.80701227
v 0.29741036 0.39145380 0.86946536
v 0.29741036 0.37064943 0.86270561
vt 0.59865170 0.48437500
vt 0.92187500 0.51562500
vt 0.92187500 0.48437500
vn 0.25881905 -0.29848750 0.91865005
vn 0.25881905 -0.29848750 0.91865005
vn 0.25881905 -0.29848750 0.91865005
usemtl dark_trim
f 178/178/178 179/179/179 180/180/180
v 0.48991351 0.41878060 0.71457311
v 0.46878388 0.43783541 0.72671742
v 0.49482755 0.40780011 0.81915659
v 0.51595718 0.38874530 0.80701227
vt 0.00000000 0.00000000
vt 1.00000000 0.00000000
vt 1.00000000 1.00000000
vt 0.00000000 1.00000000
vn 0.68301270 0.72905255 0.04445259
vn 0.68301270 0.72905255 0.04445259
vn 0.68301270 0.72905255 0.04445259
vn 0.68301270 0.72905255 0.04445259
usemtl dark_trim
f 181/181/181 182/182/182 183/183/183 184/184/184
v 0.46878388 0.43783541 0.72671742
v 0.27136670 0.42148910 0.77702620
v 0.29741036 0.39145380 0.86946536
v 0.49482755 0.40780011 0.81915659
vt 0.00000000 0.00000000
vt 1.00000000 0.00000000
vt 1.00000000 1.00000000
vt 0.00000000 1.00000000
vn 0.00000000 0.95105652 0.30901699
vn 0.00000000 0.95105652 0.30901699
vn 0.00000000 0.95105652 0.30901699
vn 0.00000000 0.95105652 0.30901699
usemtl dark_trim
f 185/185/185 186/186/186 187/187/187 188/188/188
v 0.27136670 0.42148910 0.77702620
v 0.27136670 0.40068474 0.77026645
v 0.29741036 0.37064943 0.86270561
v 0.29741036 0.39145380 0.86946536
vt 0.00000000 0.00000000
vt 1.00000000 0.00000000
vt 1.00000000 1.00000000
vt 0.00000000 1.00000000
vn -0.96592583 -0.07997948 0.24615154
vn -0.96592583 -0.07997948 0.24615154
vn -0.96592583 -0.07997948 0.24615154
vn -0.96592583 -0.07997948 0.24615154
usemtl dark_trim
f 189/189/189 190/190/190 191/191/191 192/192/192
v 0.27136670 0.40068474 0.77026645
v 0.48991351 0.41878060 0.71457311
v 0.51595718 0.38874530 0.80701227
v 0.29741036 0.37064943 0.86270561
vt 0.00000000 0.00000000
vt 1.00000000 0.00000000
vt 1.00000000 1.00000000
vt 0.00000000 1.00000000
vn 0.00000000 -0.95105652 -0.30901699
vn 0.00000000 -0.95105652 -0.30901699
vn 0.00000000 -0.95105652 -0.30901699
vn 0.00000000 -0.95105652 -0.30901699
usemtl dark_trim
f 193/193/193 194/194/194 195/195/195 196/196/196
v 0.37861460 0.51260156 0.88595030
v 0.35748497 0.53165637 0.89809461
v 0.29741036 0.52668214 0.91340371
vt 0.80177670 0.68750000
vt 0.83302670 0.71875000
vt 0.92187500 0.71875000
vn 0.25881905 -0.29848750 0.91865005
vn 0.25881905 -0.29848750 0.91865005
vn 0.25881905 -0.29848750 0.91865005
usemtl dark_trim
f 197/197/197 198/198/198 199/199/199
v 0.37861460 0.51260156 0.88595030
v 0.29741036 0.52668214 0.91340371
v 0.29741036 0.50587778 0.90664397
vt 0.80177670 0.68750000
vt 0.92187500 0.71875000
vt 0.92187500 0.68750000
vn 0.25881905 -0.29848750 0.91865005
vn 0.25881905 -0.29848750 0.91865005
vn 0.25881905 -0.29848750 0.91865005
usemtl dark_trim
f 200/200/200 201/201/201 202/202/202
v 0.35257093 0.54263687 0.79351114
v 0.33144130 0.56169168 0.80565545
v 0.35748497 0.53165637 0.89809461
v 0.37861460 0.51260156 0.88595030
vt 0.00000000 0.00000000
vt 1.00000000 0.00000000
vt 1.00000000 1.00000000
vt 0.00000000 1.00000000
vn 0.68301270 0.72905255 0.04445259
vn 0.68301270 0.72905255 0.04445259
vn 0.68301270 0.72905255 0.04445259
vn 0.68301270 0.72905255 0.04445259
usemtl dark_trim
f 203/203/203 204/204/204 205/205/205 206/206/206
v 0.33144130 0.56169168 0.80565545
v 0.27136670 0.55671745 0.82096455
v 0.29741036 0.52668214 0.91340371
v 0.35748497 0.53165637 0.89809461
vt 0.00000000 0.00000000
vt 1.00000000 0.00000000
vt 1.00000000 1.00000000
vt 0.00000000 1.00000000
vn 0.00000000 0.95105652 0.30901699
vn 0.00000000 0.95105652 0.30901699
vn 0.00000000 0.95105652 0.30901699
vn 0.00000000 0.95105652 0.30901699
usemtl dark_trim
f 207/207/207 208/208/208 209/209/209 210/210/210
v 0.27136670 0.55671745 0.82096455
v 0.27136670 0.53591309 0.81420481
v 0.29741036 0.50587778 0.90664397
v 0.29741036 0.52668214 0.91340371
vt 0.00000000 0.00000000
vt 1.00000000 0.00000000
vt 1.00000000 1.00000000
vt 0.00000000 1.00000000
vn -0.96592583 -0.07997948 0.24615154
vn -0.96592583 -0.07997948 0.24615154
vn -0.96592583 -0.07997948 0.24615154
vn -0.96592583 -0.07997948 0.24615154
usemtl dark_trim
f 211/211/211 212/212/212 213/213/213 214/214/214
v 0.27136670 0.53591309 0.81420481
v 0.35257093 0.54263687 0.79351114
v 0.37861460 0.51260156 0.88595030
v 0.29741036 0.50587778 0.90664397
vt 0.00000000 0.00000000
vt 1.00000000 0.00000000
vt 1.00000000 1.00000000
vt 0.00000000 1.00000000
vn 0.00000000 -0.95105652 -0.30901699
vn 0.00000000 -0.95105652 -0.30901699
vn 0.00000000 -0.95105652 -0.30901699
vn 0.00000000 -0.95105652 -0.30901699
usemtl dark_trim
f 215/215/215 216/216/216 217/217/217 218/218/218
