mtllib ion_drive_wedge_top_left_stream.mtl
o thruster
v 0.00000000 1.00000000 0.02500000
v 1.00000000 1.00000000 0.02500000
v 1.00000000 1.00000000 0.00000000
v 0.00000000 1.00000000 0.00000000
vt 0.00000000 0.00000000
vt 1.00000000 0.00000000
vt 1.00000000 1.00000000
vt 0.00000000 1.00000000
vn 0.00000000 1.00000000 0.00000000
vn 0.00000000 1.00000000 0.00000000
vn 0.00000000 1.00000000 0.00000000
vn 0.00000000 1.00000000 0.00000000
usemtl trim
f 1/1/1 2/2/2 3/3/3 4/4/4
v 1.00000000 1.00000000 0.02500000
v 1.00000000 0.93750000 0.02500000
v 1.00000000 0.93750000 0.00000000
v 1.00000000 1.00000000 0.00000000
vt 0.00000000 0.00000000
vt 1.00000000 0.00000000
vt 1.00000000 1.00000000
vt 0.00000000 1.00000000
vn 1.00000000 -0.00000000 0.00000000
vn 1.00000000 -0.00000000 0.00000000
vn 1.00000000 -0.00000000 0.00000000
vn 1.00000000 -0.00000000 0.00000000
usemtl trim
f 5/5/5 6/6/6 7/7/7 8/8/8
v 1.00000000 0.93750000 0.02500000
v 0.06250000 0.00000000 0.02500000
v 0.06250000 0.00000000 0.00000000
v 1.00000000 0.93750000 0.00000000
vt 0.00000000 0.00000000
vt 1.00000000 0.00000000
vt 1.00000000 1.00000000
vt 0.00000000 1.00000000
vn 0.70710678 -0.70710678 0.00000000
vn 0.70710678 -0.70710678 0.00000000
vn 0.70710678 -0.70710678 0.00000000
vn 0.70710678 -0.70710678 0.00000000
usemtl trim
f 9/9/9 10/10/10 11/11/11 12/12/12
v 0.06250000 0.00000000 0.02500000
v 0.00000000 0.00000000 0.02500000
v 0.00000000 0.00000000 0.00000000
v 0.06250000 0.00000000 0.00000000
vt 0.00000000 0.00000000
vt 1.00000000 0.00000000
vt 1.00000000 1.00000000
vt 0.00000000 1.00000000
vn 0.00000000 -1.00000000 0.00000000
vn 0.00000000 -1.00000000 0.00000000
vn 0.00000000 -1.00000000 0.00000000
vn 0.00000000 -1.00000000 0.00000000
usemtl trim
f 13/13/13 14/14/14 15/15/15 16/16/16
v 0.00000000 0.00000000 0.02500000
v 0.00000000 1.00000000 0.02500000
v 0.00000000 1.00000000 0.00000000
v 0.00000000 0.00000000 0.00000000
vt 0.00000000 0.00000000
vt 1.00000000 0.00000000
vt 1.00000000 1.00000000
vt 0.00000000 1.00000000
vn -1.00000000 -0.00000000 0.00000000
vn -1.00000000 -0.00000000 0.00000000
vn -1.00000000 -0.00000000 0.00000000
vn -1.00000000 -0.00000000 0.00000000
usemtl trim
f 17/17/17 18/18/18 19/19/19 20/20/20
v 0.00000000 1.00000000 0.96250000
v 1.00000000 1.00000000 0.96250000
v 1.00000000 1.00000000 0.02500000
v 0.00000000 1.00000000 0.02500000
vt 0.00000000 0.00000000
vt 1.00000000 0.00000000
vt 1.00000000 1.00000000
vt 0.00000000 1.00000000
vn 0.00000000 1.00000000 0.00000000
vn 0.00000000 1.00000000 0.00000000
vn 0.00000000 1.00000000 0.00000000
vn 0.00000000 1.00000000 0.00000000
usemtl side
f 21/21/21 22/22/22 23/23/23 24/24/24
v 1.00000000 1.00000000 0.96250000
v 1.00000000 0.93750000 0.96250000
v 1.00000000 0.93750000 0.02500000
v 1.00000000 1.00000000 0.02500000
vt 0.00000000 0.00000000
vt 1.00000000 0.00000000
vt 1.00000000 1.00000000
vt 0.00000000 1.00000000
vn 1.00000000 -0.00000000 0.00000000
vn 1.00000000 -0.00000000 0.00000000
vn 1.00000000 -0.00000000 0.00000000
vn 1.00000000 -0.00000000 0.00000000
usemtl side
f 25/25/25 26/26/26 27/27/27 28/28/28
v 1.00000000 0.93750000 0.96250000
v 0.06250000 0.00000000 0.96250000
v 0.06250000 0.00000000 0.02500000
v 1.00000000 0.93750000 0.02500000
vt 0.00000000 0.00000000
vt 1.00000000 0.00000000
vt 1.00000000 1.00000000
vt 0.00000000 1.00000000
vn 0.70710678 -0.70710678 0.00000000
vn 0.70710678 -0.70710678 0.00000000
vn 0.70710678 -0.70710678 0.00000000
vn 0.70710678 -0.70710678 0.00000000
usemtl side
f 29/29/29 30/30/30 31/31/31 32/32/32
v 0.06250000 0.00000000 0.96250000
v 0.00000000 0.00000000 0.96250000
v 0.00000000 0.00000000 0.02500000
v 0.06250000 0.00000000 0.02500000
vt 0.00000000 0.00000000
vt 1.00000000 0.00000000
vt 1.00000000 1.00000000
vt 0.00000000 1.00000000
vn 0.00000000 -1.00000000 0.00000000
vn 0.00000000 -1.00000000 0.00000000
vn 0.00000000 -1.00000000 0.00000000
vn 0.00000000 -1.00000000 0.00000000
usemtl side
f 33/33/33 34/34/34 35/35/35 36/36/36
v 0.00000000 0.00000000 0.96250000
v 0.00000000 1.00000000 0.96250000
v 0.00000000 1.00000000 0.02500000
v 0.00000000 0.00000000 0.02500000
vt 0.00000000 0.00000000
vt 1.00000000 0.00000000
vt 1.00000000 1.00000000
vt 0.00000000 1.00000000
vn -1.00000000 -0.00000000 0.00000000
vn -1.00000000 -0.00000000 0.00000000
vn -1.00000000 -0.00000000 0.00000000
vn -1.00000000 -0.00000000 0.00000000
usemtl side
f 37/37/37 38/38/38 39/39/39 40/40/40
v 0.01785714 0.98214286 1.00000000
v 0.94459390 0.98214286 1.00000000
v 1.00000000 1.00000000 0.96250000
v 0.00000000 1.00000000 0.96250000
vt 0.00000000 0.00000000
vt 1.00000000 0.00000000
vt 1.00000000 1.00000000
vt 0.00000000 1.00000000
vn 0.00000000 0.90286052 0.42993358
vn 0.00000000 0.90286052 0.42993358
vn 0.00000000 0.90286052 0.42993358
vn 0.00000000 0.90286052 0.42993358
usemtl dark_trim
f 41/41/41 42/42/42 43/43/43 44/44/44
v 0.94459390 0.98214286 1.00000000
v 0.94459390 0.92250000 1.00000000
v 1.00000000 0.93750000 0.96250000
v 1.00000000 1.00000000 0.96250000
vt 0.00000000 0.00000000
vt 1.00000000 0.00000000
vt 1.00000000 1.00000000
vt 0.00000000 1.00000000
vn 0.56050830 0.00000000 0.82814880
vn 0.56050830 0.00000000 0.82814880
vn 0.56050830 0.00000000 0.82814880
vn 0.56050830 0.00000000 0.82814880
usemtl dark_trim
f 45/45/45 46/46/46 47/47/47 48/48/48
v 0.94459390 0.92250000 1.00000000
v 0.07750000 0.05540610 1.00000000
v 0.06250000 0.00000000 0.96250000
v 1.00000000 0.93750000 0.96250000
vt 0.00000000 0.00000000
vt 1.00000000 0.00000000
vt 1.00000000 1.00000000
vt 0.00000000 1.00000000
vn 0.56245516 -0.56245516 0.60604322
vn 0.56245516 -0.56245516 0.60604322
vn 0.56245516 -0.56245516 0.60604322
vn 0.56245516 -0.56245516 0.60604322
usemtl dark_trim
f 49/49/49 50/50/50 51/51/51 52/52/52
v 0.07750000 0.05540610 1.00000000
v 0.01785714 0.05540610 1.00000000
v 0.00000000 0.00000000 0.96250000
v 0.06250000 0.00000000 0.96250000
vt 0.00000000 0.00000000
vt 1.00000000 0.00000000
vt 1.00000000 1.00000000
vt 0.00000000 1.00000000
vn 0.00000000 -0.56050830 0.82814880
vn 0.00000000 -0.56050830 0.82814880
vn 0.00000000 -0.56050830 0.82814880
vn 0.00000000 -0.56050830 0.82814880
usemtl dark_trim
f 53/53/53 54/54/54 55/55/55 56/56/56
v 0.01785714 0.05540610 1.00000000
v 0.01785714 0.98214286 1.00000000
v 0.00000000 1.00000000 0.96250000
v 0.00000000 0.00000000 0.96250000
vt 0.00000000 0.00000000
vt 1.00000000 0.00000000
vt 1.00000000 1.00000000
vt 0.00000000 1.00000000
vn -0.90286052 -0.00000000 0.42993358
vn -0.90286052 -0.00000000 0.42993358
vn -0.90286052 -0.00000000 0.42993358
vn -0.90286052 -0.00000000 0.42993358
usemtl dark_trim
f 57/57/57 58/58/58 59/59/59 60/60/60
v 0.94459390 0.98214286 1.00000000
v 0.01785714 0.98214286 1.00000000
v 0.40048042 0.59951958 1.00000000
vt 0.05540610 0.01785714
vt 0.98214286 0.01785714
vt 0.59951958 0.40048042
vn 0.00000000 -0.00000000 1.00000000
vn 0.00000000 -0.00000000 1.00000000
vn 0.00000000 -0.00000000 1.00000000
usemtl rear
f 61/61/61 62/62/62 63/63/63
v 0.94459390 0.92250000 1.00000000
v 0.94459390 0.98214286 1.00000000
v 0.40048042 0.59951958 1.00000000
vt 0.05540610 0.07750000
vt 0.05540610 0.01785714
vt 0.59951958 0.40048042
vn 0.00000000 -0.00000000 1.00000000
vn 0.00000000 -0.00000000 1.00000000
vn 0.00000000 -0.00000000 1.00000000
usemtl rear
f 64/64/64 65/65/65 66/66/66
v 0.07750000 0.05540610 1.00000000
v 0.94459390 0.92250000 1.00000000
v 0.40048042 0.59951958 1.00000000
vt 0.92250000 0.94459390
vt 0.05540610 0.07750000
vt 0.59951958 0.40048042
vn 0.00000000 -0.00000000 1.00000000
vn 0.00000000 -0.00000000 1.00000000
vn 0.00000000 -0.00000000 1.00000000
usemtl rear
f 67/67/67 68/68/68 69/69/69
v 0.01785714 0.05540610 1.00000000
v 0.07750000 0.05540610 1.00000000
v 0.40048042 0.59951958 1.00000000
vt 0.98214286 0.94459390
vt 0.92250000 0.94459390
vt 0.59951958 0.40048042
vn 0.00000000 -0.00000000 1.00000000
vn 0.00000000 -0.00000000 1.00000000
vn 0.00000000 -0.00000000 1.00000000
usemtl rear
f 70/70/70 71/71/71 72/72/72
v 0.01785714 0.98214286 1.00000000
v 0.01785714 0.05540610 1.00000000
v 0.40048042 0.59951958 1.00000000
vt 0.98214286 0.01785714
vt 0.98214286 0.94459390
vt 0.59951958 0.40048042
vn 0.00000000 -0.00000000 1.00000000
vn 0.00000000 -0.00000000 1.00000000
vn 0.00000000 -0.00000000 1.00000000
usemtl rear
f 73/73/73 74/74/74 75/75/75
v 0.00000000 1.00000000 0.00000000
v 1.00000000 1.00000000 0.00000000
v 0.75759830 0.92187500 0.00000000
v 0.07812500 0.92187500 0.00000000
vt 1.00000000 0.00000000
vt 0.00000000 0.00000000
vt 0.24240170 0.07812500
vt 0.92187500 0.07812500
vn 0.00000000 -0.00000000 -1.00000000
vn 0.00000000 -0.00000000 -1.00000000
vn 0.00000000 -0.00000000 -1.00000000
vn 0.00000000 -0.00000000 -1.00000000
usemtl trim
f 76/76/76 77/77/77 78/78/78 79/79/79
v 1.00000000 1.00000000 0.00000000
v 1.00000000 0.93750000 0.00000000
v 0.75759830 0.87187500 0.00000000
v 0.75759830 0.92187500 0.00000000
vt 0.00000000 0.00000000
vt 0.00000000 0.06250000
vt 0.24240170 0.12812500
vt 0.24240170 0.07812500
vn 0.00000000 -0.00000000 -1.00000000
vn 0.00000000 -0.00000000 -1.00000000
vn 0.00000000 -0.00000000 -1.00000000
vn 0.00000000 -0.00000000 -1.00000000
usemtl trim
f 80/80/80 81/81/81 82/82/82 83/83/83
v 1.00000000 0.93750000 0.00000000
v 0.06250000 0.00000000 0.00000000
v 0.12812500 0.24240170 0.00000000
v 0.75759830 0.87187500 0.00000000
vt 0.00000000 0.06250000
vt 0.93750000 1.00000000
vt 0.87187500 0.75759830
vt 0.24240170 0.12812500
vn 0.00000000 -0.00000000 -1.00000000
vn 0.00000000 -0.00000000 -1.00000000
vn 0.00000000 -0.00000000 -1.00000000
vn 0.00000000 -0.00000000 -1.00000000
usemtl trim
f 84/84/84 85/85/85 86/86/86 87/87/87
v 0.06250000 0.00000000 0.00000000
v 0.00000000 0.00000000 0.00000000
v 0.07812500 0.24240170 0.00000000
v 0.12812500 0.24240170 0.00000000
vt 0.93750000 1.00000000
vt 1.00000000 1.00000000
vt 0.92187500 0.75759830
vt 0.87187500 0.75759830
vn 0.00000000 -0.00000000 -1.00000000
vn 0.00000000 -0.00000000 -1.00000000
vn 0.00000000 -0.00000000 -1.00000000
vn 0.00000000 -0.00000000 -1.00000000
usemtl trim
f 88/88/88 89/89/89 90/90/90 91/91/91
v 0.00000000 0.00000000 0.00000000
v 0.00000000 1.00000000 0.00000000
v 0.07812500 0.92187500 0.00000000
v 0.07812500 0.24240170 0.00000000
vt 1.00000000 1.00000000
vt 1.00000000 0.00000000
vt 0.92187500 0.07812500
vt 0.92187500 0.75759830
vn 0.00000000 -0.00000000 -1.00000000
vn 0.00000000 -0.00000000 -1.00000000
vn 0.00000000 -0.00000000 -1.00000000
vn 0.00000000 -0.00000000 -1.00000000
usemtl trim
f 92/92/92 93/93/93 94/94/94 95/95/95
v 0.07812500 0.92187500 0.00000000
v 0.75759830 0.92187500 0.00000000
v 0.75759830 0.92187500 0.18750000
v 0.07812500 0.92187500 0.18750000
vt 0.00000000 0.00000000
vt 1.00000000 0.00000000
vt 1.00000000 1.00000000
vt 0.00000000 1.00000000
vn -0.00000000 -1.00000000 -0.00000000
vn -0.00000000 -1.00000000 -0.00000000
vn -0.00000000 -1.00000000 -0.00000000
vn -0.00000000 -1.00000000 -0.00000000
usemtl cavity
f 96/96/96 97/97/97 98/98/98 99/99/99
v 0.75759830 0.92187500 0.00000000
v 0.75759830 0.87187500 0.00000000
v 0.75759830 0.87187500 0.18750000
v 0.75759830 0.92187500 0.18750000
vt 0.00000000 0.00000000
vt 1.00000000 0.00000000
vt 1.00000000 1.00000000
vt 0.00000000 1.00000000
vn -1.00000000 0.00000000 -0.00000000
vn -1.00000000 0.00000000 -0.00000000
vn -1.00000000 0.00000000 -0.00000000
vn -1.00000000 0.00000000 -0.00000000
usemtl cavity
f 100/100/100 101/101/101 102/102/102 103/103/103
v 0.75759830 0.87187500 0.00000000
v 0.12812500 0.24240170 0.00000000
v 0.12812500 0.24240170 0.18750000
v 0.75759830 0.87187500 0.18750000
vt 0.00000000 0.00000000
vt 1.00000000 0.00000000
vt 1.00000000 1.00000000
vt 0.00000000 1.00000000
vn -0.70710678 0.70710678 -0.00000000
vn -0.70710678 0.70710678 -0.00000000
vn -0.70710678 0.70710678 -0.00000000
vn -0.70710678 0.70710678 -0.00000000
usemtl cavity
f 104/104/104 105/105/105 106/106/106 107/107/107
v 0.12812500 0.24240170 0.00000000
v 0.07812500 0.24240170 0.00000000
v 0.07812500 0.24240170 0.18750000
v 0.12812500 0.24240170 0.18750000
vt 0.00000000 0.00000000
vt 1.00000000 0.00000000
vt 1.00000000 1.00000000
vt 0.00000000 1.00000000
vn -0.00000000 1.00000000 -0.00000000
vn -0.00000000 1.00000000 -0.00000000
vn -0.00000000 1.00000000 -0.00000000
vn -0.00000000 1.00000000 -0.00000000
usemtl cavity
f 108/108/108 109/109/109 110/110/110 111/111/111
v 0.07812500 0.24240170 0.00000000
v 0.07812500 0.92187500 0.00000000
v 0.07812500 0.92187500 0.18750000
v 0.07812500 0.24240170 0.18750000
vt 0.00000000 0.00000000
vt 1.00000000 0.00000000
vt 1.00000000 1.00000000
vt 0.00000000 1.00000000
vn 1.00000000 0.00000000 -0.00000000
vn 1.00000000 0.00000000 -0.00000000
vn 1.00000000 0.00000000 -0.00000000
vn 1.00000000 0.00000000 -0.00000000
usemtl cavity
f 112/112/112 113/113/113 114/114/114 115/115/115
v 0.35991432 0.64008568 0.18750000
v 0.07812500 0.92187500 0.18750000
v 0.75759830 0.92187500 0.18750000
vt 0.60506426 0.90999465
vt 0.81640625 0.89238281
vt 0.30680127 0.89238281
vn 0.00000000 -0.00000000 -1.00000000
vn 0.00000000 -0.00000000 -1.00000000
vn 0.00000000 -0.00000000 -1.00000000
usemtl ion_on
f 116/116/116 117/117/117 118/118/118
v 0.35991432 0.64008568 0.18750000
v 0.75759830 0.92187500 0.18750000
v 0.75759830 0.87187500 0.18750000
vt 0.60506426 0.90999465
vt 0.30680127 0.89238281
vt 0.30680127 0.89550781
vn 0.00000000 -0.00000000 -1.00000000
vn 0.00000000 -0.00000000 -1.00000000
vn 0.00000000 -0.00000000 -1.00000000
usemtl ion_on
f 119/119/119 120/120/120 121/121/121
v 0.35991432 0.64008568 0.18750000
v 0.75759830 0.87187500 0.18750000
v 0.12812500 0.24240170 0.18750000
vt 0.60506426 0.90999465
vt 0.30680127 0.89550781
vt 0.77890625 0.93484989
vn 0.00000000 -0.00000000 -1.00000000
vn 0.00000000 -0.00000000 -1.00000000
vn 0.00000000 -0.00000000 -1.00000000
usemtl ion_on
f 122/122/122 123/123/123 124/124/124
v 0.35991432 0.64008568 0.18750000
v 0.12812500 0.24240170 0.18750000
v 0.07812500 0.24240170 0.18750000
vt 0.60506426 0.90999465
vt 0.77890625 0.93484989
vt 0.81640625 0.93484989
vn 0.00000000 -0.00000000 -1.00000000
vn 0.00000000 -0.00000000 -1.00000000
vn 0.00000000 -0.00000000 -1.00000000
usemtl ion_on
f 125/125/125 126/126/126 127/127/127
v 0.35991432 0.64008568 0.18750000
v 0.07812500 0.24240170 0.18750000
v 0.07812500 0.92187500 0.18750000
vt 0.60506426 0.90999465
vt 0.81640625 0.93484989
vt 0.81640625 0.89238281
vn 0.00000000 -0.00000000 -1.00000000
vn 0.00000000 -0.00000000 -1.00000000
vn 0.00000000 -0.00000000 -1.00000000
usemtl ion_on
f 128/128/128 129/129/129 130/130/130
v 0.21234809 0.78765191 0.18750000
v 0.51675213 0.78765191 0.18750000
v 0.51675213 0.78765191 0.08125000
v 0.21234809 0.78765191 0.08125000
vt 0.00000000 0.00000000
vt 1.00000000 0.00000000
vt 1.00000000 1.00000000
vt 0.00000000 1.00000000
vn 0.00000000 1.00000000 0.00000000
vn 0.00000000 1.00000000 0.00000000
vn 0.00000000 1.00000000 0.00000000
vn 0.00000000 1.00000000 0.00000000
usemtl dark_trim
f 131/131/131 132/132/132 133/133/133 134/134/134
v 0.51675213 0.78765191 0.18750000
v 0.51675213 0.76525191 0.18750000
v 0.51675213 0.76525191 0.08125000
v 0.51675213 0.78765191 0.08125000
vt 0.00000000 0.00000000
vt 1.00000000 0.00000000
vt 1.00000000 1.00000000
vt 0.00000000 1.00000000
vn 1.00000000 -0.00000000 0.00000000
vn 1.00000000 -0.00000000 0.00000000
vn 1.00000000 -0.00000000 0.00000000
vn 1.00000000 -0.00000000 0.00000000
usemtl dark_trim
f 135/135/135 136/136/136 137/137/137 138/138/138
v 0.51675213 0.76525191 0.18750000
v 0.23474809 0.48324787 0.18750000
v 0.23474809 0.48324787 0.08125000
v 0.51675213 0.76525191 0.08125000
vt 0.00000000 0.00000000
vt 1.00000000 0.00000000
vt 1.00000000 1.00000000
vt 0.00000000 1.00000000
vn 0.70710678 -0.70710678 0.00000000
vn 0.70710678 -0.70710678 0.00000000
vn 0.70710678 -0.70710678 0.00000000
vn 0.70710678 -0.70710678 0.00000000
usemtl dark_trim
f 139/139/139 140/140/140 141/141/141 142/142/142
v 0.23474809 0.48324787 0.18750000
v 0.21234809 0.48324787 0.18750000
v 0.21234809 0.48324787 0.08125000
v 0.23474809 0.48324787 0.08125000
vt 0.00000000 0.00000000
vt 1.00000000 0.00000000
vt 1.00000000 1.00000000
vt 0.00000000 1.00000000
vn 0.00000000 -1.00000000 0.00000000
vn 0.00000000 -1.00000000 0.00000000
vn 0.00000000 -1.00000000 0.00000000
vn 0.00000000 -1.00000000 0.00000000
usemtl dark_trim
f 143/143/143 144/144/144 145/145/145 146/146/146
v 0.21234809 0.48324787 0.18750000
v 0.21234809 0.78765191 0.18750000
v 0.21234809 0.78765191 0.08125000
v 0.21234809 0.48324787 0.08125000
vt 0.00000000 0.00000000
vt 1.00000000 0.00000000
vt 1.00000000 1.00000000
vt 0.00000000 1.00000000
vn -1.00000000 -0.00000000 0.00000000
vn -1.00000000 -0.00000000 0.00000000
vn -1.00000000 -0.00000000 0.00000000
vn -1.00000000 -0.00000000 0.00000000
usemtl dark_trim
f 147/147/147 148/148/148 149/149/149 150/150/150
v 0.33858970 0.66141030 0.08125000
v 0.21234809 0.78765191 0.08125000
v 0.51675213 0.78765191 0.08125000
vt 0.66141030 0.33858970
vt 0.78765191 0.21234809
vt 0.48324787 0.21234809
vn 0.00000000 -0.00000000 -1.00000000
vn 0.00000000 -0.00000000 -1.00000000
vn 0.00000000 -0.00000000 -1.00000000
usemtl dark_trim
f 151/151/151 152/152/152 153/153/153
v 0.33858970 0.66141030 0.08125000
v 0.51675213 0.78765191 0.08125000
v 0.51675213 0.76525191 0.08125000
vt 0.66141030 0.33858970
vt 0.48324787 0.21234809
vt 0.48324787 0.23474809
vn 0.00000000 -0.00000000 -1.00000000
vn 0.00000000 -0.00000000 -1.00000000
vn 0.00000000 -0.00000000 -1.00000000
usemtl dark_trim
f 154/154/154 155/155/155 156/156/156
v 0.33858970 0.66141030 0.08125000
v 0.51675213 0.76525191 0.08125000
v 0.23474809 0.48324787 0.08125000
vt 0.66141030 0.33858970
vt 0.48324787 0.23474809
vt 0.76525191 0.51675213
vn 0.00000000 -0.00000000 -1.00000000
vn 0.00000000 -0.00000000 -1.00000000
vn 0.00000000 -0.00000000 -1.00000000
usemtl dark_trim
f 157/157/157 158/158/158 159/159/159
v 0.33858970 0.66141030 0.08125000
v 0.23474809 0.48324787 0.08125000
v 0.21234809 0.48324787 0.08125000
vt 0.66141030 0.33858970
vt 0.76525191 0.51675213
vt 0.78765191 0.51675213
vn 0.00000000 -0.00000000 -1.00000000
vn 0.00000000 -0.00000000 -1.00000000
vn 0.00000000 -0.00000000 -1.00000000
usemtl dark_trim
f 160/160/160 161/161/161 162/162/162
v 0.33858970 0.66141030 0.08125000
v 0.21234809 0.48324787 0.08125000
v 0.21234809 0.78765191 0.08125000
vt 0.66141030 0.33858970
vt 0.78765191 0.51675213
vt 0.78765191 0.21234809
vn 0.00000000 -0.00000000 -1.00000000
vn 0.00000000 -0.00000000 -1.00000000
vn 0.00000000 -0.00000000 -1.00000000
usemtl dark_trim
f 163/163/163 164/164/164 165/165/165
