mtllib ion_drive_wedge_on.mtl
o thruster
v 0.92866070 0.09065242 0.62721853
v 0.25251263 0.03466678 0.79952461
v 0.24798329 0.03989031 0.78344823
v 0.92413137 0.09587595 0.61114216
vt 0.00000000 1.00000000
vt 1.00000000 1.00000000
vt 1.00000000 0.00000000
vt 0.00000000 0.00000000
vn -0.00000000 -0.95105652 -0.30901699
vn -0.00000000 -0.95105652 -0.30901699
vn -0.00000000 -0.95105652 -0.30901699
vn -0.00000000 -0.95105652 -0.30901699
usemtl trim
f 1/1/1 2/2/2 3/3/3 4/4/4
v 0.25251263 0.03466678 0.79952461
v 0.25251263 0.07627550 0.81304410
v 0.24798329 0.08149903 0.79696773
v 0.24798329 0.03989031 0.78344823
vt 0.00000000 1.00000000
vt 1.00000000 1.00000000
vt 1.00000000 0.00000000
vt 0.00000000 0.00000000
vn -0.96592583 -0.07997948 0.24615154
vn -0.96592583 -0.07997948 0.24615154
vn -0.96592583 -0.07997948 0.24615154
vn -0.96592583 -0.07997948 0.24615154
usemtl trim
f 5/5/5 6/6/6 7/7/7 8/8/8
v 0.25251263 0.07627550 0.81304410
v 0.88640145 0.75289287 0.85429956
v 0.88187212 0.75811641 0.83822318
v 0.24798329 0.08149903 0.79696773
vt 0.00000000 1.00000000
vt 1.00000000 1.00000000
vt 1.00000000 0.00000000
vt 0.00000000 0.00000000
vn -0.68301270 0.61594448 0.39256343
vn -0.68301270 0.61594448 0.39256343
vn -0.68301270 0.61594448 0.39256343
vn -0.68301270 0.61594448 0.39256343
usemtl trim
f 9/9/9 10/10/10 11/11/11 12/12/12
v 0.88640145 0.75289287 0.85429956
v 0.92866070 0.75639198 0.84353043
v 0.92413137 0.76161551 0.82745405
v 0.88187212 0.75811641 0.83822318
vt 0.00000000 1.00000000
vt 1.00000000 1.00000000
vt 1.00000000 0.00000000
vt 0.00000000 0.00000000
vn -0.00000000 0.95105652 0.30901699
vn -0.00000000 0.95105652 0.30901699
vn -0.00000000 0.95105652 0.30901699
vn -0.00000000 0.95105652 0.30901699
usemtl trim
f 13/13/13 14/14/14 15/15/15 16/16/16
v 0.92866070 0.75639198 0.84353043
v 0.92866070 0.09065242 0.62721853
v 0.92413137 0.09587595 0.61114216
v 0.92413137 0.76161551 0.82745405
vt 0.00000000 1.00000000
vt 1.00000000 1.00000000
vt 1.00000000 0.00000000
vt 0.00000000 0.00000000
vn 0.96592583 0.07997948 -0.24615154
vn 0.96592583 0.07997948 -0.24615154
vn 0.96592583 0.07997948 -0.24615154
vn 0.96592583 0.07997948 -0.24615154
usemtl trim
f 17/17/17 18/18/18 19/19/19 20/20/20
v 0.92413137 0.09587595 0.61114216
v 0.24798329 0.03989031 0.78344823
v 0.07813329 0.23577273 0.18058414
v 0.75428137 0.29175837 0.00827806
vt 0.00000000 1.00000000
vt 1.00000000 1.00000000
vt 1.00000000 0.00000000
vt 0.00000000 0.00000000
vn -0.00000000 -0.95105652 -0.30901699
vn -0.00000000 -0.95105652 -0.30901699
vn -0.00000000 -0.95105652 -0.30901699
vn -0.00000000 -0.95105652 -0.30901699
usemtl side
f 21/21/21 22/22/22 23/23/23 24/24/24
v 0.24798329 0.03989031 0.78344823
v 0.24798329 0.08149903 0.79696773
v 0.07813329 0.27738145 0.19410363
v 0.07813329 0.23577273 0.18058414
vt 0.00000000 1.00000000
vt 1.00000000 1.00000000
vt 1.00000000 0.00000000
vt 0.00000000 0.00000000
vn -0.96592583 -0.07997948 0.24615154
vn -0.96592583 -0.07997948 0.24615154
vn -0.96592583 -0.07997948 0.24615154
vn -0.96592583 -0.07997948 0.24615154
usemtl side
f 25/25/25 26/26/26 27/27/27 28/28/28
v 0.24798329 0.08149903 0.79696773
v 0.88187212 0.75811641 0.83822318
v 0.71202212 0.95399882 0.23535908
v 0.07813329 0.27738145 0.19410363
vt 0.00000000 1.00000000
vt 1.00000000 1.00000000
vt 1.00000000 0.00000000
vt 0.00000000 0.00000000
vn -0.68301270 0.61594448 0.39256343
vn -0.68301270 0.61594448 0.39256343
vn -0.68301270 0.61594448 0.39256343
vn -0.68301270 0.61594448 0.39256343
usemtl side
f 29/29/29 30/30/30 31/31/31 32/32/32
v 0.88187212 0.75811641 0.83822318
v 0.92413137 0.76161551 0.82745405
v 0.75428137 0.95749793 0.22458996
v 0.71202212 0.95399882 0.23535908
vt 0.00000000 1.00000000
vt 1.00000000 1.00000000
vt 1.00000000 0.00000000
vt 0.00000000 0.00000000
vn -0.00000000 0.95105652 0.30901699
vn -0.00000000 0.95105652 0.30901699
vn -0.00000000 0.95105652 0.30901699
vn -0.00000000 0.95105652 0.30901699
usemtl side
f 33/33/33 34/34/34 35/35/35 36/36/36
v 0.92413137 0.76161551 0.82745405
v 0.92413137 0.09587595 0.61114216
v 0.75428137 0.29175837 0.00827806
v 0.75428137 0.95749793 0.22458996
vt 0.00000000 1.00000000
vt 1.00000000 1.00000000
vt 1.00000000 0.00000000
vt 0.00000000 0.00000000
vn 0.96592583 0.07997948 -0.24615154
vn 0.96592583 0.07997948 -0.24615154
vn 0.96592583 0.07997948 -0.24615154
vn 0.96592583 0.07997948 -0.24615154
usemtl side
f 37/37/37 38/38/38 39/39/39 40/40/40
v 0.75428137 0.29175837 0.00827806
v 0.07813329 0.23577273 0.18058414
v 0.10880202 0.25859817 0.15078548
v 0.73541330 0.31048212 -0.00889690
vt 0.00000000 1.00000000
vt 1.00000000 1.00000000
vt 1.00000000 0.00000000
vt 0.00000000 0.00000000
vn -0.11127500 -0.73034158 -0.67395775
vn -0.11127500 -0.73034158 -0.67395775
vn -0.11127500 -0.73034158 -0.67395775
vn -0.11127500 -0.73034158 -0.67395775
usemtl dark_trim
f 41/41/41 42/42/42 43/43/43 44/44/44
v 0.07813329 0.23577273 0.18058414
v 0.07813329 0.27738145 0.19410363
v 0.10880202 0.29830479 0.16368694
v 0.10880202 0.25859817 0.15078548
vt 0.00000000 1.00000000
vt 1.00000000 1.00000000
vt 1.00000000 0.00000000
vt 0.00000000 0.00000000
vn -0.75575012 0.20236290 -0.62280896
vn -0.75575012 0.20236290 -0.62280896
vn -0.75575012 0.20236290 -0.62280896
vn -0.75575012 0.20236290 -0.62280896
usemtl dark_trim
f 45/45/45 46/46/46 47/47/47 48/48/48
v 0.07813329 0.27738145 0.19410363
v 0.71202212 0.95399882 0.23535908
v 0.69508590 0.92410830 0.20184411
v 0.10880202 0.29830479 0.16368694
vt 0.00000000 1.00000000
vt 1.00000000 1.00000000
vt 1.00000000 0.00000000
vt 0.00000000 0.00000000
vn -0.70014549 0.67083809 -0.24448423
vn -0.70014549 0.67083809 -0.24448423
vn -0.70014549 0.67083809 -0.24448423
vn -0.70014549 0.67083809 -0.24448423
usemtl dark_trim
f 49/49/49 50/50/50 51/51/51 52/52/52
v 0.71202212 0.95399882 0.23535908
v 0.75428137 0.95749793 0.22458996
v 0.73541330 0.92744745 0.19156729
v 0.69508590 0.92410830 0.20184411
vt 0.00000000 1.00000000
vt 1.00000000 1.00000000
vt 1.00000000 0.00000000
vt 0.00000000 0.00000000
vn -0.21434068 0.78026713 -0.58757235
vn -0.21434068 0.78026713 -0.58757235
vn -0.21434068 0.78026713 -0.58757235
vn -0.21434068 0.78026713 -0.58757235
usemtl dark_trim
f 53/53/53 54/54/54 55/55/55 56/56/56
v 0.75428137 0.95749793 0.22458996
v 0.75428137 0.29175837 0.00827806
v 0.73541330 0.31048212 -0.00889690
v 0.73541330 0.92744745 0.19156729
vt 0.00000000 1.00000000
vt 1.00000000 1.00000000
vt 1.00000000 0.00000000
vt 0.00000000 0.00000000
vn 0.76082130 0.20054012 -0.61719901
vn 0.76082130 0.20054012 -0.61719901
vn 0.76082130 0.20054012 -0.61719901
vn 0.76082130 0.20054012 -0.61719901
usemtl dark_trim
f 57/57/57 58/58/58 59/59/59 60/60/60
v 0.47670331 0.54378817 0.13979738
v 0.73541330 0.31048212 -0.00889690
v 0.10880202 0.25859817 0.15078548
vt 0.59951958 0.40048042
vt 0.98214286 0.01785714
vt 0.05540610 0.01785714
vn -0.25881905 0.29848750 -0.91865005
vn -0.25881905 0.29848750 -0.91865005
vn -0.25881905 0.29848750 -0.91865005
usemtl rear
f 61/61/61 62/62/62 63/63/63
v 0.47670331 0.54378817 0.13979738
v 0.10880202 0.25859817 0.15078548
v 0.10880202 0.29830479 0.16368694
vt 0.59951958 0.40048042
vt 0.05540610 0.01785714
vt 0.05540610 0.07750000
vn -0.25881905 0.29848750 -0.91865005
vn -0.25881905 0.29848750 -0.91865005
vn -0.25881905 0.29848750 -0.91865005
usemtl rear
f 64/64/64 65/65/65 66/66/66
v 0.47670331 0.54378817 0.13979738
v 0.10880202 0.29830479 0.16368694
v 0.69508590 0.92410830 0.20184411
vt 0.59951958 0.40048042
vt 0.05540610 0.07750000
vt 0.92250000 0.94459390
vn -0.25881905 0.29848750 -0.91865005
vn -0.25881905 0.29848750 -0.91865005
vn -0.25881905 0.29848750 -0.91865005
usemtl rear
f 67/67/67 68/68/68 69/69/69
v 0.47670331 0.54378817 0.13979738
v 0.69508590 0.92410830 0.20184411
v 0.73541330 0.92744745 0.19156729
vt 0.59951958 0.40048042
vt 0.92250000 0.94459390
vt 0.98214286 0.94459390
vn -0.25881905 0.29848750 -0.91865005
vn -0.25881905 0.29848750 -0.91865005
vn -0.25881905 0.29848750 -0.91865005
usemtl rear
f 70/70/70 71/71/71 72/72/72
v 0.47670331 0.54378817 0.13979738
v 0.73541330 0.92744745 0.19156729
v 0.73541330 0.31048212 -0.00889690
vt 0.59951958 0.40048042
vt 0.98214286 0.94459390
vt 0.98214286 0.01785714
vn -0.25881905 0.29848750 -0.91865005
vn -0.25881905 0.29848750 -0.91865005
vn -0.25881905 0.29848750 -0.91865005
usemtl rear
f 73/73/73 74/74/74 75/75/75
v 0.87583664 0.13828944 0.65757931
v 0.41641207 0.10024869 0.77465669
v 0.25251263 0.03466678 0.79952461
v 0.92866070 0.09065242 0.62721853
vt 0.92187500 0.07812500
vt 0.24240170 0.07812500
vt 0.00000000 0.00000000
vt 1.00000000 0.00000000
vn 0.25881905 -0.29848750 0.91865005
vn 0.25881905 -0.29848750 0.91865005
vn 0.25881905 -0.29848750 0.91865005
vn 0.25881905 -0.29848750 0.91865005
usemtl trim
f 76/76/76 77/77/77 78/78/78 79/79/79
v 0.41641207 0.10024869 0.77465669
v 0.41641207 0.13353567 0.78547228
v 0.25251263 0.07627550 0.81304410
v 0.25251263 0.03466678 0.79952461
vt 0.24240170 0.07812500
vt 0.24240170 0.12812500
vt 0.00000000 0.06250000
vt 0.00000000 0.00000000
vn 0.25881905 -0.29848750 0.91865005
vn 0.25881905 -0.29848750 0.91865005
vn 0.25881905 -0.29848750 0.91865005
vn 0.25881905 -0.29848750 0.91865005
usemtl trim
f 80/80/80 81/81/81 82/82/82 83/83/83
v 0.41641207 0.13353567 0.78547228
v 0.84202923 0.58784242 0.81317277
v 0.88640145 0.75289287 0.85429956
v 0.25251263 0.07627550 0.81304410
vt 0.24240170 0.12812500
vt 0.87187500 0.75759830
vt 0.93750000 1.00000000
vt 0.00000000 0.06250000
vn 0.25881905 -0.29848750 0.91865005
vn 0.25881905 -0.29848750 0.91865005
vn 0.25881905 -0.29848750 0.91865005
vn 0.25881905 -0.29848750 0.91865005
usemtl trim
f 84/84/84 85/85/85 86/86/86 87/87/87
v 0.84202923 0.58784242 0.81317277
v 0.87583664 0.59064170 0.80455747
v 0.92866070 0.75639198 0.84353043
v 0.88640145 0.75289287 0.85429956
vt 0.87187500 0.75759830
vt 0.92187500 0.75759830
vt 1.00000000 1.00000000
vt 0.93750000 1.00000000
vn 0.25881905 -0.29848750 0.91865005
vn 0.25881905 -0.29848750 0.91865005
vn 0.25881905 -0.29848750 0.91865005
vn 0.25881905 -0.29848750 0.91865005
usemtl trim
f 88/88/88 89/89/89 90/90/90 91/91/91
v 0.87583664 0.59064170 0.80455747
v 0.87583664 0.13828944 0.65757931
v 0.92866070 0.09065242 0.62721853
v 0.92866070 0.75639198 0.84353043
vt 0.92187500 0.75759830
vt 0.92187500 0.07812500
vt 1.00000000 0.00000000
vt 1.00000000 1.00000000
vn 0.25881905 -0.29848750 0.91865005
vn 0.25881905 -0.29848750 0.91865005
vn 0.25881905 -0.29848750 0.91865005
vn 0.25881905 -0.29848750 0.91865005
usemtl trim
f 92/92/92 93/93/93 94/94/94 95/95/95
v 0.84186664 0.17746592 0.53700649
v 0.38244207 0.13942518 0.65408387
v 0.41641207 0.10024869 0.77465669
v 0.87583664 0.13828944 0.65757931
vt 0.00000000 1.00000000
vt 1.00000000 1.00000000
vt 1.00000000 0.00000000
vt 0.00000000 0.00000000
vn 0.00000000 0.95105652 0.30901699
vn 0.00000000 0.95105652 0.30901699
vn 0.00000000 0.95105652 0.30901699
vn 0.00000000 0.95105652 0.30901699
usemtl cavity
f 96/96/96 97/97/97 98/98/98 99/99/99
v 0.38244207 0.13942518 0.65408387
v 0.38244207 0.17271216 0.66489947
v 0.41641207 0.13353567 0.78547228
v 0.41641207 0.10024869 0.77465669
vt 0.00000000 1.00000000
vt 1.00000000 1.00000000
vt 1.00000000 0.00000000
vt 0.00000000 0.00000000
vn 0.96592583 0.07997948 -0.24615154
vn 0.96592583 0.07997948 -0.24615154
vn 0.96592583 0.07997948 -0.24615154
vn 0.96592583 0.07997948 -0.24615154
usemtl cavity
f 100/100/100 101/101/101 102/102/102 103/103/103
v 0.38244207 0.17271216 0.66489947
v 0.80805923 0.62701890 0.69259995
v 0.84202923 0.58784242 0.81317277
v 0.41641207 0.13353567 0.78547228
vt 0.00000000 1.00000000
vt 1.00000000 1.00000000
vt 1.00000000 0.00000000
vt 0.00000000 0.00000000
vn 0.68301270 -0.61594448 -0.39256343
vn 0.68301270 -0.61594448 -0.39256343
vn 0.68301270 -0.61594448 -0.39256343
vn 0.68301270 -0.61594448 -0.39256343
usemtl cavity
f 104/104/104 105/105/105 106/106/106 107/107/107
v 0.80805923 0.62701890 0.69259995
v 0.84186664 0.62981818 0.68398465
v 0.87583664 0.59064170 0.80455747
v 0.84202923 0.58784242 0.81317277
vt 0.00000000 1.00000000
vt 1.00000000 1.00000000
vt 1.00000000 0.00000000
vt 0.00000000 0.00000000
vn 0.00000000 -0.95105652 -0.30901699
vn 0.00000000 -0.95105652 -0.30901699
vn 0.00000000 -0.95105652 -0.30901699
vn 0.00000000 -0.95105652 -0.30901699
usemtl cavity
f 108/108/108 109/109/109 110/110/110 111/111/111
v 0.84186664 0.62981818 0.68398465
v 0.84186664 0.17746592 0.53700649
v 0.87583664 0.13828944 0.65757931
v 0.87583664 0.59064170 0.80455747
vt 0.00000000 1.00000000
vt 1.00000000 1.00000000
vt 1.00000000 0.00000000
vt 0.00000000 0.00000000
vn -0.96592583 -0.07997948 0.24615154
vn -0.96592583 -0.07997948 0.24615154
vn -0.96592583 -0.07997948 0.24615154
vn -0.96592583 -0.07997948 0.24615154
usemtl cavity
f 112/112/112 113/113/113 114/114/114 115/115/115
v 0.38244207 0.13942518 0.65408387
v 0.84186664 0.17746592 0.53700649
v 0.65133533 0.34928807 0.64651489
vt 0.30680127 0.89238281
vt 0.81640625 0.89238281
vt 0.60506426 0.90999465
vn 0.25881905 -0.29848750 0.91865005
vn 0.25881905 -0.29848750 0.91865005
vn 0.25881905 -0.29848750 0.91865005
usemtl ion_on
f 116/116/116 117/117/117 118/118/118
v 0.38244207 0.17271216 0.66489947
v 0.38244207 0.13942518 0.65408387
v 0.65133533 0.34928807 0.64651489
vt 0.30680127 0.89550781
vt 0.30680127 0.89238281
vt 0.60506426 0.90999465
vn 0.25881905 -0.29848750 0.91865005
vn 0.25881905 -0.29848750 0.91865005
vn 0.25881905 -0.29848750 0.91865005
usemtl ion_on
f 119/119/119 120/120/120 121/121/121
v 0.80805923 0.62701890 0.69259995
v 0.38244207 0.17271216 0.66489947
v 0.65133533 0.34928807 0.64651489
vt 0.77890625 0.93484989
vt 0.30680127 0.89550781
vt 0.60506426 0.90999465
vn 0.25881905 -0.29848750 0.91865005
vn 0.25881905 -0.29848750 0.91865005
vn 0.25881905 -0.29848750 0.91865005
usemtl ion_on
f 122/122/122 123/123/123 124/124/124
v 0.84186664 0.62981818 0.68398465
v 0.80805923 0.62701890 0.69259995
v 0.65133533 0.34928807 0.64651489
vt 0.81640625 0.93484989
vt 0.77890625 0.93484989
vt 0.60506426 0.90999465
vn 0.25881905 -0.29848750 0.91865005
vn 0.25881905 -0.29848750 0.91865005
vn 0.25881905 -0.29848750 0.91865005
usemtl ion_on
f 125/125/125 126/126/126 127/127/127
v 0.84186664 0.17746592 0.53700649
v 0.84186664 0.62981818 0.68398465
v 0.65133533 0.34928807 0.64651489
vt 0.81640625 0.89238281
vt 0.81640625 0.93484989
vt 0.60506426 0.90999465
vn 0.25881905 -0.29848750 0.91865005
vn 0.25881905 -0.29848750 0.91865005
vn 0.25881905 -0.29848750 0.91865005
usemtl ion_on
f 128/128/128 129/129/129 130/130/130
v 0.77036162 0.23710897 0.65749259
v 0.56453941 0.22006672 0.70994326
v 0.54528975 0.24226673 0.64161866
v 0.75111195 0.25930898 0.58916800
vt 0.00000000 1.00000000
vt 1.00000000 1.00000000
vt 1.00000000 0.00000000
vt 0.00000000 0.00000000
vn -0.00000000 -0.95105652 -0.30901699
vn -0.00000000 -0.95105652 -0.30901699
vn -0.00000000 -0.95105652 -0.30901699
vn -0.00000000 -0.95105652 -0.30901699
usemtl dark_trim
f 131/131/131 132/132/132 133/133/133 134/134/134
v 0.56453941 0.22006672 0.70994326
v 0.56453941 0.23497928 0.71478865
v 0.54528975 0.25717929 0.64646405
v 0.54528975 0.24226673 0.64161866
vt 0.00000000 1.00000000
vt 1.00000000 1.00000000
vt 1.00000000 0.00000000
vt 0.00000000 0.00000000
vn -0.96592583 -0.07997948 0.24615154
vn -0.96592583 -0.07997948 0.24615154
vn -0.96592583 -0.07997948 0.24615154
vn -0.96592583 -0.07997948 0.24615154
usemtl dark_trim
f 135/135/135 136/136/136 137/137/137 138/138/138
v 0.56453941 0.23497928 0.71478865
v 0.75521590 0.43850871 0.72719847
v 0.73596624 0.46070871 0.65887387
v 0.54528975 0.25717929 0.64646405
vt 0.00000000 1.00000000
vt 1.00000000 1.00000000
vt 1.00000000 0.00000000
vt 0.00000000 0.00000000
vn -0.68301270 0.61594448 0.39256343
vn -0.68301270 0.61594448 0.39256343
vn -0.68301270 0.61594448 0.39256343
vn -0.68301270 0.61594448 0.39256343
usemtl dark_trim
f 139/139/139 140/140/140 141/141/141 142/142/142
v 0.75521590 0.43850871 0.72719847
v 0.77036162 0.43976278 0.72333881
v 0.75111195 0.46196279 0.65501421
v 0.73596624 0.46070871 0.65887387
vt 0.00000000 1.00000000
vt 1.00000000 1.00000000
vt 1.00000000 0.00000000
vt 0.00000000 0.00000000
vn -0.00000000 0.95105652 0.30901699
vn -0.00000000 0.95105652 0.30901699
vn -0.00000000 0.95105652 0.30901699
vn -0.00000000 0.95105652 0.30901699
usemtl dark_trim
f 143/143/143 144/144/144 145/145/145 146/146/146
v 0.77036162 0.43976278 0.72333881
v 0.77036162 0.23710897 0.65749259
v 0.75111195 0.25930898 0.58916800
v 0.75111195 0.46196279 0.65501421
vt 0.00000000 1.00000000
vt 1.00000000 1.00000000
vt 1.00000000 0.00000000
vt 0.00000000 0.00000000
vn 0.96592583 0.07997948 -0.24615154
vn 0.96592583 0.07997948 -0.24615154
vn 0.96592583 0.07997948 -0.24615154
vn 0.96592583 0.07997948 -0.24615154
usemtl dark_trim
f 147/147/147 148/148/148 149/149/149 150/150/150
v 0.56453941 0.22006672 0.70994326
v 0.77036162 0.23710897 0.65749259
v 0.68500360 0.31408529 0.70655235
vt 0.48324787 0.21234809
vt 0.78765191 0.21234809
vt 0.66141030 0.33858970
vn 0.25881905 -0.29848750 0.91865005
vn 0.25881905 -0.29848750 0.91865005
vn 0.25881905 -0.29848750 0.91865005
usemtl dark_trim
f 151/151/151 152/152/152 153/153/153
v 0.56453941 0.23497928 0.71478865
v 0.56453941 0.22006672 0.70994326
v 0.68500360 0.31408529 0.70655235
vt 0.48324787 0.23474809
vt 0.48324787 0.21234809
vt 0.66141030 0.33858970
vn 0.25881905 -0.29848750 0.91865005
vn 0.25881905 -0.29848750 0.91865005
vn 0.25881905 -0.29848750 0.91865005
usemtl dark_trim
f 154/154/154 155/155/155 156/156/156
v 0.75521590 0.43850871 0.72719847
v 0.56453941 0.23497928 0.71478865
v 0.68500360 0.31408529 0.70655235
vt 0.76525191 0.51675213
vt 0.48324787 0.23474809
vt 0.66141030 0.33858970
vn 0.25881905 -0.29848750 0.91865005
vn 0.25881905 -0.29848750 0.91865005
vn 0.25881905 -0.29848750 0.91865005
usemtl dark_trim
f 157/157/157 158/158/158 159/159/159
v 0.77036162 0.43976278 0.72333881
v 0.75521590 0.43850871 0.72719847
v 0.68500360 0.31408529 0.70655235
vt 0.78765191 0.51675213
vt 0.76525191 0.51675213
vt 0.66141030 0.33858970
vn 0.25881905 -0.29848750 0.91865005
vn 0.25881905 -0.29848750 0.91865005
vn 0.25881905 -0.29848750 0.91865005
usemtl dark_trim
f 160/160/160 161/161/161 162/162/162
v 0.77036162 0.23710897 0.65749259
v 0.77036162 0.43976278 0.72333881
v 0.68500360 0.31408529 0.70655235
vt 0.78765191 0.21234809
vt 0.78765191 0.51675213
vt 0.66141030 0.33858970
vn 0.25881905 -0.29848750 0.91865005
vn 0.25881905 -0.29848750 0.91865005
vn 0.25881905 -0.29848750 0.91865005
usemtl dark_trim
f 163/163/163 164/164/164 165/165/165
