mtllib ion_drive_wedge_bottom_right_on.mtl
o thruster
v 0.24798329 0.03989031 0.78344823
v 0.92413137 0.09587595 0.61114216
v 0.92866070 0.09065242 0.62721853
v 0.25251263 0.03466678 0.79952461
vt 0.00000000 0.00000000
vt 1.00000000 0.00000000
vt 1.00000000 1.00000000
vt 0.00000000 1.00000000
vn 0.00000000 -0.95105652 -0.30901699
vn 0.00000000 -0.95105652 -0.30901699
vn 0.00000000 -0.95105652 -0.30901699
vn 0.00000000 -0.95105652 -0.30901699
usemtl trim
f 1/1/1 2/2/2 3/3/3 4/4/4
v 0.92413137 0.09587595 0.61114216
v 0.92413137 0.13748467 0.62466165
v 0.92866070 0.13226114 0.64073802
v 0.92866070 0.09065242 0.62721853
vt 0.00000000 0.00000000
vt 1.00000000 0.00000000
vt 1.00000000 1.00000000
vt 0.00000000 1.00000000
vn 0.96592583 0.07997948 -0.24615154
vn 0.96592583 0.07997948 -0.24615154
vn 0.96592583 0.07997948 -0.24615154
vn 0.96592583 0.07997948 -0.24615154
usemtl trim
f 5/5/5 6/6/6 7/7/7 8/8/8
v 0.92413137 0.13748467 0.62466165
v 0.29024255 0.70912897 0.98899100
v 0.29477188 0.70390544 1.00506737
v 0.92866070 0.13226114 0.64073802
vt 0.00000000 0.00000000
vt 1.00000000 0.00000000
vt 1.00000000 1.00000000
vt 0.00000000 1.00000000
vn 0.68301270 0.72905255 0.04445259
vn 0.68301270 0.72905255 0.04445259
vn 0.68301270 0.72905255 0.04445259
vn 0.68301270 0.72905255 0.04445259
usemtl trim
f 9/9/9 10/10/10 11/11/11 12/12/12
v 0.29024255 0.70912897 0.98899100
v 0.24798329 0.70562987 0.99976013
v 0.25251263 0.70040634 1.01583650
v 0.29477188 0.70390544 1.00506737
vt 0.00000000 0.00000000
vt 1.00000000 0.00000000
vt 1.00000000 1.00000000
vt 0.00000000 1.00000000
vn 0.00000000 0.95105652 0.30901699
vn 0.00000000 0.95105652 0.30901699
vn 0.00000000 0.95105652 0.30901699
vn 0.00000000 0.95105652 0.30901699
usemtl trim
f 13/13/13 14/14/14 15/15/15 16/16/16
v 0.24798329 0.70562987 0.99976013
v 0.24798329 0.03989031 0.78344823
v 0.25251263 0.03466678 0.79952461
v 0.25251263 0.70040634 1.01583650
vt 0.00000000 0.00000000
vt 1.00000000 0.00000000
vt 1.00000000 1.00000000
vt 0.00000000 1.00000000
vn -0.96592583 -0.07997948 0.24615154
vn -0.96592583 -0.07997948 0.24615154
vn -0.96592583 -0.07997948 0.24615154
vn -0.96592583 -0.07997948 0.24615154
usemtl trim
f 17/17/17 18/18/18 19/19/19 20/20/20
v 0.07813329 0.23577273 0.18058414
v 0.75428137 0.29175837 0.00827806
v 0.92413137 0.09587595 0.61114216
v 0.24798329 0.03989031 0.78344823
vt 0.00000000 0.00000000
vt 1.00000000 0.00000000
vt 1.00000000 1.00000000
vt 0.00000000 1.00000000
vn 0.00000000 -0.95105652 -0.30901699
vn 0.00000000 -0.95105652 -0.30901699
vn 0.00000000 -0.95105652 -0.30901699
vn 0.00000000 -0.95105652 -0.30901699
usemtl side
f 21/21/21 22/22/22 23/23/23 24/24/24
v 0.75428137 0.29175837 0.00827806
v 0.75428137 0.33336709 0.02179755
v 0.92413137 0.13748467 0.62466165
v 0.92413137 0.09587595 0.61114216
vt 0.00000000 0.00000000
vt 1.00000000 0.00000000
vt 1.00000000 1.00000000
vt 0.00000000 1.00000000
vn 0.96592583 0.07997948 -0.24615154
vn 0.96592583 0.07997948 -0.24615154
vn 0.96592583 0.07997948 -0.24615154
vn 0.96592583 0.07997948 -0.24615154
usemtl side
f 25/25/25 26/26/26 27/27/27 28/28/28
v 0.75428137 0.33336709 0.02179755
v 0.12039255 0.90501139 0.38612690
v 0.29024255 0.70912897 0.98899100
v 0.92413137 0.13748467 0.62466165
vt 0.00000000 0.00000000
vt 1.00000000 0.00000000
vt 1.00000000 1.00000000
vt 0.00000000 1.00000000
vn 0.68301270 0.72905255 0.04445259
vn 0.68301270 0.72905255 0.04445259
vn 0.68301270 0.72905255 0.04445259
vn 0.68301270 0.72905255 0.04445259
usemtl side
f 29/29/29 30/30/30 31/31/31 32/32/32
v 0.12039255 0.90501139 0.38612690
v 0.07813329 0.90151229 0.39689603
v 0.24798329 0.70562987 0.99976013
v 0.29024255 0.70912897 0.98899100
vt 0.00000000 0.00000000
vt 1.00000000 0.00000000
vt 1.00000000 1.00000000
vt 0.00000000 1.00000000
vn 0.00000000 0.95105652 0.30901699
vn 0.00000000 0.95105652 0.30901699
vn 0.00000000 0.95105652 0.30901699
vn 0.00000000 0.95105652 0.30901699
usemtl side
f 33/33/33 34/34/34 35/35/35 36/36/36
v 0.07813329 0.90151229 0.39689603
v 0.07813329 0.23577273 0.18058414
v 0.24798329 0.03989031 0.78344823
v 0.24798329 0.70562987 0.99976013
vt 0.00000000 0.00000000
vt 1.00000000 0.00000000
vt 1.00000000 1.00000000
vt 0.00000000 1.00000000
vn -0.96592583 -0.07997948 0.24615154
vn -0.96592583 -0.07997948 0.24615154
vn -0.96592583 -0.07997948 0.24615154
vn -0.96592583 -0.07997948 0.24615154
usemtl side
f 37/37/37 38/38/38 39/39/39 40/40/40
v 0.08341337 0.25649597 0.15725539
v 0.71002465 0.30837992 -0.00242699
v 0.75428137 0.29175837 0.00827806
v 0.07813329 0.23577273 0.18058414
vt 0.00000000 0.00000000
vt 1.00000000 0.00000000
vt 1.00000000 1.00000000
vt 0.00000000 1.00000000
vn -0.11127500 -0.73034158 -0.67395775
vn -0.11127500 -0.73034158 -0.67395775
vn -0.11127500 -0.73034158 -0.67395775
vn -0.11127500 -0.73034158 -0.67395775
usemtl dark_trim
f 41/41/41 42/42/42 43/43/43 44/44/44
v 0.71002465 0.30837992 -0.00242699
v 0.71002465 0.34808653 0.01047447
v 0.75428137 0.33336709 0.02179755
v 0.75428137 0.29175837 0.00827806
vt 0.00000000 0.00000000
vt 1.00000000 0.00000000
vt 1.00000000 1.00000000
vt 0.00000000 1.00000000
vn 0.32706876 0.29202123 -0.89874892
vn 0.32706876 0.29202123 -0.89874892
vn 0.32706876 0.29202123 -0.89874892
vn 0.32706876 0.29202123 -0.89874892
usemtl dark_trim
f 45/45/45 46/46/46 47/47/47 48/48/48
v 0.71002465 0.34808653 0.01047447
v 0.12374077 0.87680044 0.34744275
v 0.12039255 0.90501139 0.38612690
v 0.75428137 0.33336709 0.02179755
vt 0.00000000 0.00000000
vt 1.00000000 0.00000000
vt 1.00000000 1.00000000
vt 0.00000000 1.00000000
vn 0.38643444 0.76080784 -0.52138264
vn 0.38643444 0.76080784 -0.52138264
vn 0.38643444 0.76080784 -0.52138264
vn 0.38643444 0.76080784 -0.52138264
usemtl dark_trim
f 49/49/49 50/50/50 51/51/51 52/52/52
v 0.12374077 0.87680044 0.34744275
v 0.08341337 0.87346130 0.35771958
v 0.07813329 0.90151229 0.39689603
v 0.12039255 0.90501139 0.38612690
vt 0.00000000 0.00000000
vt 1.00000000 0.00000000
vt 1.00000000 1.00000000
vt 0.00000000 1.00000000
vn -0.21434068 0.78026713 -0.58757235
vn -0.21434068 0.78026713 -0.58757235
vn -0.21434068 0.78026713 -0.58757235
vn -0.21434068 0.78026713 -0.58757235
usemtl dark_trim
f 53/53/53 54/54/54 55/55/55 56/56/56
v 0.08341337 0.87346130 0.35771958
v 0.08341337 0.25649597 0.15725539
v 0.07813329 0.23577273 0.18058414
v 0.07813329 0.90151229 0.39689603
vt 0.00000000 0.00000000
vt 1.00000000 0.00000000
vt 1.00000000 1.00000000
vt 0.00000000 1.00000000
vn -0.98337129 0.05611948 -0.17271800
vn -0.98337129 0.05611948 -0.17271800
vn -0.98337129 0.05611948 -0.17271800
vn -0.98337129 0.05611948 -0.17271800
usemtl dark_trim
f 57/57/57 58/58/58 59/59/59 60/60/60
v 0.71002465 0.30837992 -0.00242699
v 0.08341337 0.25649597 0.15725539
v 0.34212336 0.53264483 0.17409304
vt 0.05540610 0.01785714
vt 0.98214286 0.01785714
vt 0.59951958 0.40048042
vn -0.25881905 0.29848750 -0.91865005
vn -0.25881905 0.29848750 -0.91865005
vn -0.25881905 0.29848750 -0.91865005
usemtl rear
f 61/61/61 62/62/62 63/63/63
v 0.71002465 0.34808653 0.01047447
v 0.71002465 0.30837992 -0.00242699
v 0.34212336 0.53264483 0.17409304
vt 0.05540610 0.07750000
vt 0.05540610 0.01785714
vt 0.59951958 0.40048042
vn -0.25881905 0.29848750 -0.91865005
vn -0.25881905 0.29848750 -0.91865005
vn -0.25881905 0.29848750 -0.91865005
usemtl rear
f 64/64/64 65/65/65 66/66/66
v 0.12374077 0.87680044 0.34744275
v 0.71002465 0.34808653 0.01047447
v 0.34212336 0.53264483 0.17409304
vt 0.92250000 0.94459390
vt 0.05540610 0.07750000
vt 0.59951958 0.40048042
vn -0.25881905 0.29848750 -0.91865005
vn -0.25881905 0.29848750 -0.91865005
vn -0.25881905 0.29848750 -0.91865005
usemtl rear
f 67/67/67 68/68/68 69/69/69
v 0.08341337 0.87346130 0.35771958
v 0.12374077 0.87680044 0.34744275
v 0.34212336 0.53264483 0.17409304
vt 0.98214286 0.94459390
vt 0.92250000 0.94459390
vt 0.59951958 0.40048042
vn -0.25881905 0.29848750 -0.91865005
vn -0.25881905 0.29848750 -0.91865005
vn -0.25881905 0.29848750 -0.91865005
usemtl rear
f 70/70/70 71/71/71 72/72/72
v 0.08341337 0.25649597 0.15725539
v 0.08341337 0.87346130 0.35771958
v 0.34212336 0.53264483 0.17409304
vt 0.98214286 0.01785714
vt 0.98214286 0.94459390
vt 0.59951958 0.40048042
vn -0.25881905 0.29848750 -0.91865005
vn -0.25881905 0.29848750 -0.91865005
vn -0.25881905 0.29848750 -0.91865005
usemtl rear
f 73/73/73 74/74/74 75/75/75
v 0.25251263 0.03466678 0.79952461
v 0.92866070 0.09065242 0.62721853
v 0.76476126 0.12909230 0.68588518
v 0.30533670 0.09105156 0.80296256
vt 1.00000000 0.00000000
vt 0.00000000 0.00000000
vt 0.24240170 0.07812500
vt 0.92187500 0.07812500
vn 0.25881905 -0.29848750 0.91865005
vn 0.25881905 -0.29848750 0.91865005
vn 0.25881905 -0.29848750 0.91865005
vn 0.25881905 -0.29848750 0.91865005
usemtl trim
f 76/76/76 77/77/77 78/78/78 79/79/79
v 0.92866070 0.09065242 0.62721853
v 0.92866070 0.13226114 0.64073802
v 0.76476126 0.16237928 0.69670078
v 0.76476126 0.12909230 0.68588518
vt 0.00000000 0.00000000
vt 0.00000000 0.06250000
vt 0.24240170 0.12812500
vt 0.24240170 0.07812500
vn 0.25881905 -0.29848750 0.91865005
vn 0.25881905 -0.29848750 0.91865005
vn 0.25881905 -0.29848750 0.91865005
vn 0.25881905 -0.29848750 0.91865005
usemtl trim
f 80/80/80 81/81/81 82/82/82 83/83/83
v 0.92866070 0.13226114 0.64073802
v 0.29477188 0.70390544 1.00506737
v 0.33914410 0.54620310 0.94132542
v 0.76476126 0.16237928 0.69670078
vt 0.00000000 0.06250000
vt 0.93750000 1.00000000
vt 0.87187500 0.75759830
vt 0.24240170 0.12812500
vn 0.25881905 -0.29848750 0.91865005
vn 0.25881905 -0.29848750 0.91865005
vn 0.25881905 -0.29848750 0.91865005
vn 0.25881905 -0.29848750 0.91865005
usemtl trim
f 84/84/84 85/85/85 86/86/86 87/87/87
v 0.29477188 0.70390544 1.00506737
v 0.25251263 0.70040634 1.01583650
v 0.30533670 0.54340381 0.94994072
v 0.33914410 0.54620310 0.94132542
vt 0.93750000 1.00000000
vt 1.00000000 1.00000000
vt 0.92187500 0.75759830
vt 0.87187500 0.75759830
vn 0.25881905 -0.29848750 0.91865005
vn 0.25881905 -0.29848750 0.91865005
vn 0.25881905 -0.29848750 0.91865005
vn 0.25881905 -0.29848750 0.91865005
usemtl trim
f 88/88/88 89/89/89 90/90/90 91/91/91
v 0.25251263 0.70040634 1.01583650
v 0.25251263 0.03466678 0.79952461
v 0.30533670 0.09105156 0.80296256
v 0.30533670 0.54340381 0.94994072
vt 1.00000000 1.00000000
vt 1.00000000 0.00000000
vt 0.92187500 0.07812500
vt 0.92187500 0.75759830
vn 0.25881905 -0.29848750 0.91865005
vn 0.25881905 -0.29848750 0.91865005
vn 0.25881905 -0.29848750 0.91865005
vn 0.25881905 -0.29848750 0.91865005
usemtl trim
f 92/92/92 93/93/93 94/94/94 95/95/95
v 0.30533670 0.09105156 0.80296256
v 0.76476126 0.12909230 0.68588518
v 0.73079126 0.16826879 0.56531236
v 0.27136670 0.13022804 0.68238974
vt 0.00000000 0.00000000
vt 1.00000000 0.00000000
vt 1.00000000 1.00000000
vt 0.00000000 1.00000000
vn 0.00000000 0.95105652 0.30901699
vn 0.00000000 0.95105652 0.30901699
vn 0.00000000 0.95105652 0.30901699
vn 0.00000000 0.95105652 0.30901699
usemtl cavity
f 96/96/96 97/97/97 98/98/98 99/99/99
v 0.76476126 0.12909230 0.68588518
v 0.76476126 0.16237928 0.69670078
v 0.73079126 0.20155577 0.57612796
v 0.73079126 0.16826879 0.56531236
vt 0.00000000 0.00000000
vt 1.00000000 0.00000000
vt 1.00000000 1.00000000
vt 0.00000000 1.00000000
vn -0.96592583 -0.07997948 0.24615154
vn -0.96592583 -0.07997948 0.24615154
vn -0.96592583 -0.07997948 0.24615154
vn -0.96592583 -0.07997948 0.24615154
usemtl cavity
f 100/100/100 101/101/101 102/102/102 103/103/103
v 0.76476126 0.16237928 0.69670078
v 0.33914410 0.54620310 0.94132542
v 0.30517410 0.58537958 0.82075260
v 0.73079126 0.20155577 0.57612796
vt 0.00000000 0.00000000
vt 1.00000000 0.00000000
vt 1.00000000 1.00000000
vt 0.00000000 1.00000000
vn -0.68301270 -0.72905255 -0.04445259
vn -0.68301270 -0.72905255 -0.04445259
vn -0.68301270 -0.72905255 -0.04445259
vn -0.68301270 -0.72905255 -0.04445259
usemtl cavity
f 104/104/104 105/105/105 106/106/106 107/107/107
v 0.33914410 0.54620310 0.94132542
v 0.30533670 0.54340381 0.94994072
v 0.27136670 0.58258030 0.82936790
v 0.30517410 0.58537958 0.82075260
vt 0.00000000 0.00000000
vt 1.00000000 0.00000000
vt 1.00000000 1.00000000
vt 0.00000000 1.00000000
vn 0.00000000 -0.95105652 -0.30901699
vn 0.00000000 -0.95105652 -0.30901699
vn 0.00000000 -0.95105652 -0.30901699
vn 0.00000000 -0.95105652 -0.30901699
usemtl cavity
f 108/108/108 109/109/109 110/110/110 111/111/111
v 0.30533670 0.54340381 0.94994072
v 0.30533670 0.09105156 0.80296256
v 0.27136670 0.13022804 0.68238974
v 0.27136670 0.58258030 0.82936790
vt 0.00000000 0.00000000
vt 1.00000000 0.00000000
vt 1.00000000 1.00000000
vt 0.00000000 1.00000000
vn 0.96592583 0.07997948 -0.24615154
vn 0.96592583 0.07997948 -0.24615154
vn 0.96592583 0.07997948 -0.24615154
vn 0.96592583 0.07997948 -0.24615154
usemtl cavity
f 112/112/112 113/113/113 114/114/114 115/115/115
v 0.46189800 0.33360249 0.69479011
v 0.27136670 0.13022804 0.68238974
v 0.73079126 0.16826879 0.56531236
vt 0.60506426 0.90999465
vt 0.81640625 0.89238281
vt 0.30680127 0.89238281
vn 0.25881905 -0.29848750 0.91865005
vn 0.25881905 -0.29848750 0.91865005
vn 0.25881905 -0.29848750 0.91865005
usemtl ion_on
f 116/116/116 117/117/117 118/118/118
v 0.46189800 0.33360249 0.69479011
v 0.73079126 0.16826879 0.56531236
v 0.73079126 0.20155577 0.57612796
vt 0.60506426 0.90999465
vt 0.30680127 0.89238281
vt 0.30680127 0.89550781
vn 0.25881905 -0.29848750 0.91865005
vn 0.25881905 -0.29848750 0.91865005
vn 0.25881905 -0.29848750 0.91865005
usemtl ion_on
f 119/119/119 120/120/120 121/121/121
v 0.46189800 0.33360249 0.69479011
v 0.73079126 0.20155577 0.57612796
v 0.30517410 0.58537958 0.82075260
vt 0.60506426 0.90999465
vt 0.30680127 0.89550781
vt 0.77890625 0.93484989
vn 0.25881905 -0.29848750 0.91865005
vn 0.25881905 -0.29848750 0.91865005
vn 0.25881905 -0.29848750 0.91865005
usemtl ion_on
f 122/122/122 123/123/123 124/124/124
v 0.46189800 0.33360249 0.69479011
v 0.30517410 0.58537958 0.82075260
v 0.27136670 0.58258030 0.82936790
vt 0.60506426 0.90999465
vt 0.77890625 0.93484989
vt 0.81640625 0.93484989
vn 0.25881905 -0.29848750 0.91865005
vn 0.25881905 -0.29848750 0.91865005
vn 0.25881905 -0.29848750 0.91865005
usemtl ion_on
f 125/125/125 126/126/126 127/127/127
v 0.46189800 0.33360249 0.69479011
v 0.27136670 0.58258030 0.82936790
v 0.27136670 0.13022804 0.68238974
vt 0.60506426 0.90999465
vt 0.81640625 0.93484989
vt 0.81640625 0.89238281
vn 0.25881905 -0.29848750 0.91865005
vn 0.25881905 -0.29848750 0.91865005
vn 0.25881905 -0.29848750 0.91865005
usemtl ion_on
f 128/128/128 129/129/129 130/130/130
v 0.36212138 0.22710023 0.68829634
v 0.56794359 0.24414248 0.63584567
v 0.58719325 0.22194248 0.70417027
v 0.38137105 0.20490022 0.75662094
vt 0.00000000 0.00000000
vt 1.00000000 0.00000000
vt 1.00000000 1.00000000
vt 0.00000000 1.00000000
vn 0.00000000 -0.95105652 -0.30901699
vn 0.00000000 -0.95105652 -0.30901699
vn 0.00000000 -0.95105652 -0.30901699
vn 0.00000000 -0.95105652 -0.30901699
usemtl dark_trim
f 131/131/131 132/132/132 133/133/133 134/134/134
v 0.56794359 0.24414248 0.63584567
v 0.56794359 0.25905505 0.64069106
v 0.58719325 0.23685504 0.70901566
v 0.58719325 0.22194248 0.70417027
vt 0.00000000 0.00000000
vt 1.00000000 0.00000000
vt 1.00000000 1.00000000
vt 0.00000000 1.00000000
vn 0.96592583 0.07997948 -0.24615154
vn 0.96592583 0.07997948 -0.24615154
vn 0.96592583 0.07997948 -0.24615154
vn 0.96592583 0.07997948 -0.24615154
usemtl dark_trim
f 135/135/135 136/136/136 137/137/137 138/138/138
v 0.56794359 0.25905505 0.64069106
v 0.37726710 0.43100812 0.75028290
v 0.39651676 0.40880811 0.81860750
v 0.58719325 0.23685504 0.70901566
vt 0.00000000 0.00000000
vt 1.00000000 0.00000000
vt 1.00000000 1.00000000
vt 0.00000000 1.00000000
vn 0.68301270 0.72905255 0.04445259
vn 0.68301270 0.72905255 0.04445259
vn 0.68301270 0.72905255 0.04445259
vn 0.68301270 0.72905255 0.04445259
usemtl dark_trim
f 139/139/139 140/140/140 141/141/141 142/142/142
v 0.37726710 0.43100812 0.75028290
v 0.36212138 0.42975404 0.75414256
v 0.38137105 0.40755403 0.82246715
v 0.39651676 0.40880811 0.81860750
vt 0.00000000 0.00000000
vt 1.00000000 0.00000000
vt 1.00000000 1.00000000
vt 0.00000000 1.00000000
vn 0.00000000 0.95105652 0.30901699
vn 0.00000000 0.95105652 0.30901699
vn 0.00000000 0.95105652 0.30901699
vn 0.00000000 0.95105652 0.30901699
usemtl dark_trim
f 143/143/143 144/144/144 145/145/145 146/146/146
v 0.36212138 0.42975404 0.75414256
v 0.36212138 0.22710023 0.68829634
v 0.38137105 0.20490022 0.75662094
v 0.38137105 0.40755403 0.82246715
vt 0.00000000 0.00000000
vt 1.00000000 0.00000000
vt 1.00000000 1.00000000
vt 0.00000000 1.00000000
vn -0.96592583 -0.07997948 0.24615154
vn -0.96592583 -0.07997948 0.24615154
vn -0.96592583 -0.07997948 0.24615154
vn -0.96592583 -0.07997948 0.24615154
usemtl dark_trim
f 147/147/147 148/148/148 149/149/149 150/150/150
v 0.46672907 0.29601197 0.76217630
v 0.38137105 0.20490022 0.75662094
v 0.58719325 0.22194248 0.70417027
vt 0.66141030 0.33858970
vt 0.78765191 0.21234809
vt 0.48324787 0.21234809
vn 0.25881905 -0.29848750 0.91865005
vn 0.25881905 -0.29848750 0.91865005
vn 0.25881905 -0.29848750 0.91865005
usemtl dark_trim
f 151/151/151 152/152/152 153/153/153
v 0.46672907 0.29601197 0.76217630
v 0.58719325 0.22194248 0.70417027
v 0.58719325 0.23685504 0.70901566
vt 0.66141030 0.33858970
vt 0.48324787 0.21234809
vt 0.48324787 0.23474809
vn 0.25881905 -0.29848750 0.91865005
vn 0.25881905 -0.29848750 0.91865005
vn 0.25881905 -0.29848750 0.91865005
usemtl dark_trim
f 154/154/154 155/155/155 156/156/156
v 0.46672907 0.29601197 0.76217630
v 0.58719325 0.23685504 0.70901566
v 0.39651676 0.40880811 0.81860750
vt 0.66141030 0.33858970
vt 0.48324787 0.23474809
vt 0.76525191 0.51675213
vn 0.25881905 -0.29848750 0.91865005
vn 0.25881905 -0.29848750 0.91865005
vn 0.25881905 -0.29848750 0.91865005
usemtl dark_trim
f 157/157/157 158/158/158 159/159/159
v 0.46672907 0.29601197 0.76217630
v 0.39651676 0.40880811 0.81860750
v 0.38137105 0.40755403 0.82246715
vt 0.66141030 0.33858970
vt 0.76525191 0.51675213
vt 0.78765191 0.51675213
vn 0.25881905 -0.29848750 0.91865005
vn 0.25881905 -0.29848750 0.91865005
vn 0.25881905 -0.29848750 0.91865005
usemtl dark_trim
f 160/160/160 161/161/161 162/162/162
v 0.46672907 0.29601197 0.76217630
v 0.38137105 0.40755403 0.82246715
v 0.38137105 0.20490022 0.75662094
vt 0.66141030 0.33858970
vt 0.78765191 0.51675213
vt 0.78765191 0.21234809
vn 0.25881905 -0.29848750 0.91865005
vn 0.25881905 -0.29848750 0.91865005
vn 0.25881905 -0.29848750 0.91865005
usemtl dark_trim
f 163/163/163 164/164/164 165/165/165
