mtllib plasma_thruster_hex_off.mtl
o thruster
v 0.98125000 0.50000000 0.00000000
v 0.74062500 0.91677473 0.00000000
v 0.75000000 0.93301270 0.02500000
v 1.00000000 0.50000000 0.02500000
vt 0.00000000 1.00000000
vt 1.00000000 1.00000000
vt 1.00000000 0.00000000
vt 0.00000000 0.00000000
vn 0.72627304 0.41931393 -0.54470478
vn 0.72627304 0.41931393 -0.54470478
vn 0.72627304 0.41931393 -0.54470478
vn 0.72627304 0.41931393 -0.54470478
usemtl trim
f 1/1/1 2/2/2 3/3/3 4/4/4
v 0.74062500 0.91677473 0.00000000
v 0.25937500 0.91677473 0.00000000
v 0.25000000 0.93301270 0.02500000
v 0.75000000 0.93301270 0.02500000
vt 0.00000000 1.00000000
vt 1.00000000 1.00000000
vt 1.00000000 0.00000000
vt 0.00000000 0.00000000
vn 0.00000000 0.83862787 -0.54470478
vn 0.00000000 0.83862787 -0.54470478
vn 0.00000000 0.83862787 -0.54470478
vn 0.00000000 0.83862787 -0.54470478
usemtl trim
f 5/5/5 6/6/6 7/7/7 8/8/8
v 0.25937500 0.91677473 0.00000000
v 0.01875000 0.50000000 0.00000000
v 0.00000000 0.50000000 0.02500000
v 0.25000000 0.93301270 0.02500000
vt 0.00000000 1.00000000
vt 1.00000000 1.00000000
vt 1.00000000 0.00000000
vt 0.00000000 0.00000000
vn -0.72627304 0.41931393 -0.54470478
vn -0.72627304 0.41931393 -0.54470478
vn -0.72627304 0.41931393 -0.54470478
vn -0.72627304 0.41931393 -0.54470478
usemtl trim
f 9/9/9 10/10/10 11/11/11 12/12/12
v 0.01875000 0.50000000 0.00000000
v 0.25937500 0.08322527 0.00000000
v 0.25000000 0.06698730 0.02500000
v 0.00000000 0.50000000 0.02500000
vt 0.00000000 1.00000000
vt 1.00000000 1.00000000
vt 1.00000000 0.00000000
vt 0.00000000 0.00000000
vn -0.72627304 -0.41931393 -0.54470478
vn -0.72627304 -0.41931393 -0.54470478
vn -0.72627304 -0.41931393 -0.54470478
vn -0.72627304 -0.41931393 -0.54470478
usemtl trim
f 13/13/13 14/14/14 15/15/15 16/16/16
v 0.25937500 0.08322527 0.00000000
v 0.74062500 0.08322527 0.00000000
v 0.75000000 0.06698730 0.02500000
v 0.25000000 0.06698730 0.02500000
vt 0.00000000 1.00000000
vt 1.00000000 1.00000000
vt 1.00000000 0.00000000
vt 0.00000000 0.00000000
vn -0.00000000 -0.83862787 -0.54470478
vn -0.00000000 -0.83862787 -0.54470478
vn -0.00000000 -0.83862787 -0.54470478
vn -0.00000000 -0.83862787 -0.54470478
usemtl trim
f 17/17/17 18/18/18 19/19/19 20/20/20
v 0.74062500 0.08322527 0.00000000
v 0.98125000 0.50000000 0.00000000
v 1.00000000 0.50000000 0.02500000
v 0.75000000 0.06698730 0.02500000
vt 0.00000000 1.00000000
vt 1.00000000 1.00000000
vt 1.00000000 0.00000000
vt 0.00000000 0.00000000
vn 0.72627304 -0.41931393 -0.54470478
vn 0.72627304 -0.41931393 -0.54470478
vn 0.72627304 -0.41931393 -0.54470478
vn 0.72627304 -0.41931393 -0.54470478
usemtl trim
f 21/21/21 22/22/22 23/23/23 24/24/24
v 1.00000000 0.50000000 0.02500000
v 0.75000000 0.93301270 0.02500000
v 0.75000000 0.93301270 0.96250000
v 1.00000000 0.50000000 0.96250000
vt 0.00000000 1.00000000
vt 1.00000000 1.00000000
vt 1.00000000 0.00000000
vt 0.00000000 0.00000000
vn 0.86602540 0.50000000 0.00000000
vn 0.86602540 0.50000000 0.00000000
vn 0.86602540 0.50000000 0.00000000
vn 0.86602540 0.50000000 0.00000000
usemtl side
f 25/25/25 26/26/26 27/27/27 28/28/28
v 0.75000000 0.93301270 0.02500000
v 0.25000000 0.93301270 0.02500000
v 0.25000000 0.93301270 0.96250000
v 0.75000000 0.93301270 0.96250000
vt 0.00000000 1.00000000
vt 1.00000000 1.00000000
vt 1.00000000 0.00000000
vt 0.00000000 0.00000000
vn 0.00000000 1.00000000 0.00000000
vn 0.00000000 1.00000000 0.00000000
vn 0.00000000 1.00000000 0.00000000
vn 0.00000000 1.00000000 0.00000000
usemtl side
f 29/29/29 30/30/30 31/31/31 32/32/32
v 0.25000000 0.93301270 0.02500000
v 0.00000000 0.50000000 0.02500000
v 0.00000000 0.50000000 0.96250000
v 0.25000000 0.93301270 0.96250000
vt 0.00000000 1.00000000
vt 1.00000000 1.00000000
vt 1.00000000 0.00000000
vt 0.00000000 0.00000000
vn -0.86602540 0.50000000 0.00000000
vn -0.86602540 0.50000000 0.00000000
vn -0.86602540 0.50000000 0.00000000
vn -0.86602540 0.50000000 0.00000000
usemtl side
f 33/33/33 34/34/34 35/35/35 36/36/36
v 0.00000000 0.50000000 0.02500000
v 0.25000000 0.06698730 0.02500000
v 0.25000000 0.06698730 0.96250000
v 0.00000000 0.50000000 0.96250000
vt 0.00000000 1.00000000
vt 1.00000000 1.00000000
vt 1.00000000 0.00000000
vt 0.00000000 0.00000000
vn -0.86602540 -0.50000000 0.00000000
vn -0.86602540 -0.50000000 0.00000000
vn -0.86602540 -0.50000000 0.00000000
vn -0.86602540 -0.50000000 0.00000000
usemtl side
f 37/37/37 38/38/38 39/39/39 40/40/40
v 0.25000000 0.06698730 0.02500000
v 0.75000000 0.06698730 0.02500000
v 0.75000000 0.06698730 0.96250000
v 0.25000000 0.06698730 0.96250000
vt 0.00000000 1.00000000
vt 1.00000000 1.00000000
vt 1.00000000 0.00000000
vt 0.00000000 0.00000000
vn -0.00000000 -1.00000000 0.00000000
vn -0.00000000 -1.00000000 0.00000000
vn -0.00000000 -1.00000000 0.00000000
vn -0.00000000 -1.00000000 0.00000000
usemtl side
f 41/41/41 42/42/42 43/43/43 44/44/44
v 0.75000000 0.06698730 0.02500000
v 1.00000000 0.50000000 0.02500000
v 1.00000000 0.50000000 0.96250000
v 0.75000000 0.06698730 0.96250000
vt 0.00000000 1.00000000
vt 1.00000000 1.00000000
vt 1.00000000 0.00000000
vt 0.00000000 0.00000000
vn 0.86602540 -0.50000000 0.00000000
vn 0.86602540 -0.50000000 0.00000000
vn 0.86602540 -0.50000000 0.00000000
vn 0.86602540 -0.50000000 0.00000000
usemtl side
f 45/45/45 46/46/46 47/47/47 48/48/48
v 1.00000000 0.50000000 0.96250000
v 0.75000000 0.93301270 0.96250000
v 0.73750000 0.91136207 1.00000000
v 0.97500000 0.50000000 1.00000000
vt 0.00000000 1.00000000
vt 1.00000000 1.00000000
vt 1.00000000 0.00000000
vt 0.00000000 0.00000000
vn 0.75000000 0.43301270 0.50000000
vn 0.75000000 0.43301270 0.50000000
vn 0.75000000 0.43301270 0.50000000
vn 0.75000000 0.43301270 0.50000000
usemtl dark_trim
f 49/49/49 50/50/50 51/51/51 52/52/52
v 0.75000000 0.93301270 0.96250000
v 0.25000000 0.93301270 0.96250000
v 0.26250000 0.91136207 1.00000000
v 0.73750000 0.91136207 1.00000000
vt 0.00000000 1.00000000
vt 1.00000000 1.00000000
vt 1.00000000 0.00000000
vt 0.00000000 0.00000000
vn 0.00000000 0.86602540 0.50000000
vn 0.00000000 0.86602540 0.50000000
vn 0.00000000 0.86602540 0.50000000
vn 0.00000000 0.86602540 0.50000000
usemtl dark_trim
f 53/53/53 54/54/54 55/55/55 56/56/56
v 0.25000000 0.93301270 0.96250000
v 0.00000000 0.50000000 0.96250000
v 0.02500000 0.50000000 1.00000000
v 0.26250000 0.91136207 1.00000000
vt 0.00000000 1.00000000
vt 1.00000000 1.00000000
vt 1.00000000 0.00000000
vt 0.00000000 0.00000000
vn -0.75000000 0.43301270 0.50000000
vn -0.75000000 0.43301270 0.50000000
vn -0.75000000 0.43301270 0.50000000
vn -0.75000000 0.43301270 0.50000000
usemtl dark_trim
f 57/57/57 58/58/58 59/59/59 60/60/60
v 0.00000000 0.50000000 0.96250000
v 0.25000000 0.06698730 0.96250000
v 0.26250000 0.08863793 1.00000000
v 0.02500000 0.50000000 1.00000000
vt 0.00000000 1.00000000
vt 1.00000000 1.00000000
vt 1.00000000 0.00000000
vt 0.00000000 0.00000000
vn -0.75000000 -0.43301270 0.50000000
vn -0.75000000 -0.43301270 0.50000000
vn -0.75000000 -0.43301270 0.50000000
vn -0.75000000 -0.43301270 0.50000000
usemtl dark_trim
f 61/61/61 62/62/62 63/63/63 64/64/64
v 0.25000000 0.06698730 0.96250000
v 0.75000000 0.06698730 0.96250000
v 0.73750000 0.08863793 1.00000000
v 0.26250000 0.08863793 1.00000000
vt 0.00000000 1.00000000
vt 1.00000000 1.00000000
vt 1.00000000 0.00000000
vt 0.00000000 0.00000000
vn -0.00000000 -0.86602540 0.50000000
vn -0.00000000 -0.86602540 0.50000000
vn -0.00000000 -0.86602540 0.50000000
vn -0.00000000 -0.86602540 0.50000000
usemtl dark_trim
f 65/65/65 66/66/66 67/67/67 68/68/68
v 0.75000000 0.06698730 0.96250000
v 1.00000000 0.50000000 0.96250000
v 0.97500000 0.50000000 1.00000000
v 0.73750000 0.08863793 1.00000000
vt 0.00000000 1.00000000
vt 1.00000000 1.00000000
vt 1.00000000 0.00000000
vt 0.00000000 0.00000000
vn 0.75000000 -0.43301270 0.50000000
vn 0.75000000 -0.43301270 0.50000000
vn 0.75000000 -0.43301270 0.50000000
vn 0.75000000 -0.43301270 0.50000000
usemtl dark_trim
f 69/69/69 70/70/70 71/71/71 72/72/72
v 0.50000000 0.50000000 1.00000000
v 0.97500000 0.50000000 1.00000000
v 0.73750000 0.91136207 1.00000000
vt 0.50000000 0.50000000
vt 0.02500000 0.50000000
vt 0.26250000 0.91136207
vn 0.00000000 0.00000000 1.00000000
vn 0.00000000 0.00000000 1.00000000
vn 0.00000000 0.00000000 1.00000000
usemtl rear
f 73/73/73 74/74/74 75/75/75
v 0.50000000 0.50000000 1.00000000
v 0.73750000 0.91136207 1.00000000
v 0.26250000 0.91136207 1.00000000
vt 0.50000000 0.50000000
vt 0.26250000 0.91136207
vt 0.73750000 0.91136207
vn 0.00000000 0.00000000 1.00000000
vn 0.00000000 0.00000000 1.00000000
vn 0.00000000 0.00000000 1.00000000
usemtl rear
f 76/76/76 77/77/77 78/78/78
v 0.50000000 0.50000000 1.00000000
v 0.26250000 0.91136207 1.00000000
v 0.02500000 0.50000000 1.00000000
vt 0.50000000 0.50000000
vt 0.73750000 0.91136207
vt 0.97500000 0.50000000
vn 0.00000000 0.00000000 1.00000000
vn 0.00000000 0.00000000 1.00000000
vn 0.00000000 0.00000000 1.00000000
usemtl rear
f 79/79/79 80/80/80 81/81/81
v 0.50000000 0.50000000 1.00000000
v 0.02500000 0.50000000 1.00000000
v 0.26250000 0.08863793 1.00000000
vt 0.50000000 0.50000000
vt 0.97500000 0.50000000
vt 0.73750000 0.08863793
vn 0.00000000 0.00000000 1.00000000
vn 0.00000000 0.00000000 1.00000000
vn 0.00000000 0.00000000 1.00000000
usemtl rear
f 82/82/82 83/83/83 84/84/84
v 0.50000000 0.50000000 1.00000000
v 0.26250000 0.08863793 1.00000000
v 0.73750000 0.08863793 1.00000000
vt 0.50000000 0.50000000
vt 0.73750000 0.08863793
vt 0.26250000 0.08863793
vn 0.00000000 0.00000000 1.00000000
vn 0.00000000 0.00000000 1.00000000
vn 0.00000000 0.00000000 1.00000000
usemtl rear
f 85/85/85 86/86/86 87/87/87
v 0.50000000 0.50000000 1.00000000
v 0.73750000 0.08863793 1.00000000
v 0.97500000 0.50000000 1.00000000
vt 0.50000000 0.50000000
vt 0.26250000 0.08863793
vt 0.02500000 0.50000000
vn 0.00000000 0.00000000 1.00000000
vn 0.00000000 0.00000000 1.00000000
vn 0.00000000 0.00000000 1.00000000
usemtl rear
f 88/88/88 89/89/89 90/90/90
v 0.89062500 0.50000000 0.00000000
v 0.69531250 0.83829117 0.00000000
v 0.74062500 0.91677473 0.00000000
v 0.98125000 0.50000000 0.00000000
vt 0.10937500 0.50000000
vt 0.30468750 0.83829117
vt 0.25937500 0.91677473
vt 0.01875000 0.50000000
vn 0.00000000 0.00000000 -1.00000000
vn 0.00000000 0.00000000 -1.00000000
vn 0.00000000 0.00000000 -1.00000000
vn 0.00000000 0.00000000 -1.00000000
usemtl trim
f 91/91/91 92/92/92 93/93/93 94/94/94
v 0.69531250 0.83829117 0.00000000
v 0.30468750 0.83829117 0.00000000
v 0.25937500 0.91677473 0.00000000
v 0.74062500 0.91677473 0.00000000
vt 0.30468750 0.83829117
vt 0.69531250 0.83829117
vt 0.74062500 0.91677473
vt 0.25937500 0.91677473
vn 0.00000000 0.00000000 -1.00000000
vn 0.00000000 0.00000000 -1.00000000
vn 0.00000000 0.00000000 -1.00000000
vn 0.00000000 0.00000000 -1.00000000
usemtl trim
f 95/95/95 96/96/96 97/97/97 98/98/98
v 0.30468750 0.83829117 0.00000000
v 0.10937500 0.50000000 0.00000000
v 0.01875000 0.50000000 0.00000000
v 0.25937500 0.91677473 0.00000000
vt 0.69531250 0.83829117
vt 0.89062500 0.50000000
vt 0.98125000 0.50000000
vt 0.74062500 0.91677473
vn 0.00000000 0.00000000 -1.00000000
vn 0.00000000 0.00000000 -1.00000000
vn 0.00000000 0.00000000 -1.00000000
vn 0.00000000 0.00000000 -1.00000000
usemtl trim
f 99/99/99 100/100/100 101/101/101 102/102/102
v 0.10937500 0.50000000 0.00000000
v 0.30468750 0.16170883 0.00000000
v 0.25937500 0.08322527 0.00000000
v 0.01875000 0.50000000 0.00000000
vt 0.89062500 0.50000000
vt 0.69531250 0.16170883
vt 0.74062500 0.08322527
vt 0.98125000 0.50000000
vn 0.00000000 0.00000000 -1.00000000
vn 0.00000000 0.00000000 -1.00000000
vn 0.00000000 0.00000000 -1.00000000
vn 0.00000000 0.00000000 -1.00000000
usemtl trim
f 103/103/103 104/104/104 105/105/105 106/106/106
v 0.30468750 0.16170883 0.00000000
v 0.69531250 0.16170883 0.00000000
v 0.74062500 0.08322527 0.00000000
v 0.25937500 0.08322527 0.00000000
vt 0.69531250 0.16170883
vt 0.30468750 0.16170883
vt 0.25937500 0.08322527
vt 0.74062500 0.08322527
vn 0.00000000 0.00000000 -1.00000000
vn 0.00000000 0.00000000 -1.00000000
vn 0.00000000 0.00000000 -1.00000000
vn 0.00000000 0.00000000 -1.00000000
usemtl trim
f 107/107/107 108/108/108 109/109/109 110/110/110
v 0.69531250 0.16170883 0.00000000
v 0.89062500 0.50000000 0.00000000
v 0.98125000 0.50000000 0.00000000
v 0.74062500 0.08322527 0.00000000
vt 0.30468750 0.16170883
vt 0.10937500 0.50000000
vt 0.01875000 0.50000000
vt 0.25937500 0.08322527
vn 0.00000000 0.00000000 -1.00000000
vn 0.00000000 0.00000000 -1.00000000
vn 0.00000000 0.00000000 -1.00000000
vn 0.00000000 0.00000000 -1.00000000
usemtl trim
f 111/111/111 112/112/112 113/113/113 114/114/114
v 0.89062500 0.50000000 0.18750000
v 0.69531250 0.83829117 0.18750000
v 0.69531250 0.83829117 0.00000000
v 0.89062500 0.50000000 0.00000000
vt 0.00000000 1.00000000
vt 1.00000000 1.00000000
vt 1.00000000 0.00000000
vt 0.00000000 0.00000000
vn -0.86602540 -0.50000000 -0.00000000
vn -0.86602540 -0.50000000 -0.00000000
vn -0.86602540 -0.50000000 -0.00000000
vn -0.86602540 -0.50000000 -0.00000000
usemtl cavity
f 115/115/115 116/116/116 117/117/117 118/118/118
v 0.69531250 0.83829117 0.18750000
v 0.30468750 0.83829117 0.18750000
v 0.30468750 0.83829117 0.00000000
v 0.69531250 0.83829117 0.00000000
vt 0.00000000 1.00000000
vt 1.00000000 1.00000000
vt 1.00000000 0.00000000
vt 0.00000000 0.00000000
vn -0.00000000 -1.00000000 -0.00000000
vn -0.00000000 -1.00000000 -0.00000000
vn -0.00000000 -1.00000000 -0.00000000
vn -0.00000000 -1.00000000 -0.00000000
usemtl cavity
f 119/119/119 120/120/120 121/121/121 122/122/122
v 0.30468750 0.83829117 0.18750000
v 0.10937500 0.50000000 0.18750000
v 0.10937500 0.50000000 0.00000000
v 0.30468750 0.83829117 0.00000000
vt 0.00000000 1.00000000
vt 1.00000000 1.00000000
vt 1.00000000 0.00000000
vt 0.00000000 0.00000000
vn 0.86602540 -0.50000000 -0.00000000
vn 0.86602540 -0.50000000 -0.00000000
vn 0.86602540 -0.50000000 -0.00000000
vn 0.86602540 -0.50000000 -0.00000000
usemtl cavity
f 123/123/123 124/124/124 125/125/125 126/126/126
v 0.10937500 0.50000000 0.18750000
v 0.30468750 0.16170883 0.18750000
v 0.30468750 0.16170883 0.00000000
v 0.10937500 0.50000000 0.00000000
vt 0.00000000 1.00000000
vt 1.00000000 1.00000000
vt 1.00000000 0.00000000
vt 0.00000000 0.00000000
vn 0.86602540 0.50000000 -0.00000000
vn 0.86602540 0.50000000 -0.00000000
vn 0.86602540 0.50000000 -0.00000000
vn 0.86602540 0.50000000 -0.00000000
usemtl cavity
f 127/127/127 128/128/128 129/129/129 130/130/130
v 0.30468750 0.16170883 0.18750000
v 0.69531250 0.16170883 0.18750000
v 0.69531250 0.16170883 0.00000000
v 0.30468750 0.16170883 0.00000000
vt 0.00000000 1.00000000
vt 1.00000000 1.00000000
vt 1.00000000 0.00000000
vt 0.00000000 0.00000000
vn 0.00000000 1.00000000 -0.00000000
vn 0.00000000 1.00000000 -0.00000000
vn 0.00000000 1.00000000 -0.00000000
vn 0.00000000 1.00000000 -0.00000000
usemtl cavity
f 131/131/131 132/132/132 133/133/133 134/134/134
v 0.69531250 0.16170883 0.18750000
v 0.89062500 0.50000000 0.18750000
v 0.89062500 0.50000000 0.00000000
v 0.69531250 0.16170883 0.00000000
vt 0.00000000 1.00000000
vt 1.00000000 1.00000000
vt 1.00000000 0.00000000
vt 0.00000000 0.00000000
vn -0.86602540 0.50000000 -0.00000000
vn -0.86602540 0.50000000 -0.00000000
vn -0.86602540 0.50000000 -0.00000000
vn -0.86602540 0.50000000 -0.00000000
usemtl cavity
f 135/135/135 136/136/136 137/137/137 138/138/138
v 0.69531250 0.83829117 0.18750000
v 0.89062500 0.50000000 0.18750000
v 0.50000000 0.50000000 0.18750000
vt 0.35351562 0.93989320
vt 0.20703125 0.91875000
vt 0.50000000 0.91875000
vn 0.00000000 0.00000000 -1.00000000
vn 0.00000000 0.00000000 -1.00000000
vn 0.00000000 0.00000000 -1.00000000
usemtl plasma_off
f 139/139/139 140/140/140 141/141/141
v 0.30468750 0.83829117 0.18750000
v 0.69531250 0.83829117 0.18750000
v 0.50000000 0.50000000 0.18750000
vt 0.64648437 0.93989320
vt 0.35351562 0.93989320
vt 0.50000000 0.91875000
vn 0.00000000 0.00000000 -1.00000000
vn 0.00000000 0.00000000 -1.00000000
vn 0.00000000 0.00000000 -1.00000000
usemtl plasma_off
f 142/142/142 143/143/143 144/144/144
v 0.10937500 0.50000000 0.18750000
v 0.30468750 0.83829117 0.18750000
v 0.50000000 0.50000000 0.18750000
vt 0.79296875 0.91875000
vt 0.64648437 0.93989320
vt 0.50000000 0.91875000
vn 0.00000000 0.00000000 -1.00000000
vn 0.00000000 0.00000000 -1.00000000
vn 0.00000000 0.00000000 -1.00000000
usemtl plasma_off
f 145/145/145 146/146/146 147/147/147
v 0.30468750 0.16170883 0.18750000
v 0.10937500 0.50000000 0.18750000
v 0.50000000 0.50000000 0.18750000
vt 0.64648438 0.89760680
vt 0.79296875 0.91875000
vt 0.50000000 0.91875000
vn 0.00000000 0.00000000 -1.00000000
vn 0.00000000 0.00000000 -1.00000000
vn 0.00000000 0.00000000 -1.00000000
usemtl plasma_off
f 148/148/148 149/149/149 150/150/150
v 0.69531250 0.16170883 0.18750000
v 0.30468750 0.16170883 0.18750000
v 0.50000000 0.50000000 0.18750000
vt 0.35351562 0.89760680
vt 0.64648438 0.89760680
vt 0.50000000 0.91875000
vn 0.00000000 0.00000000 -1.00000000
vn 0.00000000 0.00000000 -1.00000000
vn 0.00000000 0.00000000 -1.00000000
usemtl plasma_off
f 151/151/151 152/152/152 153/153/153
v 0.89062500 0.50000000 0.18750000
v 0.69531250 0.16170883 0.18750000
v 0.50000000 0.50000000 0.18750000
vt 0.20703125 0.91875000
vt 0.35351562 0.89760680
vt 0.50000000 0.91875000
vn 0.00000000 0.00000000 -1.00000000
vn 0.00000000 0.00000000 -1.00000000
vn 0.00000000 0.00000000 -1.00000000
usemtl plasma_off
f 154/154/154 155/155/155 156/156/156
v 0.33125000 0.16170883 0.03125000
v 0.33125000 0.83829117 0.03125000
v 0.39375000 0.83829117 0.03125000
vt 0.66875000 0.16170883
vt 0.66875000 0.83829117
vt 0.60625000 0.83829117
vn 0.00000000 0.00000000 -1.00000000
vn 0.00000000 0.00000000 -1.00000000
vn 0.00000000 0.00000000 -1.00000000
usemtl dark_trim
f 157/157/157 158/158/158 159/159/159
v 0.39375000 0.16170883 0.03125000
v 0.33125000 0.16170883 0.03125000
v 0.39375000 0.83829117 0.03125000
vt 0.60625000 0.16170883
vt 0.66875000 0.16170883
vt 0.60625000 0.83829117
vn 0.00000000 0.00000000 -1.00000000
vn 0.00000000 0.00000000 -1.00000000
vn 0.00000000 0.00000000 -1.00000000
usemtl dark_trim
f 160/160/160 161/161/161 162/162/162
v 0.39375000 0.83829117 0.03125000
v 0.33125000 0.83829117 0.03125000
v 0.33125000 0.83829117 0.18750000
v 0.39375000 0.83829117 0.18750000
vt 0.00000000 1.00000000
vt 1.00000000 1.00000000
vt 1.00000000 0.00000000
vt 0.00000000 0.00000000
vn 0.00000000 1.00000000 0.00000000
vn 0.00000000 1.00000000 0.00000000
vn 0.00000000 1.00000000 0.00000000
vn 0.00000000 1.00000000 0.00000000
usemtl dark_trim
f 163/163/163 164/164/164 165/165/165 166/166/166
v 0.33125000 0.83829117 0.03125000
v 0.33125000 0.16170883 0.03125000
v 0.33125000 0.16170883 0.18750000
v 0.33125000 0.83829117 0.18750000
vt 0.00000000 1.00000000
vt 1.00000000 1.00000000
vt 1.00000000 0.00000000
vt 0.00000000 0.00000000
vn -1.00000000 0.00000000 0.00000000
vn -1.00000000 0.00000000 0.00000000
vn -1.00000000 0.00000000 0.00000000
vn -1.00000000 0.00000000 0.00000000
usemtl dark_trim
f 167/167/167 168/168/168 169/169/169 170/170/170
v 0.33125000 0.16170883 0.03125000
v 0.39375000 0.16170883 0.03125000
v 0.39375000 0.16170883 0.18750000
v 0.33125000 0.16170883 0.18750000
vt 0.00000000 1.00000000
vt 1.00000000 1.00000000
vt 1.00000000 0.00000000
vt 0.00000000 0.00000000
vn -0.00000000 -1.00000000 0.00000000
vn -0.00000000 -1.00000000 0.00000000
vn -0.00000000 -1.00000000 0.00000000
vn -0.00000000 -1.00000000 0.00000000
usemtl dark_trim
f 171/171/171 172/172/172 173/173/173 174/174/174
v 0.39375000 0.16170883 0.03125000
v 0.39375000 0.83829117 0.03125000
v 0.39375000 0.83829117 0.18750000
v 0.39375000 0.16170883 0.18750000
vt 0.00000000 1.00000000
vt 1.00000000 1.00000000
vt 1.00000000 0.00000000
vt 0.00000000 0.00000000
vn 1.00000000 0.00000000 0.00000000
vn 1.00000000 0.00000000 0.00000000
vn 1.00000000 0.00000000 0.00000000
vn 1.00000000 0.00000000 0.00000000
usemtl dark_trim
f 175/175/175 176/176/176 177/177/177 178/178/178
v 0.60625000 0.16170883 0.03125000
v 0.60625000 0.83829117 0.03125000
v 0.66875000 0.83829117 0.03125000
vt 0.39375000 0.16170883
vt 0.39375000 0.83829117
vt 0.33125000 0.83829117
vn 0.00000000 0.00000000 -1.00000000
vn 0.00000000 0.00000000 -1.00000000
vn 0.00000000 0.00000000 -1.00000000
usemtl dark_trim
f 179/179/179 180/180/180 181/181/181
v 0.66875000 0.16170883 0.03125000
v 0.60625000 0.16170883 0.03125000
v 0.66875000 0.83829117 0.03125000
vt 0.33125000 0.16170883
vt 0.39375000 0.16170883
vt 0.33125000 0.83829117
vn 0.00000000 0.00000000 -1.00000000
vn 0.00000000 0.00000000 -1.00000000
vn 0.00000000 0.00000000 -1.00000000
usemtl dark_trim
f 182/182/182 183/183/183 184/184/184
v 0.66875000 0.83829117 0.03125000
v 0.60625000 0.83829117 0.03125000
v 0.60625000 0.83829117 0.18750000
v 0.66875000 0.83829117 0.18750000
vt 0.00000000 1.00000000
vt 1.00000000 1.00000000
vt 1.00000000 0.00000000
vt 0.00000000 0.00000000
vn 0.00000000 1.00000000 0.00000000
vn 0.00000000 1.00000000 0.00000000
vn 0.00000000 1.00000000 0.00000000
vn 0.00000000 1.00000000 0.00000000
usemtl dark_trim
f 185/185/185 186/186/186 187/187/187 188/188/188
v 0.60625000 0.83829117 0.03125000
v 0.60625000 0.16170883 0.03125000
v 0.60625000 0.16170883 0.18750000
v 0.60625000 0.83829117 0.18750000
vt 0.00000000 1.00000000
vt 1.00000000 1.00000000
vt 1.00000000 0.00000000
vt 0.00000000 0.00000000
vn -1.00000000 0.00000000 0.00000000
vn -1.00000000 0.00000000 0.00000000
vn -1.00000000 0.00000000 0.00000000
vn -1.00000000 0.00000000 0.00000000
usemtl dark_trim
f 189/189/189 190/190/190 191/191/191 192/192/192
v 0.60625000 0.16170883 0.03125000
v 0.66875000 0.16170883 0.03125000
v 0.66875000 0.16170883 0.18750000
v 0.60625000 0.16170883 0.18750000
vt 0.00000000 1.00000000
vt 1.00000000 1.00000000
vt 1.00000000 0.00000000
vt 0.00000000 0.00000000
vn -0.00000000 -1.00000000 0.00000000
vn -0.00000000 -1.00000000 0.00000000
vn -0.00000000 -1.00000000 0.00000000
vn -0.00000000 -1.00000000 0.00000000
usemtl dark_trim
f 193/193/193 194/194/194 195/195/195 196/196/196
v 0.66875000 0.16170883 0.03125000
v 0.66875000 0.83829117 0.03125000
v 0.66875000 0.83829117 0.18750000
v 0.66875000 0.16170883 0.18750000
vt 0.00000000 1.00000000
vt 1.00000000 1.00000000
vt 1.00000000 0.00000000
vt 0.00000000 0.00000000
vn 1.00000000 0.00000000 0.00000000
vn 1.00000000 0.00000000 0.00000000
vn 1.00000000 0.00000000 0.00000000
vn 1.00000000 0.00000000 0.00000000
usemtl dark_trim
f 197/197/197 198/198/198 199/199/199 200/200/200
