mtllib rocket_thruster_hexagonal_on.mtl
o thruster
v 0.26519040 0.36858629 0.90444982
v 0.42788853 0.65952126 0.95314200
v 0.41702031 0.67503018 0.94219346
v 0.24798329 0.37276009 0.89160418
vt 0.00000000 1.00000000
vt 1.00000000 1.00000000
vt 1.00000000 0.00000000
vt 0.00000000 0.00000000
vn -0.56054592 0.17811674 0.80874143
vn -0.56054592 0.17811674 0.80874143
vn -0.56054592 0.17811674 0.80874143
vn -0.56054592 0.17811674 0.80874143
usemtl trim
f 1/1/1 2/2/2 3/3/3 4/4/4
v 0.42788853 0.65952126 0.95314200
v 0.75328480 0.68646435 0.87021970
v 0.75509435 0.70302300 0.85604042
v 0.41702031 0.67503018 0.94219346
vt 0.00000000 1.00000000
vt 1.00000000 1.00000000
vt 1.00000000 0.00000000
vt 0.00000000 0.00000000
vn 0.14097997 0.63499493 0.75954334
vn 0.14097997 0.63499493 0.75954334
vn 0.14097997 0.63499493 0.75954334
vn 0.14097997 0.63499493 0.75954334
usemtl trim
f 5/5/5 6/6/6 7/7/7 8/8/8
v 0.75328480 0.68646435 0.87021970
v 0.91598293 0.42247247 0.73860522
v 0.92413137 0.42874573 0.71929810
v 0.75509435 0.70302300 0.85604042
vt 0.00000000 1.00000000
vt 1.00000000 1.00000000
vt 1.00000000 0.00000000
vt 0.00000000 0.00000000
vn 0.84250586 0.29429062 0.45119498
vn 0.84250586 0.29429062 0.45119498
vn 0.84250586 0.29429062 0.45119498
vn 0.84250586 0.29429062 0.45119498
usemtl trim
f 9/9/9 10/10/10 11/11/11 12/12/12
v 0.91598293 0.42247247 0.73860522
v 0.75328480 0.13153749 0.68991304
v 0.75509435 0.12647563 0.66870882
v 0.92413137 0.42874573 0.71929810
vt 0.00000000 1.00000000
vt 1.00000000 1.00000000
vt 1.00000000 0.00000000
vt 0.00000000 0.00000000
vn 0.84250586 -0.50329187 0.19204472
vn 0.84250586 -0.50329187 0.19204472
vn 0.84250586 -0.50329187 0.19204472
vn 0.84250586 -0.50329187 0.19204472
usemtl trim
f 13/13/13 14/14/14 15/15/15 16/16/16
v 0.75328480 0.13153749 0.68991304
v 0.42788853 0.10459441 0.77283534
v 0.41702031 0.09848281 0.75486186
v 0.75509435 0.12647563 0.66870882
vt 0.00000000 1.00000000
vt 1.00000000 1.00000000
vt 1.00000000 0.00000000
vt 0.00000000 0.00000000
vn 0.14097997 -0.96017007 0.24124281
vn 0.14097997 -0.96017007 0.24124281
vn 0.14097997 -0.96017007 0.24124281
vn 0.14097997 -0.96017007 0.24124281
usemtl trim
f 17/17/17 18/18/18 19/19/19 20/20/20
v 0.42788853 0.10459441 0.77283534
v 0.26519040 0.36858629 0.90444982
v 0.24798329 0.37276009 0.89160418
v 0.41702031 0.09848281 0.75486186
vt 0.00000000 1.00000000
vt 1.00000000 1.00000000
vt 1.00000000 0.00000000
vt 0.00000000 0.00000000
vn -0.56054592 -0.61946575 0.54959117
vn -0.56054592 -0.61946575 0.54959117
vn -0.56054592 -0.61946575 0.54959117
vn -0.56054592 -0.61946575 0.54959117
usemtl trim
f 21/21/21 22/22/22 23/23/23 24/24/24
v 0.24798329 0.37276009 0.89160418
v 0.41702031 0.67503018 0.94219346
v 0.24717031 0.87091260 0.33932936
v 0.07813329 0.56864251 0.28874008
vt 0.00000000 1.00000000
vt 1.00000000 1.00000000
vt 1.00000000 0.00000000
vt 0.00000000 0.00000000
vn -0.83651630 0.40626399 0.36768198
vn -0.83651630 0.40626399 0.36768198
vn -0.83651630 0.40626399 0.36768198
vn -0.83651630 0.40626399 0.36768198
usemtl side
f 25/25/25 26/26/26 27/27/27 28/28/28
v 0.41702031 0.67503018 0.94219346
v 0.75509435 0.70302300 0.85604042
v 0.58524435 0.89890542 0.25317632
v 0.24717031 0.87091260 0.33932936
vt 0.00000000 1.00000000
vt 1.00000000 1.00000000
vt 1.00000000 0.00000000
vt 0.00000000 0.00000000
vn -0.00000000 0.95105652 0.30901699
vn -0.00000000 0.95105652 0.30901699
vn -0.00000000 0.95105652 0.30901699
vn -0.00000000 0.95105652 0.30901699
usemtl side
f 29/29/29 30/30/30 31/31/31 32/32/32
v 0.75509435 0.70302300 0.85604042
v 0.92413137 0.42874573 0.71929810
v 0.75428137 0.62462815 0.11643401
v 0.58524435 0.89890542 0.25317632
vt 0.00000000 1.00000000
vt 1.00000000 1.00000000
vt 1.00000000 0.00000000
vt 0.00000000 0.00000000
vn 0.83651630 0.54479252 -0.05866499
vn 0.83651630 0.54479252 -0.05866499
vn 0.83651630 0.54479252 -0.05866499
vn 0.83651630 0.54479252 -0.05866499
usemtl side
f 33/33/33 34/34/34 35/35/35 36/36/36
v 0.92413137 0.42874573 0.71929810
v 0.75509435 0.12647563 0.66870882
v 0.58524435 0.32235805 0.06584473
v 0.75428137 0.62462815 0.11643401
vt 0.00000000 1.00000000
vt 1.00000000 1.00000000
vt 1.00000000 0.00000000
vt 0.00000000 0.00000000
vn 0.83651630 -0.40626399 -0.36768198
vn 0.83651630 -0.40626399 -0.36768198
vn 0.83651630 -0.40626399 -0.36768198
vn 0.83651630 -0.40626399 -0.36768198
usemtl side
f 37/37/37 38/38/38 39/39/39 40/40/40
v 0.75509435 0.12647563 0.66870882
v 0.41702031 0.09848281 0.75486186
v 0.24717031 0.29436523 0.15199777
v 0.58524435 0.32235805 0.06584473
vt 0.00000000 1.00000000
vt 1.00000000 1.00000000
vt 1.00000000 0.00000000
vt 0.00000000 0.00000000
vn 0.00000000 -0.95105652 -0.30901699
vn 0.00000000 -0.95105652 -0.30901699
vn 0.00000000 -0.95105652 -0.30901699
vn 0.00000000 -0.95105652 -0.30901699
usemtl side
f 41/41/41 42/42/42 43/43/43 44/44/44
v 0.41702031 0.09848281 0.75486186
v 0.24798329 0.37276009 0.89160418
v 0.07813329 0.56864251 0.28874008
v 0.24717031 0.29436523 0.15199777
vt 0.00000000 1.00000000
vt 1.00000000 1.00000000
vt 1.00000000 0.00000000
vt 0.00000000 0.00000000
vn -0.83651630 -0.54479252 0.05866499
vn -0.83651630 -0.54479252 0.05866499
vn -0.83651630 -0.54479252 0.05866499
vn -0.83651630 -0.54479252 0.05866499
usemtl side
f 45/45/45 46/46/46 47/47/47 48/48/48
v 0.07813329 0.56864251 0.28874008
v 0.24717031 0.87091260 0.33932936
v 0.24882817 0.86503404 0.30837768
v 0.08824300 0.57787745 0.26031787
vt 0.00000000 1.00000000
vt 1.00000000 1.00000000
vt 1.00000000 0.00000000
vt 0.00000000 0.00000000
vn -0.85385389 0.50107869 -0.14090309
vn -0.85385389 0.50107869 -0.14090309
vn -0.85385389 0.50107869 -0.14090309
vn -0.85385389 0.50107869 -0.14090309
usemtl dark_trim
f 49/49/49 50/50/50 51/51/51 52/52/52
v 0.24717031 0.87091260 0.33932936
v 0.58524435 0.89890542 0.25317632
v 0.56999850 0.89162722 0.22653230
v 0.24882817 0.86503404 0.30837768
vt 0.00000000 1.00000000
vt 1.00000000 1.00000000
vt 1.00000000 0.00000000
vt 0.00000000 0.00000000
vn -0.12940952 0.97288285 -0.19170846
vn -0.12940952 0.97288285 -0.19170846
vn -0.12940952 0.97288285 -0.19170846
vn -0.12940952 0.97288285 -0.19170846
usemtl dark_trim
f 53/53/53 54/54/54 55/55/55 56/56/56
v 0.58524435 0.89890542 0.25317632
v 0.75428137 0.62462815 0.11643401
v 0.73058367 0.63106380 0.09662710
v 0.56999850 0.89162722 0.22653230
vt 0.00000000 1.00000000
vt 1.00000000 1.00000000
vt 1.00000000 0.00000000
vt 0.00000000 0.00000000
vn 0.59503485 0.62104791 -0.51013040
vn 0.59503485 0.62104791 -0.51013040
vn 0.59503485 0.62104791 -0.51013040
vn 0.59503485 0.62104791 -0.51013040
usemtl dark_trim
f 57/57/57 58/58/58 59/59/59 60/60/60
v 0.75428137 0.62462815 0.11643401
v 0.58524435 0.32235805 0.06584473
v 0.56999850 0.34390721 0.04856728
v 0.73058367 0.63106380 0.09662710
vt 0.00000000 1.00000000
vt 1.00000000 1.00000000
vt 1.00000000 0.00000000
vt 0.00000000 0.00000000
vn 0.59503485 -0.20259119 -0.77774696
vn 0.59503485 -0.20259119 -0.77774696
vn 0.59503485 -0.20259119 -0.77774696
vn 0.59503485 -0.20259119 -0.77774696
usemtl dark_trim
f 61/61/61 62/62/62 63/63/63 64/64/64
v 0.58524435 0.32235805 0.06584473
v 0.24717031 0.29436523 0.15199777
v 0.24882817 0.31731403 0.13041267
v 0.56999850 0.34390721 0.04856728
vt 0.00000000 1.00000000
vt 1.00000000 1.00000000
vt 1.00000000 0.00000000
vt 0.00000000 0.00000000
vn -0.12940952 -0.67439535 -0.72694159
vn -0.12940952 -0.67439535 -0.72694159
vn -0.12940952 -0.67439535 -0.72694159
vn -0.12940952 -0.67439535 -0.72694159
usemtl dark_trim
f 65/65/65 66/66/66 67/67/67 68/68/68
v 0.24717031 0.29436523 0.15199777
v 0.07813329 0.56864251 0.28874008
v 0.08824300 0.57787745 0.26031787
v 0.24882817 0.31731403 0.13041267
vt 0.00000000 1.00000000
vt 1.00000000 1.00000000
vt 1.00000000 0.00000000
vt 0.00000000 0.00000000
vn -0.85385389 -0.32256041 -0.40851965
vn -0.85385389 -0.32256041 -0.40851965
vn -0.85385389 -0.32256041 -0.40851965
vn -0.85385389 -0.32256041 -0.40851965
usemtl dark_trim
f 69/69/69 70/70/70 71/71/71 72/72/72
v 0.40941333 0.60447062 0.17847248
v 0.08824300 0.57787745 0.26031787
v 0.24882817 0.86503404 0.30837768
vt 0.50000000 0.50000000
vt 0.02500000 0.50000000
vt 0.26250000 0.91136207
vn -0.25881905 0.29848750 -0.91865005
vn -0.25881905 0.29848750 -0.91865005
vn -0.25881905 0.29848750 -0.91865005
usemtl rear
f 73/73/73 74/74/74 75/75/75
v 0.40941333 0.60447062 0.17847248
v 0.24882817 0.86503404 0.30837768
v 0.56999850 0.89162722 0.22653230
vt 0.50000000 0.50000000
vt 0.26250000 0.91136207
vt 0.73750000 0.91136207
vn -0.25881905 0.29848750 -0.91865005
vn -0.25881905 0.29848750 -0.91865005
vn -0.25881905 0.29848750 -0.91865005
usemtl rear
f 76/76/76 77/77/77 78/78/78
v 0.40941333 0.60447062 0.17847248
v 0.56999850 0.89162722 0.22653230
v 0.73058367 0.63106380 0.09662710
vt 0.50000000 0.50000000
vt 0.73750000 0.91136207
vt 0.97500000 0.50000000
vn -0.25881905 0.29848750 -0.91865005
vn -0.25881905 0.29848750 -0.91865005
vn -0.25881905 0.29848750 -0.91865005
usemtl rear
f 79/79/79 80/80/80 81/81/81
v 0.40941333 0.60447062 0.17847248
v 0.73058367 0.63106380 0.09662710
v 0.56999850 0.34390721 0.04856728
vt 0.50000000 0.50000000
vt 0.97500000 0.50000000
vt 0.73750000 0.08863793
vn -0.25881905 0.29848750 -0.91865005
vn -0.25881905 0.29848750 -0.91865005
vn -0.25881905 0.29848750 -0.91865005
usemtl rear
f 82/82/82 83/83/83 84/84/84
v 0.40941333 0.60447062 0.17847248
v 0.56999850 0.34390721 0.04856728
v 0.24882817 0.31731403 0.13041267
vt 0.50000000 0.50000000
vt 0.73750000 0.08863793
vt 0.26250000 0.08863793
vn -0.25881905 0.29848750 -0.91865005
vn -0.25881905 0.29848750 -0.91865005
vn -0.25881905 0.29848750 -0.91865005
usemtl rear
f 85/85/85 86/86/86 87/87/87
v 0.40941333 0.60447062 0.17847248
v 0.24882817 0.31731403 0.13041267
v 0.08824300 0.57787745 0.26031787
vt 0.50000000 0.50000000
vt 0.26250000 0.08863793
vt 0.02500000 0.50000000
vn -0.25881905 0.29848750 -0.91865005
vn -0.25881905 0.29848750 -0.91865005
vn -0.25881905 0.29848750 -0.91865005
usemtl rear
f 88/88/88 89/89/89 90/90/90
v 0.32646632 0.37365999 0.88883458
v 0.45852649 0.60980850 0.92835745
v 0.42788853 0.65952126 0.95314200
v 0.26519040 0.36858629 0.90444982
vt 0.10937500 0.50000000
vt 0.30468750 0.83829117
vt 0.25937500 0.91677473
vt 0.01875000 0.50000000
vn 0.25881905 -0.29848750 0.91865005
vn 0.25881905 -0.29848750 0.91865005
vn 0.25881905 -0.29848750 0.91865005
vn 0.25881905 -0.29848750 0.91865005
usemtl trim
f 91/91/91 92/92/92 93/93/93 94/94/94
v 0.45852649 0.60980850 0.92835745
v 0.72264684 0.63167789 0.86105039
v 0.75328480 0.68646435 0.87021970
v 0.42788853 0.65952126 0.95314200
vt 0.30468750 0.83829117
vt 0.69531250 0.83829117
vt 0.74062500 0.91677473
vt 0.25937500 0.91677473
vn 0.25881905 -0.29848750 0.91865005
vn 0.25881905 -0.29848750 0.91865005
vn 0.25881905 -0.29848750 0.91865005
vn 0.25881905 -0.29848750 0.91865005
usemtl trim
f 95/95/95 96/96/96 97/97/97 98/98/98
v 0.72264684 0.63167789 0.86105039
v 0.85470701 0.41739877 0.75422046
v 0.91598293 0.42247247 0.73860522
v 0.75328480 0.68646435 0.87021970
vt 0.69531250 0.83829117
vt 0.89062500 0.50000000
vt 0.98125000 0.50000000
vt 0.74062500 0.91677473
vn 0.25881905 -0.29848750 0.91865005
vn 0.25881905 -0.29848750 0.91865005
vn 0.25881905 -0.29848750 0.91865005
vn 0.25881905 -0.29848750 0.91865005
usemtl trim
f 99/99/99 100/100/100 101/101/101 102/102/102
v 0.85470701 0.41739877 0.75422046
v 0.72264684 0.18125026 0.71469758
v 0.75328480 0.13153749 0.68991304
v 0.91598293 0.42247247 0.73860522
vt 0.89062500 0.50000000
vt 0.69531250 0.16170883
vt 0.74062500 0.08322527
vt 0.98125000 0.50000000
vn 0.25881905 -0.29848750 0.91865005
vn 0.25881905 -0.29848750 0.91865005
vn 0.25881905 -0.29848750 0.91865005
vn 0.25881905 -0.29848750 0.91865005
usemtl trim
f 103/103/103 104/104/104 105/105/105 106/106/106
v 0.72264684 0.18125026 0.71469758
v 0.45852649 0.15938087 0.78200464
v 0.42788853 0.10459441 0.77283534
v 0.75328480 0.13153749 0.68991304
vt 0.69531250 0.16170883
vt 0.30468750 0.16170883
vt 0.25937500 0.08322527
vt 0.74062500 0.08322527
vn 0.25881905 -0.29848750 0.91865005
vn 0.25881905 -0.29848750 0.91865005
vn 0.25881905 -0.29848750 0.91865005
vn 0.25881905 -0.29848750 0.91865005
usemtl trim
f 107/107/107 108/108/108 109/109/109 110/110/110
v 0.45852649 0.15938087 0.78200464
v 0.32646632 0.37365999 0.88883458
v 0.26519040 0.36858629 0.90444982
v 0.42788853 0.10459441 0.77283534
vt 0.30468750 0.16170883
vt 0.10937500 0.50000000
vt 0.01875000 0.50000000
vt 0.25937500 0.08322527
vn 0.25881905 -0.29848750 0.91865005
vn 0.25881905 -0.29848750 0.91865005
vn 0.25881905 -0.29848750 0.91865005
vn 0.25881905 -0.29848750 0.91865005
usemtl trim
f 111/111/111 112/112/112 113/113/113 114/114/114
v 0.29249632 0.41283647 0.76826176
v 0.42455649 0.64898498 0.80778463
v 0.45852649 0.60980850 0.92835745
v 0.32646632 0.37365999 0.88883458
vt 0.00000000 1.00000000
vt 1.00000000 1.00000000
vt 1.00000000 0.00000000
vt 0.00000000 0.00000000
vn 0.83651630 -0.40626399 -0.36768198
vn 0.83651630 -0.40626399 -0.36768198
vn 0.83651630 -0.40626399 -0.36768198
vn 0.83651630 -0.40626399 -0.36768198
usemtl cavity
f 115/115/115 116/116/116 117/117/117 118/118/118
v 0.42455649 0.64898498 0.80778463
v 0.68867684 0.67085437 0.74047757
v 0.72264684 0.63167789 0.86105039
v 0.45852649 0.60980850 0.92835745
vt 0.00000000 1.00000000
vt 1.00000000 1.00000000
vt 1.00000000 0.00000000
vt 0.00000000 0.00000000
vn 0.00000000 -0.95105652 -0.30901699
vn 0.00000000 -0.95105652 -0.30901699
vn 0.00000000 -0.95105652 -0.30901699
vn 0.00000000 -0.95105652 -0.30901699
usemtl cavity
f 119/119/119 120/120/120 121/121/121 122/122/122
v 0.68867684 0.67085437 0.74047757
v 0.82073701 0.45657525 0.63364764
v 0.85470701 0.41739877 0.75422046
v 0.72264684 0.63167789 0.86105039
vt 0.00000000 1.00000000
vt 1.00000000 1.00000000
vt 1.00000000 0.00000000
vt 0.00000000 0.00000000
vn -0.83651630 -0.54479252 0.05866499
vn -0.83651630 -0.54479252 0.05866499
vn -0.83651630 -0.54479252 0.05866499
vn -0.83651630 -0.54479252 0.05866499
usemtl cavity
f 123/123/123 124/124/124 125/125/125 126/126/126
v 0.82073701 0.45657525 0.63364764
v 0.68867684 0.22042674 0.59412476
v 0.72264684 0.18125026 0.71469758
v 0.85470701 0.41739877 0.75422046
vt 0.00000000 1.00000000
vt 1.00000000 1.00000000
vt 1.00000000 0.00000000
vt 0.00000000 0.00000000
vn -0.83651630 0.40626399 0.36768198
vn -0.83651630 0.40626399 0.36768198
vn -0.83651630 0.40626399 0.36768198
vn -0.83651630 0.40626399 0.36768198
usemtl cavity
f 127/127/127 128/128/128 129/129/129 130/130/130
v 0.68867684 0.22042674 0.59412476
v 0.42455649 0.19855735 0.66143183
v 0.45852649 0.15938087 0.78200464
v 0.72264684 0.18125026 0.71469758
vt 0.00000000 1.00000000
vt 1.00000000 1.00000000
vt 1.00000000 0.00000000
vt 0.00000000 0.00000000
vn 0.00000000 0.95105652 0.30901699
vn 0.00000000 0.95105652 0.30901699
vn 0.00000000 0.95105652 0.30901699
vn 0.00000000 0.95105652 0.30901699
usemtl cavity
f 131/131/131 132/132/132 133/133/133 134/134/134
v 0.42455649 0.19855735 0.66143183
v 0.29249632 0.41283647 0.76826176
v 0.32646632 0.37365999 0.88883458
v 0.45852649 0.15938087 0.78200464
vt 0.00000000 1.00000000
vt 1.00000000 1.00000000
vt 1.00000000 0.00000000
vt 0.00000000 0.00000000
vn 0.83651630 0.54479252 -0.05866499
vn 0.83651630 0.54479252 -0.05866499
vn 0.83651630 0.54479252 -0.05866499
vn 0.83651630 0.54479252 -0.05866499
usemtl cavity
f 135/135/135 136/136/136 137/137/137 138/138/138
v 0.36758235 0.41765402 0.75343488
v 0.46266568 0.58768094 0.78189135
v 0.42568883 0.64767910 0.81180373
v 0.29362866 0.41153059 0.77228085
vt 0.21875000 0.50000000
vt 0.35937500 0.74356964
vt 0.30468750 0.83829117
vt 0.10937500 0.50000000
vn 0.25881905 -0.29848750 0.91865005
vn 0.25881905 -0.29848750 0.91865005
vn 0.25881905 -0.29848750 0.91865005
vn 0.25881905 -0.29848750 0.91865005
usemtl dark_trim
f 139/139/139 140/140/140 141/141/141 142/142/142
v 0.46266568 0.58768094 0.78189135
v 0.65283232 0.60342690 0.73343026
v 0.68980917 0.66954849 0.74449667
v 0.42568883 0.64767910 0.81180373
vt 0.35937500 0.74356964
vt 0.64062500 0.74356964
vt 0.69531250 0.83829117
vt 0.30468750 0.83829117
vn 0.25881905 -0.29848750 0.91865005
vn 0.25881905 -0.29848750 0.91865005
vn 0.25881905 -0.29848750 0.91865005
vn 0.25881905 -0.29848750 0.91865005
usemtl dark_trim
f 143/143/143 144/144/144 145/145/145 146/146/146
v 0.65283232 0.60342690 0.73343026
v 0.74791565 0.44914594 0.65651271
v 0.82186934 0.45526937 0.63766673
v 0.68980917 0.66954849 0.74449667
vt 0.64062500 0.74356964
vt 0.78125000 0.50000000
vt 0.89062500 0.50000000
vt 0.69531250 0.83829117
vn 0.25881905 -0.29848750 0.91865005
vn 0.25881905 -0.29848750 0.91865005
vn 0.25881905 -0.29848750 0.91865005
vn 0.25881905 -0.29848750 0.91865005
usemtl dark_trim
f 147/147/147 148/148/148 149/149/149 150/150/150
v 0.74791565 0.44914594 0.65651271
v 0.65283232 0.27911901 0.62805624
v 0.68980917 0.21912086 0.59814386
v 0.82186934 0.45526937 0.63766673
vt 0.78125000 0.50000000
vt 0.64062500 0.25643036
vt 0.69531250 0.16170883
vt 0.89062500 0.50000000
vn 0.25881905 -0.29848750 0.91865005
vn 0.25881905 -0.29848750 0.91865005
vn 0.25881905 -0.29848750 0.91865005
vn 0.25881905 -0.29848750 0.91865005
usemtl dark_trim
f 151/151/151 152/152/152 153/153/153 154/154/154
v 0.65283232 0.27911901 0.62805624
v 0.46266568 0.26337305 0.67651732
v 0.42568883 0.19725147 0.66545092
v 0.68980917 0.21912086 0.59814386
vt 0.64062500 0.25643036
vt 0.35937500 0.25643036
vt 0.30468750 0.16170883
vt 0.69531250 0.16170883
vn 0.25881905 -0.29848750 0.91865005
vn 0.25881905 -0.29848750 0.91865005
vn 0.25881905 -0.29848750 0.91865005
vn 0.25881905 -0.29848750 0.91865005
usemtl dark_trim
f 155/155/155 156/156/156 157/157/157 158/158/158
v 0.46266568 0.26337305 0.67651732
v 0.36758235 0.41765402 0.75343488
v 0.29362866 0.41153059 0.77228085
v 0.42568883 0.19725147 0.66545092
vt 0.35937500 0.25643036
vt 0.21875000 0.50000000
vt 0.10937500 0.50000000
vt 0.30468750 0.16170883
vn 0.25881905 -0.29848750 0.91865005
vn 0.25881905 -0.29848750 0.91865005
vn 0.25881905 -0.29848750 0.91865005
vn 0.25881905 -0.29848750 0.91865005
usemtl dark_trim
f 159/159/159 160/160/160 161/161/161 162/162/162
v 0.38040094 0.45510607 0.63816930
v 0.45435464 0.58734924 0.66030211
v 0.46266568 0.58768094 0.78189135
v 0.36758235 0.41765402 0.75343488
vt 0.00000000 1.00000000
vt 1.00000000 1.00000000
vt 1.00000000 0.00000000
vt 0.00000000 0.00000000
vn 0.87543901 -0.47977155 -0.05853038
vn 0.87543901 -0.47977155 -0.05853038
vn 0.87543901 -0.47977155 -0.05853038
vn 0.87543901 -0.47977155 -0.05853038
usemtl cavity
f 163/163/163 164/164/164 165/165/165 166/166/166
v 0.45435464 0.58734924 0.66030211
v 0.60226203 0.59959610 0.62261016
v 0.65283232 0.60342690 0.73343026
v 0.46266568 0.58768094 0.78189135
vt 0.00000000 1.00000000
vt 1.00000000 1.00000000
vt 1.00000000 0.00000000
vt 0.00000000 0.00000000
vn 0.08179126 -0.99664534 -0.00287177
vn 0.08179126 -0.99664534 -0.00287177
vn 0.08179126 -0.99664534 -0.00287177
vn 0.08179126 -0.99664534 -0.00287177
usemtl cavity
f 167/167/167 168/168/168 169/169/169 170/170/170
v 0.60226203 0.59959610 0.62261016
v 0.67621573 0.47959979 0.56278539
v 0.74791565 0.44914594 0.65651271
v 0.65283232 0.60342690 0.73343026
vt 0.00000000 1.00000000
vt 1.00000000 1.00000000
vt 1.00000000 0.00000000
vt 0.00000000 0.00000000
vn -0.71185649 -0.61120097 0.34596779
vn -0.71185649 -0.61120097 0.34596779
vn -0.71185649 -0.61120097 0.34596779
vn -0.71185649 -0.61120097 0.34596779
usemtl cavity
f 171/171/171 172/172/172 173/173/173 174/174/174
v 0.67621573 0.47959979 0.56278539
v 0.60226203 0.34735662 0.54065258
v 0.65283232 0.27911901 0.62805624
v 0.74791565 0.44914594 0.65651271
vt 0.00000000 1.00000000
vt 1.00000000 1.00000000
vt 1.00000000 0.00000000
vt 0.00000000 0.00000000
vn -0.71185649 0.29111721 0.63914874
vn -0.71185649 0.29111721 0.63914874
vn -0.71185649 0.29111721 0.63914874
vn -0.71185649 0.29111721 0.63914874
usemtl cavity
f 175/175/175 176/176/176 177/177/177 178/178/178
v 0.60226203 0.34735662 0.54065258
v 0.45435464 0.33510976 0.57834454
v 0.46266568 0.26337305 0.67651732
v 0.65283232 0.27911901 0.62805624
vt 0.00000000 1.00000000
vt 1.00000000 1.00000000
vt 1.00000000 0.00000000
vt 0.00000000 0.00000000
vn 0.08179126 0.80799100 0.58349013
vn 0.08179126 0.80799100 0.58349013
vn 0.08179126 0.80799100 0.58349013
vn 0.08179126 0.80799100 0.58349013
usemtl cavity
f 179/179/179 180/180/180 181/181/181 182/182/182
v 0.45435464 0.33510976 0.57834454
v 0.38040094 0.45510607 0.63816930
v 0.36758235 0.41765402 0.75343488
v 0.46266568 0.26337305 0.67651732
vt 0.00000000 1.00000000
vt 1.00000000 1.00000000
vt 1.00000000 0.00000000
vt 0.00000000 0.00000000
vn 0.87543901 0.42254663 0.23465057
vn 0.87543901 0.42254663 0.23465057
vn 0.87543901 0.42254663 0.23465057
vn 0.87543901 0.42254663 0.23465057
usemtl cavity
f 183/183/183 184/184/184 185/185/185 186/186/186
v 0.45435464 0.58734924 0.66030211
v 0.38040094 0.45510607 0.63816930
v 0.52830833 0.46735293 0.60047735
vt 0.41796875 0.93059019
vt 0.33593750 0.91875000
vt 0.50000000 0.91875000
vn 0.25881905 -0.29848750 0.91865005
vn 0.25881905 -0.29848750 0.91865005
vn 0.25881905 -0.29848750 0.91865005
usemtl rocket_on
f 187/187/187 188/188/188 189/189/189
v 0.60226203 0.59959610 0.62261016
v 0.45435464 0.58734924 0.66030211
v 0.52830833 0.46735293 0.60047735
vt 0.58203125 0.93059019
vt 0.41796875 0.93059019
vt 0.50000000 0.91875000
vn 0.25881905 -0.29848750 0.91865005
vn 0.25881905 -0.29848750 0.91865005
vn 0.25881905 -0.29848750 0.91865005
usemtl rocket_on
f 190/190/190 191/191/191 192/192/192
v 0.67621573 0.47959979 0.56278539
v 0.60226203 0.59959610 0.62261016
v 0.52830833 0.46735293 0.60047735
vt 0.66406250 0.91875000
vt 0.58203125 0.93059019
vt 0.50000000 0.91875000
vn 0.25881905 -0.29848750 0.91865005
vn 0.25881905 -0.29848750 0.91865005
vn 0.25881905 -0.29848750 0.91865005
usemtl rocket_on
f 193/193/193 194/194/194 195/195/195
v 0.60226203 0.34735662 0.54065258
v 0.67621573 0.47959979 0.56278539
v 0.52830833 0.46735293 0.60047735
vt 0.58203125 0.90690981
vt 0.66406250 0.91875000
vt 0.50000000 0.91875000
vn 0.25881905 -0.29848750 0.91865005
vn 0.25881905 -0.29848750 0.91865005
vn 0.25881905 -0.29848750 0.91865005
usemtl rocket_on
f 196/196/196 197/197/197 198/198/198
v 0.45435464 0.33510976 0.57834454
v 0.60226203 0.34735662 0.54065258
v 0.52830833 0.46735293 0.60047735
vt 0.41796875 0.90690981
vt 0.58203125 0.90690981
vt 0.50000000 0.91875000
vn 0.25881905 -0.29848750 0.91865005
vn 0.25881905 -0.29848750 0.91865005
vn 0.25881905 -0.29848750 0.91865005
usemtl rocket_on
f 199/199/199 200/200/200 201/201/201
v 0.38040094 0.45510607 0.63816930
v 0.45435464 0.33510976 0.57834454
v 0.52830833 0.46735293 0.60047735
vt 0.33593750 0.91875000
vt 0.41796875 0.90690981
vt 0.50000000 0.91875000
vn 0.25881905 -0.29848750 0.91865005
vn 0.25881905 -0.29848750 0.91865005
vn 0.25881905 -0.29848750 0.91865005
usemtl rocket_on
f 202/202/202 203/203/203 204/204/204
