mtllib rocket_thruster_wedge_top_left_on.mtl
o thruster
v 0.92413137 0.76161551 0.82745405
v 0.24798329 0.70562987 0.99976013
v 0.25251263 0.70040634 1.01583650
v 0.92866070 0.75639198 0.84353043
vt 0.00000000 0.00000000
vt 1.00000000 0.00000000
vt 1.00000000 1.00000000
vt 0.00000000 1.00000000
vn -0.00000000 0.95105652 0.30901699
vn -0.00000000 0.95105652 0.30901699
vn -0.00000000 0.95105652 0.30901699
vn -0.00000000 0.95105652 0.30901699
usemtl trim
f 1/1/1 2/2/2 3/3/3 4/4/4
v 0.24798329 0.70562987 0.99976013
v 0.24798329 0.66402115 0.98624064
v 0.25251263 0.65879762 1.00231701
v 0.25251263 0.70040634 1.01583650
vt 0.00000000 0.00000000
vt 1.00000000 0.00000000
vt 1.00000000 1.00000000
vt 0.00000000 1.00000000
vn -0.96592583 -0.07997948 0.24615154
vn -0.96592583 -0.07997948 0.24615154
vn -0.96592583 -0.07997948 0.24615154
vn -0.96592583 -0.07997948 0.24615154
usemtl trim
f 5/5/5 6/6/6 7/7/7 8/8/8
v 0.24798329 0.66402115 0.98624064
v 0.88187212 0.09237684 0.62191129
v 0.88640145 0.08715331 0.63798766
v 0.25251263 0.65879762 1.00231701
vt 0.00000000 0.00000000
vt 1.00000000 0.00000000
vt 1.00000000 1.00000000
vt 0.00000000 1.00000000
vn -0.68301270 -0.72905255 -0.04445259
vn -0.68301270 -0.72905255 -0.04445259
vn -0.68301270 -0.72905255 -0.04445259
vn -0.68301270 -0.72905255 -0.04445259
usemtl trim
f 9/9/9 10/10/10 11/11/11 12/12/12
v 0.88187212 0.09237684 0.62191129
v 0.92413137 0.09587595 0.61114216
v 0.92866070 0.09065242 0.62721853
v 0.88640145 0.08715331 0.63798766
vt 0.00000000 0.00000000
vt 1.00000000 0.00000000
vt 1.00000000 1.00000000
vt 0.00000000 1.00000000
vn -0.00000000 -0.95105652 -0.30901699
vn -0.00000000 -0.95105652 -0.30901699
vn -0.00000000 -0.95105652 -0.30901699
vn -0.00000000 -0.95105652 -0.30901699
usemtl trim
f 13/13/13 14/14/14 15/15/15 16/16/16
v 0.92413137 0.09587595 0.61114216
v 0.92413137 0.76161551 0.82745405
v 0.92866070 0.75639198 0.84353043
v 0.92866070 0.09065242 0.62721853
vt 0.00000000 0.00000000
vt 1.00000000 0.00000000
vt 1.00000000 1.00000000
vt 0.00000000 1.00000000
vn 0.96592583 0.07997948 -0.24615154
vn 0.96592583 0.07997948 -0.24615154
vn 0.96592583 0.07997948 -0.24615154
vn 0.96592583 0.07997948 -0.24615154
usemtl trim
f 17/17/17 18/18/18 19/19/19 20/20/20
v 0.75428137 0.95749793 0.22458996
v 0.07813329 0.90151229 0.39689603
v 0.24798329 0.70562987 0.99976013
v 0.92413137 0.76161551 0.82745405
vt 0.00000000 0.00000000
vt 1.00000000 0.00000000
vt 1.00000000 1.00000000
vt 0.00000000 1.00000000
vn -0.00000000 0.95105652 0.30901699
vn -0.00000000 0.95105652 0.30901699
vn -0.00000000 0.95105652 0.30901699
vn -0.00000000 0.95105652 0.30901699
usemtl side
f 21/21/21 22/22/22 23/23/23 24/24/24
v 0.07813329 0.90151229 0.39689603
v 0.07813329 0.85990357 0.38337654
v 0.24798329 0.66402115 0.98624064
v 0.24798329 0.70562987 0.99976013
vt 0.00000000 0.00000000
vt 1.00000000 0.00000000
vt 1.00000000 1.00000000
vt 0.00000000 1.00000000
vn -0.96592583 -0.07997948 0.24615154
vn -0.96592583 -0.07997948 0.24615154
vn -0.96592583 -0.07997948 0.24615154
vn -0.96592583 -0.07997948 0.24615154
usemtl side
f 25/25/25 26/26/26 27/27/27 28/28/28
v 0.07813329 0.85990357 0.38337654
v 0.71202212 0.28825926 0.01904719
v 0.88187212 0.09237684 0.62191129
v 0.24798329 0.66402115 0.98624064
vt 0.00000000 0.00000000
vt 1.00000000 0.00000000
vt 1.00000000 1.00000000
vt 0.00000000 1.00000000
vn -0.68301270 -0.72905255 -0.04445259
vn -0.68301270 -0.72905255 -0.04445259
vn -0.68301270 -0.72905255 -0.04445259
vn -0.68301270 -0.72905255 -0.04445259
usemtl side
f 29/29/29 30/30/30 31/31/31 32/32/32
v 0.71202212 0.28825926 0.01904719
v 0.75428137 0.29175837 0.00827806
v 0.92413137 0.09587595 0.61114216
v 0.88187212 0.09237684 0.62191129
vt 0.00000000 0.00000000
vt 1.00000000 0.00000000
vt 1.00000000 1.00000000
vt 0.00000000 1.00000000
vn -0.00000000 -0.95105652 -0.30901699
vn -0.00000000 -0.95105652 -0.30901699
vn -0.00000000 -0.95105652 -0.30901699
vn -0.00000000 -0.95105652 -0.30901699
usemtl side
f 33/33/33 34/34/34 35/35/35 36/36/36
v 0.75428137 0.29175837 0.00827806
v 0.75428137 0.95749793 0.22458996
v 0.92413137 0.76161551 0.82745405
v 0.92413137 0.09587595 0.61114216
vt 0.00000000 0.00000000
vt 1.00000000 0.00000000
vt 1.00000000 1.00000000
vt 0.00000000 1.00000000
vn 0.96592583 0.07997948 -0.24615154
vn 0.96592583 0.07997948 -0.24615154
vn 0.96592583 0.07997948 -0.24615154
vn 0.96592583 0.07997948 -0.24615154
usemtl side
f 37/37/37 38/38/38 39/39/39 40/40/40
v 0.73541330 0.95244528 0.19968957
v 0.10880202 0.90056133 0.35937195
v 0.07813329 0.90151229 0.39689603
v 0.75428137 0.95749793 0.22458996
vt 0.00000000 0.00000000
vt 1.00000000 0.00000000
vt 1.00000000 1.00000000
vt 0.00000000 1.00000000
vn -0.11127500 0.98700118 -0.11595926
vn -0.11127500 0.98700118 -0.11595926
vn -0.11127500 0.98700118 -0.11595926
vn -0.11127500 0.98700118 -0.11595926
usemtl dark_trim
f 41/41/41 42/42/42 43/43/43 44/44/44
v 0.10880202 0.90056133 0.35937195
v 0.10880202 0.86085471 0.34647049
v 0.07813329 0.85990357 0.38337654
v 0.07813329 0.90151229 0.39689603
vt 0.00000000 0.00000000
vt 1.00000000 0.00000000
vt 1.00000000 1.00000000
vt 0.00000000 1.00000000
vn -0.75575012 0.20236290 -0.62280896
vn -0.75575012 0.20236290 -0.62280896
vn -0.75575012 0.20236290 -0.62280896
vn -0.75575012 0.20236290 -0.62280896
usemtl dark_trim
f 45/45/45 46/46/46 47/47/47 48/48/48
v 0.10880202 0.86085471 0.34647049
v 0.69508590 0.33214081 0.00950221
v 0.71202212 0.28825926 0.01904719
v 0.07813329 0.85990357 0.38337654
vt 0.00000000 0.00000000
vt 1.00000000 0.00000000
vt 1.00000000 1.00000000
vt 0.00000000 1.00000000
vn -0.70014549 -0.39901520 -0.59210063
vn -0.70014549 -0.39901520 -0.59210063
vn -0.70014549 -0.39901520 -0.59210063
vn -0.70014549 -0.39901520 -0.59210063
usemtl dark_trim
f 49/49/49 50/50/50 51/51/51 52/52/52
v 0.69508590 0.33214081 0.00950221
v 0.73541330 0.33547995 -0.00077461
v 0.75428137 0.29175837 0.00827806
v 0.71202212 0.28825926 0.01904719
vt 0.00000000 0.00000000
vt 1.00000000 0.00000000
vt 1.00000000 1.00000000
vt 0.00000000 1.00000000
vn -0.21434068 -0.28588301 -0.93398553
vn -0.21434068 -0.28588301 -0.93398553
vn -0.21434068 -0.28588301 -0.93398553
vn -0.21434068 -0.28588301 -0.93398553
usemtl dark_trim
f 53/53/53 54/54/54 55/55/55 56/56/56
v 0.73541330 0.33547995 -0.00077461
v 0.73541330 0.95244528 0.19968957
v 0.75428137 0.95749793 0.22458996
v 0.75428137 0.29175837 0.00827806
vt 0.00000000 0.00000000
vt 1.00000000 0.00000000
vt 1.00000000 1.00000000
vt 0.00000000 1.00000000
vn 0.76082130 0.20054012 -0.61719901
vn 0.76082130 0.20054012 -0.61719901
vn 0.76082130 0.20054012 -0.61719901
vn 0.76082130 0.20054012 -0.61719901
usemtl dark_trim
f 57/57/57 58/58/58 59/59/59 60/60/60
v 0.10880202 0.90056133 0.35937195
v 0.73541330 0.95244528 0.19968957
v 0.47670331 0.67629641 0.18285192
vt 0.05540610 0.01785714
vt 0.98214286 0.01785714
vt 0.59951958 0.40048042
vn -0.25881905 0.29848750 -0.91865005
vn -0.25881905 0.29848750 -0.91865005
vn -0.25881905 0.29848750 -0.91865005
usemtl rear
f 61/61/61 62/62/62 63/63/63
v 0.10880202 0.86085471 0.34647049
v 0.10880202 0.90056133 0.35937195
v 0.47670331 0.67629641 0.18285192
vt 0.05540610 0.07750000
vt 0.05540610 0.01785714
vt 0.59951958 0.40048042
vn -0.25881905 0.29848750 -0.91865005
vn -0.25881905 0.29848750 -0.91865005
vn -0.25881905 0.29848750 -0.91865005
usemtl rear
f 64/64/64 65/65/65 66/66/66
v 0.69508590 0.33214081 0.00950221
v 0.10880202 0.86085471 0.34647049
v 0.47670331 0.67629641 0.18285192
vt 0.92250000 0.94459390
vt 0.05540610 0.07750000
vt 0.59951958 0.40048042
vn -0.25881905 0.29848750 -0.91865005
vn -0.25881905 0.29848750 -0.91865005
vn -0.25881905 0.29848750 -0.91865005
usemtl rear
f 67/67/67 68/68/68 69/69/69
v 0.73541330 0.33547995 -0.00077461
v 0.69508590 0.33214081 0.00950221
v 0.47670331 0.67629641 0.18285192
vt 0.98214286 0.94459390
vt 0.92250000 0.94459390
vt 0.59951958 0.40048042
vn -0.25881905 0.29848750 -0.91865005
vn -0.25881905 0.29848750 -0.91865005
vn -0.25881905 0.29848750 -0.91865005
usemtl rear
f 70/70/70 71/71/71 72/72/72
v 0.73541330 0.95244528 0.19968957
v 0.73541330 0.33547995 -0.00077461
v 0.47670331 0.67629641 0.18285192
vt 0.98214286 0.01785714
vt 0.98214286 0.94459390
vt 0.59951958 0.40048042
vn -0.25881905 0.29848750 -0.91865005
vn -0.25881905 0.29848750 -0.91865005
vn -0.25881905 0.29848750 -0.91865005
usemtl rear
f 73/73/73 74/74/74 75/75/75
v 0.92866070 0.75639198 0.84353043
v 0.25251263 0.70040634 1.01583650
v 0.41641207 0.66196645 0.95716985
v 0.87583664 0.70000720 0.84009247
vt 1.00000000 0.00000000
vt 0.00000000 0.00000000
vt 0.24240170 0.07812500
vt 0.92187500 0.07812500
vn 0.25881905 -0.29848750 0.91865005
vn 0.25881905 -0.29848750 0.91865005
vn 0.25881905 -0.29848750 0.91865005
vn 0.25881905 -0.29848750 0.91865005
usemtl trim
f 76/76/76 77/77/77 78/78/78 79/79/79
v 0.25251263 0.70040634 1.01583650
v 0.25251263 0.65879762 1.00231701
v 0.41641207 0.62867947 0.94635426
v 0.41641207 0.66196645 0.95716985
vt 0.00000000 0.00000000
vt 0.00000000 0.06250000
vt 0.24240170 0.12812500
vt 0.24240170 0.07812500
vn 0.25881905 -0.29848750 0.91865005
vn 0.25881905 -0.29848750 0.91865005
vn 0.25881905 -0.29848750 0.91865005
vn 0.25881905 -0.29848750 0.91865005
usemtl trim
f 80/80/80 81/81/81 82/82/82 83/83/83
v 0.25251263 0.65879762 1.00231701
v 0.88640145 0.08715331 0.63798766
v 0.84202923 0.24485566 0.70172962
v 0.41641207 0.62867947 0.94635426
vt 0.00000000 0.06250000
vt 0.93750000 1.00000000
vt 0.87187500 0.75759830
vt 0.24240170 0.12812500
vn 0.25881905 -0.29848750 0.91865005
vn 0.25881905 -0.29848750 0.91865005
vn 0.25881905 -0.29848750 0.91865005
vn 0.25881905 -0.29848750 0.91865005
usemtl trim
f 84/84/84 85/85/85 86/86/86 87/87/87
v 0.88640145 0.08715331 0.63798766
v 0.92866070 0.09065242 0.62721853
v 0.87583664 0.24765494 0.69311431
v 0.84202923 0.24485566 0.70172962
vt 0.93750000 1.00000000
vt 1.00000000 1.00000000
vt 0.92187500 0.75759830
vt 0.87187500 0.75759830
vn 0.25881905 -0.29848750 0.91865005
vn 0.25881905 -0.29848750 0.91865005
vn 0.25881905 -0.29848750 0.91865005
vn 0.25881905 -0.29848750 0.91865005
usemtl trim
f 88/88/88 89/89/89 90/90/90 91/91/91
v 0.92866070 0.09065242 0.62721853
v 0.92866070 0.75639198 0.84353043
v 0.87583664 0.70000720 0.84009247
v 0.87583664 0.24765494 0.69311431
vt 1.00000000 1.00000000
vt 1.00000000 0.00000000
vt 0.92187500 0.07812500
vt 0.92187500 0.75759830
vn 0.25881905 -0.29848750 0.91865005
vn 0.25881905 -0.29848750 0.91865005
vn 0.25881905 -0.29848750 0.91865005
vn 0.25881905 -0.29848750 0.91865005
usemtl trim
f 92/92/92 93/93/93 94/94/94 95/95/95
v 0.87583664 0.70000720 0.84009247
v 0.41641207 0.66196645 0.95716985
v 0.38244207 0.70114293 0.83659703
v 0.84186664 0.73918368 0.71951965
vt 0.00000000 0.00000000
vt 1.00000000 0.00000000
vt 1.00000000 1.00000000
vt 0.00000000 1.00000000
vn 0.00000000 -0.95105652 -0.30901699
vn 0.00000000 -0.95105652 -0.30901699
vn 0.00000000 -0.95105652 -0.30901699
vn 0.00000000 -0.95105652 -0.30901699
usemtl cavity
f 96/96/96 97/97/97 98/98/98 99/99/99
v 0.41641207 0.66196645 0.95716985
v 0.41641207 0.62867947 0.94635426
v 0.38244207 0.66785595 0.82578144
v 0.38244207 0.70114293 0.83659703
vt 0.00000000 0.00000000
vt 1.00000000 0.00000000
vt 1.00000000 1.00000000
vt 0.00000000 1.00000000
vn 0.96592583 0.07997948 -0.24615154
vn 0.96592583 0.07997948 -0.24615154
vn 0.96592583 0.07997948 -0.24615154
vn 0.96592583 0.07997948 -0.24615154
usemtl cavity
f 100/100/100 101/101/101 102/102/102 103/103/103
v 0.41641207 0.62867947 0.94635426
v 0.84202923 0.24485566 0.70172962
v 0.80805923 0.28403214 0.58115680
v 0.38244207 0.66785595 0.82578144
vt 0.00000000 0.00000000
vt 1.00000000 0.00000000
vt 1.00000000 1.00000000
vt 0.00000000 1.00000000
vn 0.68301270 0.72905255 0.04445259
vn 0.68301270 0.72905255 0.04445259
vn 0.68301270 0.72905255 0.04445259
vn 0.68301270 0.72905255 0.04445259
usemtl cavity
f 104/104/104 105/105/105 106/106/106 107/107/107
v 0.84202923 0.24485566 0.70172962
v 0.87583664 0.24765494 0.69311431
v 0.84186664 0.28683142 0.57254150
v 0.80805923 0.28403214 0.58115680
vt 0.00000000 0.00000000
vt 1.00000000 0.00000000
vt 1.00000000 1.00000000
vt 0.00000000 1.00000000
vn 0.00000000 0.95105652 0.30901699
vn 0.00000000 0.95105652 0.30901699
vn 0.00000000 0.95105652 0.30901699
vn 0.00000000 0.95105652 0.30901699
usemtl cavity
f 108/108/108 109/109/109 110/110/110 111/111/111
v 0.87583664 0.24765494 0.69311431
v 0.87583664 0.70000720 0.84009247
v 0.84186664 0.73918368 0.71951965
v 0.84186664 0.28683142 0.57254150
vt 0.00000000 0.00000000
vt 1.00000000 0.00000000
vt 1.00000000 1.00000000
vt 0.00000000 1.00000000
vn -0.96592583 -0.07997948 0.24615154
vn -0.96592583 -0.07997948 0.24615154
vn -0.96592583 -0.07997948 0.24615154
vn -0.96592583 -0.07997948 0.24615154
usemtl cavity
f 112/112/112 113/113/113 114/114/114 115/115/115
v 0.84299897 0.73787780 0.72353875
v 0.38357440 0.69983705 0.84061613
v 0.46617830 0.66135039 0.80483836
v 0.79696398 0.68873973 0.72054265
vt 0.92187500 0.07812500
vt 0.24240170 0.07812500
vt 0.36457005 0.14620918
vt 0.85379082 0.14620918
vn 0.25881905 -0.29848750 0.91865005
vn 0.25881905 -0.29848750 0.91865005
vn 0.25881905 -0.29848750 0.91865005
vn 0.25881905 -0.29848750 0.91865005
usemtl dark_trim
f 116/116/116 117/117/117 118/118/118 119/119/119
v 0.38357440 0.69983705 0.84061613
v 0.38357440 0.66655007 0.82980053
v 0.46617830 0.63738377 0.79705113
v 0.46617830 0.66135039 0.80483836
vt 0.24240170 0.07812500
vt 0.24240170 0.12812500
vt 0.36457005 0.18220918
vt 0.36457005 0.14620918
vn 0.25881905 -0.29848750 0.91865005
vn 0.25881905 -0.29848750 0.91865005
vn 0.25881905 -0.29848750 0.91865005
vn 0.25881905 -0.29848750 0.91865005
usemtl dark_trim
f 120/120/120 121/121/121 122/122/122 123/123/123
v 0.38357440 0.66655007 0.82980053
v 0.80919157 0.28272626 0.58517589
v 0.77262265 0.36103062 0.62092139
v 0.46617830 0.63738377 0.79705113
vt 0.24240170 0.12812500
vt 0.87187500 0.75759830
vt 0.81779082 0.63542995
vt 0.36457005 0.18220918
vn 0.25881905 -0.29848750 0.91865005
vn 0.25881905 -0.29848750 0.91865005
vn 0.25881905 -0.29848750 0.91865005
vn 0.25881905 -0.29848750 0.91865005
usemtl dark_trim
f 124/124/124 125/125/125 126/126/126 127/127/127
v 0.80919157 0.28272626 0.58517589
v 0.84299897 0.28552554 0.57656059
v 0.79696398 0.36304611 0.61471837
v 0.77262265 0.36103062 0.62092139
vt 0.87187500 0.75759830
vt 0.92187500 0.75759830
vt 0.85379082 0.63542995
vt 0.81779082 0.63542995
vn 0.25881905 -0.29848750 0.91865005
vn 0.25881905 -0.29848750 0.91865005
vn 0.25881905 -0.29848750 0.91865005
vn 0.25881905 -0.29848750 0.91865005
usemtl dark_trim
f 128/128/128 129/129/129 130/130/130 131/131/131
v 0.84299897 0.28552554 0.57656059
v 0.84299897 0.73787780 0.72353875
v 0.79696398 0.68873973 0.72054265
v 0.79696398 0.36304611 0.61471837
vt 0.92187500 0.75759830
vt 0.92187500 0.07812500
vt 0.85379082 0.14620918
vt 0.85379082 0.63542995
vn 0.25881905 -0.29848750 0.91865005
vn 0.25881905 -0.29848750 0.91865005
vn 0.25881905 -0.29848750 0.91865005
vn 0.25881905 -0.29848750 0.91865005
usemtl dark_trim
f 132/132/132 133/133/133 134/134/134 135/135/135
v 0.79696398 0.68873973 0.72054265
v 0.46617830 0.66135039 0.80483836
v 0.48393985 0.67331097 0.67989748
v 0.74121761 0.69461379 0.61433415
vt 0.00000000 0.00000000
vt 1.00000000 0.00000000
vt 1.00000000 1.00000000
vt 0.00000000 1.00000000
vn 0.06026257 -0.99441637 -0.08662847
vn 0.06026257 -0.99441637 -0.08662847
vn 0.06026257 -0.99441637 -0.08662847
vn 0.06026257 -0.99441637 -0.08662847
usemtl cavity
f 136/136/136 137/137/137 138/138/138 139/139/139
v 0.46617830 0.66135039 0.80483836
v 0.46617830 0.63738377 0.79705113
v 0.48393985 0.65467026 0.67384075
v 0.48393985 0.67331097 0.67989748
vt 0.00000000 0.00000000
vt 1.00000000 0.00000000
vt 1.00000000 1.00000000
vt 0.00000000 1.00000000
vn 0.98965513 -0.04433368 0.13644503
vn 0.98965513 -0.04433368 0.13644503
vn 0.98965513 -0.04433368 0.13644503
vn 0.98965513 -0.04433368 0.13644503
usemtl cavity
f 140/140/140 141/141/141 142/142/142 143/143/143
v 0.46617830 0.63738377 0.79705113
v 0.77262265 0.36103062 0.62092139
v 0.72228547 0.43972893 0.53685095
v 0.48393985 0.65467026 0.67384075
vt 0.00000000 0.00000000
vt 1.00000000 0.00000000
vt 1.00000000 1.00000000
vt 0.00000000 1.00000000
vn 0.71663216 0.66900148 0.19716840
vn 0.71663216 0.66900148 0.19716840
vn 0.71663216 0.66900148 0.19716840
vn 0.71663216 0.66900148 0.19716840
usemtl cavity
f 144/144/144 145/145/145 146/146/146 147/147/147
v 0.77262265 0.36103062 0.62092139
v 0.79696398 0.36304611 0.61471837
v 0.74121761 0.44129652 0.53202638
v 0.72228547 0.43972893 0.53685095
vt 0.00000000 0.00000000
vt 1.00000000 0.00000000
vt 1.00000000 1.00000000
vt 0.00000000 1.00000000
vn 0.10216102 0.75601321 0.64653472
vn 0.10216102 0.75601321 0.64653472
vn 0.10216102 0.75601321 0.64653472
vn 0.10216102 0.75601321 0.64653472
usemtl cavity
f 148/148/148 149/149/149 150/150/150 151/151/151
v 0.79696398 0.36304611 0.61471837
v 0.79696398 0.68873973 0.72054265
v 0.74121761 0.69461379 0.61433415
v 0.74121761 0.44129652 0.53202638
vt 0.00000000 0.00000000
vt 1.00000000 0.00000000
vt 1.00000000 1.00000000
vt 0.00000000 1.00000000
vn -0.87911559 -0.14728016 0.45328173
vn -0.87911559 -0.14728016 0.45328173
vn -0.87911559 -0.14728016 0.45328173
vn -0.87911559 -0.14728016 0.45328173
usemtl cavity
f 152/152/152 153/153/153 154/154/154 155/155/155
v 0.63452008 0.58072409 0.60738994
v 0.74121761 0.69461379 0.61433415
v 0.48393985 0.67331097 0.67989748
vt 0.61781267 0.90893228
vt 0.73616419 0.89906965
vt 0.45078540 0.89906965
vn 0.25881905 -0.29848750 0.91865005
vn 0.25881905 -0.29848750 0.91865005
vn 0.25881905 -0.29848750 0.91865005
usemtl rocket_on
f 156/156/156 157/157/157 158/158/158
v 0.63452008 0.58072409 0.60738994
v 0.48393985 0.67331097 0.67989748
v 0.48393985 0.65467026 0.67384075
vt 0.61781267 0.90893228
vt 0.45078540 0.89906965
vt 0.45078540 0.90081965
vn 0.25881905 -0.29848750 0.91865005
vn 0.25881905 -0.29848750 0.91865005
vn 0.25881905 -0.29848750 0.91865005
usemtl rocket_on
f 159/159/159 160/160/160 161/161/161
v 0.63452008 0.58072409 0.60738994
v 0.48393985 0.65467026 0.67384075
v 0.72228547 0.43972893 0.53685095
vt 0.61781267 0.90893228
vt 0.45078540 0.90081965
vt 0.71516419 0.92285122
vn 0.25881905 -0.29848750 0.91865005
vn 0.25881905 -0.29848750 0.91865005
vn 0.25881905 -0.29848750 0.91865005
usemtl rocket_on
f 162/162/162 163/163/163 164/164/164
v 0.63452008 0.58072409 0.60738994
v 0.72228547 0.43972893 0.53685095
v 0.74121761 0.44129652 0.53202638
vt 0.61781267 0.90893228
vt 0.71516419 0.92285122
vt 0.73616419 0.92285122
vn 0.25881905 -0.29848750 0.91865005
vn 0.25881905 -0.29848750 0.91865005
vn 0.25881905 -0.29848750 0.91865005
usemtl rocket_on
f 165/165/165 166/166/166 167/167/167
v 0.63452008 0.58072409 0.60738994
v 0.74121761 0.44129652 0.53202638
v 0.74121761 0.69461379 0.61433415
vt 0.61781267 0.90893228
vt 0.73616419 0.92285122
vt 0.73616419 0.89906965
vn 0.25881905 -0.29848750 0.91865005
vn 0.25881905 -0.29848750 0.91865005
vn 0.25881905 -0.29848750 0.91865005
usemtl rocket_on
f 168/168/168 169/169/169 170/170/170
