# Units: blocks; +X right, +Y up, +Z rear. Front faces -Z.
mtllib pilot_seat.mtl
g floor_plinth_frame
usemtl frame
v 0.0000000 0.0000000 0.0625000
v 0.0000000 0.1250000 0.0625000
v 1.0000000 0.1250000 0.0625000
v 1.0000000 0.0000000 0.0625000
vt 0.0000000 0.0000000
vt 0.0078125 0.0000000
vt 0.0078125 0.0625000
vt 0.0000000 0.0625000
vn 0.0000000 0.0000000 -1.0000000
f 4/4/1 1/1/1 2/2/1
f 2/2/1 3/3/1 4/4/1
g floor_plinth_frame
usemtl frame
v 0.0000000 0.0000000 1.0625000
v 1.0000000 0.0000000 1.0625000
v 1.0000000 0.1250000 1.0625000
v 0.0000000 0.1250000 1.0625000
vt 0.0000000 0.0000000
vt 0.0625000 0.0000000
vt 0.0625000 0.0078125
vt 0.0000000 0.0078125
vn 0.0000000 0.0000000 1.0000000
f 8/8/2 5/5/2 6/6/2
f 6/6/2 7/7/2 8/8/2
g floor_plinth_frame
usemtl frame
v 0.0000000 0.0000000 0.0625000
v 0.0000000 0.0000000 1.0625000
v 0.0000000 0.1250000 1.0625000
v 0.0000000 0.1250000 0.0625000
vt 0.0000000 0.0000000
vt 0.0625000 0.0000000
vt 0.0625000 0.0078125
vt 0.0000000 0.0078125
vn -1.0000000 0.0000000 0.0000000
f 12/12/3 9/9/3 10/10/3
f 10/10/3 11/11/3 12/12/3
g floor_plinth_frame
usemtl frame
v 1.0000000 0.0000000 0.0625000
v 1.0000000 0.1250000 0.0625000
v 1.0000000 0.1250000 1.0625000
v 1.0000000 0.0000000 1.0625000
vt 0.0000000 0.0000000
vt 0.0078125 0.0000000
vt 0.0078125 0.0625000
vt 0.0000000 0.0625000
vn 1.0000000 0.0000000 0.0000000
f 16/16/4 13/13/4 14/14/4
f 14/14/4 15/15/4 16/16/4
g floor_plinth_frame
usemtl frame
v 0.0000000 0.0000000 0.0625000
v 1.0000000 0.0000000 0.0625000
v 1.0000000 0.0000000 1.0625000
v 0.0000000 0.0000000 1.0625000
vt 0.0000000 0.0000000
vt 0.0625000 0.0000000
vt 0.0625000 0.0625000
vt 0.0000000 0.0625000
vn 0.0000000 -1.0000000 0.0000000
f 20/20/5 17/17/5 18/18/5
f 18/18/5 19/19/5 20/20/5
g floor_plinth_frame
usemtl frame
v 0.0000000 0.1250000 0.0625000
v 0.0000000 0.1250000 1.0625000
v 1.0000000 0.1250000 1.0625000
v 1.0000000 0.1250000 0.0625000
vt 0.0000000 0.0000000
vt 0.0625000 0.0000000
vt 0.0625000 0.0625000
vt 0.0000000 0.0625000
vn 0.0000000 1.0000000 0.0000000
f 24/24/6 21/21/6 22/22/6
f 22/22/6 23/23/6 24/24/6
g pedestal_shell
usemtl shell
v 0.3125000 0.1250000 0.3750000
v 0.3125000 0.4375000 0.3750000
v 0.6875000 0.4375000 0.3750000
v 0.6875000 0.1250000 0.3750000
vt 0.0000000 0.0000000
vt 0.0195312 0.0000000
vt 0.0195312 0.0234375
vt 0.0000000 0.0234375
vn 0.0000000 0.0000000 -1.0000000
f 28/28/7 25/25/7 26/26/7
f 26/26/7 27/27/7 28/28/7
g pedestal_shell
usemtl shell
v 0.3125000 0.1250000 0.7500000
v 0.6875000 0.1250000 0.7500000
v 0.6875000 0.4375000 0.7500000
v 0.3125000 0.4375000 0.7500000
vt 0.0000000 0.0000000
vt 0.0234375 0.0000000
vt 0.0234375 0.0195312
vt 0.0000000 0.0195312
vn 0.0000000 0.0000000 1.0000000
f 32/32/8 29/29/8 30/30/8
f 30/30/8 31/31/8 32/32/8
g pedestal_shell
usemtl shell
v 0.3125000 0.1250000 0.3750000
v 0.3125000 0.1250000 0.7500000
v 0.3125000 0.4375000 0.7500000
v 0.3125000 0.4375000 0.3750000
vt 0.0000000 0.0000000
vt 0.0234375 0.0000000
vt 0.0234375 0.0195312
vt 0.0000000 0.0195312
vn -1.0000000 0.0000000 0.0000000
f 36/36/9 33/33/9 34/34/9
f 34/34/9 35/35/9 36/36/9
g pedestal_shell
usemtl shell
v 0.6875000 0.1250000 0.3750000
v 0.6875000 0.4375000 0.3750000
v 0.6875000 0.4375000 0.7500000
v 0.6875000 0.1250000 0.7500000
vt 0.0000000 0.0000000
vt 0.0195312 0.0000000
vt 0.0195312 0.0234375
vt 0.0000000 0.0234375
vn 1.0000000 0.0000000 0.0000000
f 40/40/10 37/37/10 38/38/10
f 38/38/10 39/39/10 40/40/10
g pedestal_shell
usemtl shell
v 0.3125000 0.1250000 0.3750000
v 0.6875000 0.1250000 0.3750000
v 0.6875000 0.1250000 0.7500000
v 0.3125000 0.1250000 0.7500000
vt 0.0000000 0.0000000
vt 0.0234375 0.0000000
vt 0.0234375 0.0234375
vt 0.0000000 0.0234375
vn 0.0000000 -1.0000000 0.0000000
f 44/44/11 41/41/11 42/42/11
f 42/42/11 43/43/11 44/44/11
g pedestal_shell
usemtl shell
v 0.3125000 0.4375000 0.3750000
v 0.3125000 0.4375000 0.7500000
v 0.6875000 0.4375000 0.7500000
v 0.6875000 0.4375000 0.3750000
vt 0.0000000 0.0000000
vt 0.0234375 0.0000000
vt 0.0234375 0.0234375
vt 0.0000000 0.0234375
vn 0.0000000 1.0000000 0.0000000
f 48/48/12 45/45/12 46/46/12
f 46/46/12 47/47/12 48/48/12
g seat_pan_frame
usemtl frame
v -0.0625000 0.4375000 0.0000000
v -0.0625000 0.5625000 0.0000000
v 1.0625000 0.5625000 0.0000000
v 1.0625000 0.4375000 0.0000000
vt 0.0000000 0.0000000
vt 0.0078125 0.0000000
vt 0.0078125 0.0703125
vt 0.0000000 0.0703125
vn 0.0000000 0.0000000 -1.0000000
f 52/52/13 49/49/13 50/50/13
f 50/50/13 51/51/13 52/52/13
g seat_pan_frame
usemtl frame
v -0.0625000 0.4375000 1.0000000
v 1.0625000 0.4375000 1.0000000
v 1.0625000 0.5625000 1.0000000
v -0.0625000 0.5625000 1.0000000
vt 0.0000000 0.0000000
vt 0.0703125 0.0000000
vt 0.0703125 0.0078125
vt 0.0000000 0.0078125
vn 0.0000000 0.0000000 1.0000000
f 56/56/14 53/53/14 54/54/14
f 54/54/14 55/55/14 56/56/14
g seat_pan_frame
usemtl frame
v -0.0625000 0.4375000 0.0000000
v -0.0625000 0.4375000 1.0000000
v -0.0625000 0.5625000 1.0000000
v -0.0625000 0.5625000 0.0000000
vt 0.0000000 0.0000000
vt 0.0625000 0.0000000
vt 0.0625000 0.0078125
vt 0.0000000 0.0078125
vn -1.0000000 0.0000000 0.0000000
f 60/60/15 57/57/15 58/58/15
f 58/58/15 59/59/15 60/60/15
g seat_pan_frame
usemtl frame
v 1.0625000 0.4375000 0.0000000
v 1.0625000 0.5625000 0.0000000
v 1.0625000 0.5625000 1.0000000
v 1.0625000 0.4375000 1.0000000
vt 0.0000000 0.0000000
vt 0.0078125 0.0000000
vt 0.0078125 0.0625000
vt 0.0000000 0.0625000
vn 1.0000000 0.0000000 0.0000000
f 64/64/16 61/61/16 62/62/16
f 62/62/16 63/63/16 64/64/16
g seat_pan_frame
usemtl frame
v -0.0625000 0.4375000 0.0000000
v 1.0625000 0.4375000 0.0000000
v 1.0625000 0.4375000 1.0000000
v -0.0625000 0.4375000 1.0000000
vt 0.0000000 0.0000000
vt 0.0703125 0.0000000
vt 0.0703125 0.0625000
vt 0.0000000 0.0625000
vn 0.0000000 -1.0000000 0.0000000
f 68/68/17 65/65/17 66/66/17
f 66/66/17 67/67/17 68/68/17
g seat_pan_frame
usemtl frame
v -0.0625000 0.5625000 0.0000000
v -0.0625000 0.5625000 1.0000000
v 1.0625000 0.5625000 1.0000000
v 1.0625000 0.5625000 0.0000000
vt 0.0000000 0.0000000
vt 0.0625000 0.0000000
vt 0.0625000 0.0703125
vt 0.0000000 0.0703125
vn 0.0000000 1.0000000 0.0000000
f 72/72/18 69/69/18 70/70/18
f 70/70/18 71/71/18 72/72/18
g seat_cushion_fabric
usemtl fabric
v 0.0625000 0.5625000 0.0625000
v 0.0625000 0.6875000 0.0625000
v 0.9375000 0.6875000 0.0625000
v 0.9375000 0.5625000 0.0625000
vt 0.0000000 0.0000000
vt 0.0078125 0.0000000
vt 0.0078125 0.0546875
vt 0.0000000 0.0546875
vn 0.0000000 0.0000000 -1.0000000
f 76/76/19 73/73/19 74/74/19
f 74/74/19 75/75/19 76/76/19
g seat_cushion_fabric
usemtl fabric
v 0.0625000 0.5625000 0.8125000
v 0.9375000 0.5625000 0.8125000
v 0.9375000 0.6875000 0.8125000
v 0.0625000 0.6875000 0.8125000
vt 0.0000000 0.0000000
vt 0.0546875 0.0000000
vt 0.0546875 0.0078125
vt 0.0000000 0.0078125
vn 0.0000000 0.0000000 1.0000000
f 80/80/20 77/77/20 78/78/20
f 78/78/20 79/79/20 80/80/20
g seat_cushion_fabric
usemtl fabric
v 0.0625000 0.5625000 0.0625000
v 0.0625000 0.5625000 0.8125000
v 0.0625000 0.6875000 0.8125000
v 0.0625000 0.6875000 0.0625000
vt 0.0000000 0.0000000
vt 0.0468750 0.0000000
vt 0.0468750 0.0078125
vt 0.0000000 0.0078125
vn -1.0000000 0.0000000 0.0000000
f 84/84/21 81/81/21 82/82/21
f 82/82/21 83/83/21 84/84/21
g seat_cushion_fabric
usemtl fabric
v 0.9375000 0.5625000 0.0625000
v 0.9375000 0.6875000 0.0625000
v 0.9375000 0.6875000 0.8125000
v 0.9375000 0.5625000 0.8125000
vt 0.0000000 0.0000000
vt 0.0078125 0.0000000
vt 0.0078125 0.0468750
vt 0.0000000 0.0468750
vn 1.0000000 0.0000000 0.0000000
f 88/88/22 85/85/22 86/86/22
f 86/86/22 87/87/22 88/88/22
g seat_cushion_fabric
usemtl fabric
v 0.0625000 0.5625000 0.0625000
v 0.9375000 0.5625000 0.0625000
v 0.9375000 0.5625000 0.8125000
v 0.0625000 0.5625000 0.8125000
vt 0.0000000 0.0000000
vt 0.0546875 0.0000000
vt 0.0546875 0.0468750
vt 0.0000000 0.0468750
vn 0.0000000 -1.0000000 0.0000000
f 92/92/23 89/89/23 90/90/23
f 90/90/23 91/91/23 92/92/23
g seat_cushion_fabric
usemtl fabric
v 0.0625000 0.6875000 0.0625000
v 0.0625000 0.6875000 0.8125000
v 0.9375000 0.6875000 0.8125000
v 0.9375000 0.6875000 0.0625000
vt 0.0000000 0.0000000
vt 0.0468750 0.0000000
vt 0.0468750 0.0546875
vt 0.0000000 0.0546875
vn 0.0000000 1.0000000 0.0000000
f 96/96/24 93/93/24 94/94/24
f 94/94/24 95/95/24 96/96/24
g front_cushion_lip_inset
usemtl inset
v 0.0625000 0.5000000 0.0000000
v 0.0625000 0.5625000 0.0000000
v 0.9375000 0.5625000 0.0000000
v 0.9375000 0.5000000 0.0000000
vt 0.0000000 0.0000000
vt 0.0039062 0.0000000
vt 0.0039062 0.0546875
vt 0.0000000 0.0546875
vn 0.0000000 0.0000000 -1.0000000
f 100/100/25 97/97/25 98/98/25
f 98/98/25 99/99/25 100/100/25
g front_cushion_lip_inset
usemtl inset
v 0.0625000 0.5000000 0.0625000
v 0.9375000 0.5000000 0.0625000
v 0.9375000 0.5625000 0.0625000
v 0.0625000 0.5625000 0.0625000
vt 0.0000000 0.0000000
vt 0.0546875 0.0000000
vt 0.0546875 0.0039062
vt 0.0000000 0.0039062
vn 0.0000000 0.0000000 1.0000000
f 104/104/26 101/101/26 102/102/26
f 102/102/26 103/103/26 104/104/26
g front_cushion_lip_inset
usemtl inset
v 0.0625000 0.5000000 0.0000000
v 0.0625000 0.5000000 0.0625000
v 0.0625000 0.5625000 0.0625000
v 0.0625000 0.5625000 0.0000000
vt 0.0000000 0.0000000
vt 0.0039062 0.0000000
vt 0.0039062 0.0039062
vt 0.0000000 0.0039062
vn -1.0000000 0.0000000 0.0000000
f 108/108/27 105/105/27 106/106/27
f 106/106/27 107/107/27 108/108/27
g front_cushion_lip_inset
usemtl inset
v 0.9375000 0.5000000 0.0000000
v 0.9375000 0.5625000 0.0000000
v 0.9375000 0.5625000 0.0625000
v 0.9375000 0.5000000 0.0625000
vt 0.0000000 0.0000000
vt 0.0039062 0.0000000
vt 0.0039062 0.0039062
vt 0.0000000 0.0039062
vn 1.0000000 0.0000000 0.0000000
f 112/112/28 109/109/28 110/110/28
f 110/110/28 111/111/28 112/112/28
g front_cushion_lip_inset
usemtl inset
v 0.0625000 0.5000000 0.0000000
v 0.9375000 0.5000000 0.0000000
v 0.9375000 0.5000000 0.0625000
v 0.0625000 0.5000000 0.0625000
vt 0.0000000 0.0000000
vt 0.0546875 0.0000000
vt 0.0546875 0.0039062
vt 0.0000000 0.0039062
vn 0.0000000 -1.0000000 0.0000000
f 116/116/29 113/113/29 114/114/29
f 114/114/29 115/115/29 116/116/29
g front_cushion_lip_inset
usemtl inset
v 0.0625000 0.5625000 0.0000000
v 0.0625000 0.5625000 0.0625000
v 0.9375000 0.5625000 0.0625000
v 0.9375000 0.5625000 0.0000000
vt 0.0000000 0.0000000
vt 0.0039062 0.0000000
vt 0.0039062 0.0546875
vt 0.0000000 0.0546875
vn 0.0000000 1.0000000 0.0000000
f 120/120/30 117/117/30 118/118/30
f 118/118/30 119/119/30 120/120/30
g backrest_shell_frame
usemtl frame
v -0.0625000 0.5625000 0.8750000
v -0.0625000 1.7500000 1.0000000
v 1.0625000 1.7500000 1.0000000
v 1.0625000 0.5625000 0.8750000
vt 0.0000000 0.0000000
vt 0.0746288 0.0000000
vt 0.0746288 0.0703125
vt 0.0000000 0.0703125
vn 0.0000000 0.1046848 -0.9945055
f 124/124/31 121/121/31 122/122/31
f 122/122/31 123/123/31 124/124/31
g backrest_shell_frame
usemtl frame
v -0.0625000 0.5625000 1.0000000
v 1.0625000 0.5625000 1.0000000
v 1.0625000 1.7500000 1.1250000
v -0.0625000 1.7500000 1.1250000
vt 0.0000000 0.0000000
vt 0.0703125 0.0000000
vt 0.0703125 0.0746288
vt 0.0000000 0.0746288
vn 0.0000000 -0.1046848 0.9945055
f 128/128/32 125/125/32 126/126/32
f 126/126/32 127/127/32 128/128/32
g backrest_shell_frame
usemtl frame
v -0.0625000 0.5625000 0.8750000
v -0.0625000 0.5625000 1.0000000
v -0.0625000 1.7500000 1.1250000
v -0.0625000 1.7500000 1.0000000
vt 0.0000000 0.0000000
vt 0.0078125 0.0000000
vt 0.0156250 0.0742188
vt 0.0078125 0.0742188
vn -1.0000000 0.0000000 0.0000000
f 132/132/33 129/129/33 130/130/33
f 130/130/33 131/131/33 132/132/33
g backrest_shell_frame
usemtl frame
v 1.0625000 0.5625000 0.8750000
v 1.0625000 1.7500000 1.0000000
v 1.0625000 1.7500000 1.1250000
v 1.0625000 0.5625000 1.0000000
vt 0.0000000 0.0000000
vt 0.0746288 0.0000000
vt 0.0754467 0.0077696
vt 0.0008178 0.0077696
vn 1.0000000 0.0000000 0.0000000
f 136/136/34 133/133/34 134/134/34
f 134/134/34 135/135/34 136/136/34
g backrest_shell_frame
usemtl frame
v -0.0625000 0.5625000 0.8750000
v 1.0625000 0.5625000 0.8750000
v 1.0625000 0.5625000 1.0000000
v -0.0625000 0.5625000 1.0000000
vt 0.0000000 0.0000000
vt 0.0703125 0.0000000
vt 0.0703125 0.0078125
vt 0.0000000 0.0078125
vn 0.0000000 -1.0000000 0.0000000
f 140/140/35 137/137/35 138/138/35
f 138/138/35 139/139/35 140/140/35
g backrest_shell_frame
usemtl frame
v -0.0625000 1.7500000 1.0000000
v -0.0625000 1.7500000 1.1250000
v 1.0625000 1.7500000 1.1250000
v 1.0625000 1.7500000 1.0000000
vt 0.0000000 0.0000000
vt 0.0078125 0.0000000
vt 0.0078125 0.0703125
vt 0.0000000 0.0703125
vn 0.0000000 1.0000000 0.0000000
f 144/144/36 141/141/36 142/142/36
f 142/142/36 143/143/36 144/144/36
g broad_back_cushion_fabric
usemtl fabric
v 0.0625000 0.7500000 0.8125000
v 0.0625000 1.6250000 0.9375000
v 0.9375000 1.6250000 0.9375000
v 0.9375000 0.7500000 0.8125000
vt 0.0000000 0.0000000
vt 0.0552427 0.0000000
vt 0.0552427 0.0546875
vt 0.0000000 0.0546875
vn 0.0000000 0.1414214 -0.9899495
f 148/148/37 145/145/37 146/146/37
f 146/146/37 147/147/37 148/148/37
g broad_back_cushion_fabric
usemtl fabric
v 0.0625000 0.7500000 0.9375000
v 0.9375000 0.7500000 0.9375000
v 0.9375000 1.6250000 1.0625000
v 0.0625000 1.6250000 1.0625000
vt 0.0000000 0.0000000
vt 0.0546875 0.0000000
vt 0.0546875 0.0552427
vt 0.0000000 0.0552427
vn 0.0000000 -0.1414214 0.9899495
f 152/152/38 149/149/38 150/150/38
f 150/150/38 151/151/38 152/152/38
g broad_back_cushion_fabric
usemtl fabric
v 0.0625000 0.7500000 0.8125000
v 0.0625000 0.7500000 0.9375000
v 0.0625000 1.6250000 1.0625000
v 0.0625000 1.6250000 0.9375000
vt 0.0000000 0.0000000
vt 0.0078125 0.0000000
vt 0.0156250 0.0546875
vt 0.0078125 0.0546875
vn -1.0000000 0.0000000 0.0000000
f 156/156/39 153/153/39 154/154/39
f 154/154/39 155/155/39 156/156/39
g broad_back_cushion_fabric
usemtl fabric
v 0.9375000 0.7500000 0.8125000
v 0.9375000 1.6250000 0.9375000
v 0.9375000 1.6250000 1.0625000
v 0.9375000 0.7500000 0.9375000
vt 0.0000000 0.0000000
vt 0.0552427 0.0000000
vt 0.0563476 0.0077340
vt 0.0011049 0.0077340
vn 1.0000000 0.0000000 0.0000000
f 160/160/40 157/157/40 158/158/40
f 158/158/40 159/159/40 160/160/40
g broad_back_cushion_fabric
usemtl fabric
v 0.0625000 0.7500000 0.8125000
v 0.9375000 0.7500000 0.8125000
v 0.9375000 0.7500000 0.9375000
v 0.0625000 0.7500000 0.9375000
vt 0.0000000 0.0000000
vt 0.0546875 0.0000000
vt 0.0546875 0.0078125
vt 0.0000000 0.0078125
vn 0.0000000 -1.0000000 0.0000000
f 164/164/41 161/161/41 162/162/41
f 162/162/41 163/163/41 164/164/41
g broad_back_cushion_fabric
usemtl fabric
v 0.0625000 1.6250000 0.9375000
v 0.0625000 1.6250000 1.0625000
v 0.9375000 1.6250000 1.0625000
v 0.9375000 1.6250000 0.9375000
vt 0.0000000 0.0000000
vt 0.0078125 0.0000000
vt 0.0078125 0.0546875
vt 0.0000000 0.0546875
vn 0.0000000 1.0000000 0.0000000
f 168/168/42 165/165/42 166/166/42
f 166/166/42 167/167/42 168/168/42
g lumbar_cushion_inset
usemtl inset
v 0.0625000 0.6250000 0.7500000
v 0.0625000 0.8125000 0.7500000
v 0.9375000 0.8125000 0.7500000
v 0.9375000 0.6250000 0.7500000
vt 0.0000000 0.0000000
vt 0.0117188 0.0000000
vt 0.0117188 0.0546875
vt 0.0000000 0.0546875
vn 0.0000000 0.0000000 -1.0000000
f 172/172/43 169/169/43 170/170/43
f 170/170/43 171/171/43 172/172/43
g lumbar_cushion_inset
usemtl inset
v 0.0625000 0.6250000 0.8750000
v 0.9375000 0.6250000 0.8750000
v 0.9375000 0.8125000 0.8750000
v 0.0625000 0.8125000 0.8750000
vt 0.0000000 0.0000000
vt 0.0546875 0.0000000
vt 0.0546875 0.0117188
vt 0.0000000 0.0117188
vn 0.0000000 0.0000000 1.0000000
f 176/176/44 173/173/44 174/174/44
f 174/174/44 175/175/44 176/176/44
g lumbar_cushion_inset
usemtl inset
v 0.0625000 0.6250000 0.7500000
v 0.0625000 0.6250000 0.8750000
v 0.0625000 0.8125000 0.8750000
v 0.0625000 0.8125000 0.7500000
vt 0.0000000 0.0000000
vt 0.0078125 0.0000000
vt 0.0078125 0.0117188
vt 0.0000000 0.0117188
vn -1.0000000 0.0000000 0.0000000
f 180/180/45 177/177/45 178/178/45
f 178/178/45 179/179/45 180/180/45
g lumbar_cushion_inset
usemtl inset
v 0.9375000 0.6250000 0.7500000
v 0.9375000 0.8125000 0.7500000
v 0.9375000 0.8125000 0.8750000
v 0.9375000 0.6250000 0.8750000
vt 0.0000000 0.0000000
vt 0.0117188 0.0000000
vt 0.0117188 0.0078125
vt 0.0000000 0.0078125
vn 1.0000000 0.0000000 0.0000000
f 184/184/46 181/181/46 182/182/46
f 182/182/46 183/183/46 184/184/46
g lumbar_cushion_inset
usemtl inset
v 0.0625000 0.6250000 0.7500000
v 0.9375000 0.6250000 0.7500000
v 0.9375000 0.6250000 0.8750000
v 0.0625000 0.6250000 0.8750000
vt 0.0000000 0.0000000
vt 0.0546875 0.0000000
vt 0.0546875 0.0078125
vt 0.0000000 0.0078125
vn 0.0000000 -1.0000000 0.0000000
f 188/188/47 185/185/47 186/186/47
f 186/186/47 187/187/47 188/188/47
g lumbar_cushion_inset
usemtl inset
v 0.0625000 0.8125000 0.7500000
v 0.0625000 0.8125000 0.8750000
v 0.9375000 0.8125000 0.8750000
v 0.9375000 0.8125000 0.7500000
vt 0.0000000 0.0000000
vt 0.0078125 0.0000000
vt 0.0078125 0.0546875
vt 0.0000000 0.0546875
vn 0.0000000 1.0000000 0.0000000
f 192/192/48 189/189/48 190/190/48
f 190/190/48 191/191/48 192/192/48
g armrest_support_frame
usemtl frame
v -0.1250000 0.5625000 0.6875000
v -0.1250000 0.9375000 0.6875000
v 0.0000000 0.9375000 0.6875000
v 0.0000000 0.5625000 0.6875000
vt 0.0000000 0.0000000
vt 0.0234375 0.0000000
vt 0.0234375 0.0078125
vt 0.0000000 0.0078125
vn 0.0000000 0.0000000 -1.0000000
f 196/196/49 193/193/49 194/194/49
f 194/194/49 195/195/49 196/196/49
g armrest_support_frame
usemtl frame
v -0.1250000 0.5625000 0.9375000
v 0.0000000 0.5625000 0.9375000
v 0.0000000 0.9375000 0.9375000
v -0.1250000 0.9375000 0.9375000
vt 0.0000000 0.0000000
vt 0.0078125 0.0000000
vt 0.0078125 0.0234375
vt 0.0000000 0.0234375
vn 0.0000000 0.0000000 1.0000000
f 200/200/50 197/197/50 198/198/50
f 198/198/50 199/199/50 200/200/50
g armrest_support_frame
usemtl frame
v -0.1250000 0.5625000 0.6875000
v -0.1250000 0.5625000 0.9375000
v -0.1250000 0.9375000 0.9375000
v -0.1250000 0.9375000 0.6875000
vt 0.0000000 0.0000000
vt 0.0156250 0.0000000
vt 0.0156250 0.0234375
vt 0.0000000 0.0234375
vn -1.0000000 0.0000000 0.0000000
f 204/204/51 201/201/51 202/202/51
f 202/202/51 203/203/51 204/204/51
g armrest_support_frame
usemtl frame
v 0.0000000 0.5625000 0.6875000
v 0.0000000 0.9375000 0.6875000
v 0.0000000 0.9375000 0.9375000
v 0.0000000 0.5625000 0.9375000
vt 0.0000000 0.0000000
vt 0.0234375 0.0000000
vt 0.0234375 0.0156250
vt 0.0000000 0.0156250
vn 1.0000000 0.0000000 0.0000000
f 208/208/52 205/205/52 206/206/52
f 206/206/52 207/207/52 208/208/52
g armrest_support_frame
usemtl frame
v -0.1250000 0.5625000 0.6875000
v 0.0000000 0.5625000 0.6875000
v 0.0000000 0.5625000 0.9375000
v -0.1250000 0.5625000 0.9375000
vt 0.0000000 0.0000000
vt 0.0078125 0.0000000
vt 0.0078125 0.0156250
vt 0.0000000 0.0156250
vn 0.0000000 -1.0000000 0.0000000
f 212/212/53 209/209/53 210/210/53
f 210/210/53 211/211/53 212/212/53
g armrest_support_frame
usemtl frame
v -0.1250000 0.9375000 0.6875000
v -0.1250000 0.9375000 0.9375000
v 0.0000000 0.9375000 0.9375000
v 0.0000000 0.9375000 0.6875000
vt 0.0000000 0.0000000
vt 0.0156250 0.0000000
vt 0.0156250 0.0078125
vt 0.0000000 0.0078125
vn 0.0000000 1.0000000 0.0000000
f 216/216/54 213/213/54 214/214/54
f 214/214/54 215/215/54 216/216/54
g armrest_frame
usemtl frame
v -0.1250000 0.8750000 0.0625000
v -0.1250000 1.0000000 0.0625000
v 0.0000000 1.0000000 0.0625000
v 0.0000000 0.8750000 0.0625000
vt 0.0000000 0.0000000
vt 0.0078125 0.0000000
vt 0.0078125 0.0078125
vt 0.0000000 0.0078125
vn 0.0000000 0.0000000 -1.0000000
f 220/220/55 217/217/55 218/218/55
f 218/218/55 219/219/55 220/220/55
g armrest_frame
usemtl frame
v -0.1250000 0.8750000 0.9375000
v 0.0000000 0.8750000 0.9375000
v 0.0000000 1.0000000 0.9375000
v -0.1250000 1.0000000 0.9375000
vt 0.0000000 0.0000000
vt 0.0078125 0.0000000
vt 0.0078125 0.0078125
vt 0.0000000 0.0078125
vn 0.0000000 0.0000000 1.0000000
f 224/224/56 221/221/56 222/222/56
f 222/222/56 223/223/56 224/224/56
g armrest_frame
usemtl frame
v -0.1250000 0.8750000 0.0625000
v -0.1250000 0.8750000 0.9375000
v -0.1250000 1.0000000 0.9375000
v -0.1250000 1.0000000 0.0625000
vt 0.0000000 0.0000000
vt 0.0546875 0.0000000
vt 0.0546875 0.0078125
vt 0.0000000 0.0078125
vn -1.0000000 0.0000000 0.0000000
f 228/228/57 225/225/57 226/226/57
f 226/226/57 227/227/57 228/228/57
g armrest_frame
usemtl frame
v 0.0000000 0.8750000 0.0625000
v 0.0000000 1.0000000 0.0625000
v 0.0000000 1.0000000 0.9375000
v 0.0000000 0.8750000 0.9375000
vt 0.0000000 0.0000000
vt 0.0078125 0.0000000
vt 0.0078125 0.0546875
vt 0.0000000 0.0546875
vn 1.0000000 0.0000000 0.0000000
f 232/232/58 229/229/58 230/230/58
f 230/230/58 231/231/58 232/232/58
g armrest_frame
usemtl frame
v -0.1250000 0.8750000 0.0625000
v 0.0000000 0.8750000 0.0625000
v 0.0000000 0.8750000 0.9375000
v -0.1250000 0.8750000 0.9375000
vt 0.0000000 0.0000000
vt 0.0078125 0.0000000
vt 0.0078125 0.0546875
vt 0.0000000 0.0546875
vn 0.0000000 -1.0000000 0.0000000
f 236/236/59 233/233/59 234/234/59
f 234/234/59 235/235/59 236/236/59
g armrest_frame
usemtl frame
v -0.1250000 1.0000000 0.0625000
v -0.1250000 1.0000000 0.9375000
v 0.0000000 1.0000000 0.9375000
v 0.0000000 1.0000000 0.0625000
vt 0.0000000 0.0000000
vt 0.0546875 0.0000000
vt 0.0546875 0.0078125
vt 0.0000000 0.0078125
vn 0.0000000 1.0000000 0.0000000
f 240/240/60 237/237/60 238/238/60
f 238/238/60 239/239/60 240/240/60
g armrest_pad_fabric
usemtl fabric
v -0.1250000 0.9375000 0.1250000
v -0.1250000 1.0000000 0.1250000
v 0.0000000 1.0000000 0.1250000
v 0.0000000 0.9375000 0.1250000
vt 0.0000000 0.0000000
vt 0.0039062 0.0000000
vt 0.0039062 0.0078125
vt 0.0000000 0.0078125
vn 0.0000000 0.0000000 -1.0000000
f 244/244/61 241/241/61 242/242/61
f 242/242/61 243/243/61 244/244/61
g armrest_pad_fabric
usemtl fabric
v -0.1250000 0.9375000 0.7500000
v 0.0000000 0.9375000 0.7500000
v 0.0000000 1.0000000 0.7500000
v -0.1250000 1.0000000 0.7500000
vt 0.0000000 0.0000000
vt 0.0078125 0.0000000
vt 0.0078125 0.0039062
vt 0.0000000 0.0039062
vn 0.0000000 0.0000000 1.0000000
f 248/248/62 245/245/62 246/246/62
f 246/246/62 247/247/62 248/248/62
g armrest_pad_fabric
usemtl fabric
v -0.1250000 0.9375000 0.1250000
v -0.1250000 0.9375000 0.7500000
v -0.1250000 1.0000000 0.7500000
v -0.1250000 1.0000000 0.1250000
vt 0.0000000 0.0000000
vt 0.0390625 0.0000000
vt 0.0390625 0.0039062
vt 0.0000000 0.0039062
vn -1.0000000 0.0000000 0.0000000
f 252/252/63 249/249/63 250/250/63
f 250/250/63 251/251/63 252/252/63
g armrest_pad_fabric
usemtl fabric
v 0.0000000 0.9375000 0.1250000
v 0.0000000 1.0000000 0.1250000
v 0.0000000 1.0000000 0.7500000
v 0.0000000 0.9375000 0.7500000
vt 0.0000000 0.0000000
vt 0.0039062 0.0000000
vt 0.0039062 0.0390625
vt 0.0000000 0.0390625
vn 1.0000000 0.0000000 0.0000000
f 256/256/64 253/253/64 254/254/64
f 254/254/64 255/255/64 256/256/64
g armrest_pad_fabric
usemtl fabric
v -0.1250000 0.9375000 0.1250000
v 0.0000000 0.9375000 0.1250000
v 0.0000000 0.9375000 0.7500000
v -0.1250000 0.9375000 0.7500000
vt 0.0000000 0.0000000
vt 0.0078125 0.0000000
vt 0.0078125 0.0390625
vt 0.0000000 0.0390625
vn 0.0000000 -1.0000000 0.0000000
f 260/260/65 257/257/65 258/258/65
f 258/258/65 259/259/65 260/260/65
g armrest_pad_fabric
usemtl fabric
v -0.1250000 1.0000000 0.1250000
v -0.1250000 1.0000000 0.7500000
v 0.0000000 1.0000000 0.7500000
v 0.0000000 1.0000000 0.1250000
vt 0.0000000 0.0000000
vt 0.0390625 0.0000000
vt 0.0390625 0.0078125
vt 0.0000000 0.0078125
vn 0.0000000 1.0000000 0.0000000
f 264/264/66 261/261/66 262/262/66
f 262/262/66 263/263/66 264/264/66
g armrest_support_frame
usemtl frame
v 1.0000000 0.5625000 0.6875000
v 1.0000000 0.9375000 0.6875000
v 1.1250000 0.9375000 0.6875000
v 1.1250000 0.5625000 0.6875000
vt 0.0000000 0.0000000
vt 0.0234375 0.0000000
vt 0.0234375 0.0078125
vt 0.0000000 0.0078125
vn 0.0000000 0.0000000 -1.0000000
f 268/268/67 265/265/67 266/266/67
f 266/266/67 267/267/67 268/268/67
g armrest_support_frame
usemtl frame
v 1.0000000 0.5625000 0.9375000
v 1.1250000 0.5625000 0.9375000
v 1.1250000 0.9375000 0.9375000
v 1.0000000 0.9375000 0.9375000
vt 0.0000000 0.0000000
vt 0.0078125 0.0000000
vt 0.0078125 0.0234375
vt 0.0000000 0.0234375
vn 0.0000000 0.0000000 1.0000000
f 272/272/68 269/269/68 270/270/68
f 270/270/68 271/271/68 272/272/68
g armrest_support_frame
usemtl frame
v 1.0000000 0.5625000 0.6875000
v 1.0000000 0.5625000 0.9375000
v 1.0000000 0.9375000 0.9375000
v 1.0000000 0.9375000 0.6875000
vt 0.0000000 0.0000000
vt 0.0156250 0.0000000
vt 0.0156250 0.0234375
vt 0.0000000 0.0234375
vn -1.0000000 0.0000000 0.0000000
f 276/276/69 273/273/69 274/274/69
f 274/274/69 275/275/69 276/276/69
g armrest_support_frame
usemtl frame
v 1.1250000 0.5625000 0.6875000
v 1.1250000 0.9375000 0.6875000
v 1.1250000 0.9375000 0.9375000
v 1.1250000 0.5625000 0.9375000
vt 0.0000000 0.0000000
vt 0.0234375 0.0000000
vt 0.0234375 0.0156250
vt 0.0000000 0.0156250
vn 1.0000000 0.0000000 0.0000000
f 280/280/70 277/277/70 278/278/70
f 278/278/70 279/279/70 280/280/70
g armrest_support_frame
usemtl frame
v 1.0000000 0.5625000 0.6875000
v 1.1250000 0.5625000 0.6875000
v 1.1250000 0.5625000 0.9375000
v 1.0000000 0.5625000 0.9375000
vt 0.0000000 0.0000000
vt 0.0078125 0.0000000
vt 0.0078125 0.0156250
vt 0.0000000 0.0156250
vn 0.0000000 -1.0000000 0.0000000
f 284/284/71 281/281/71 282/282/71
f 282/282/71 283/283/71 284/284/71
g armrest_support_frame
usemtl frame
v 1.0000000 0.9375000 0.6875000
v 1.0000000 0.9375000 0.9375000
v 1.1250000 0.9375000 0.9375000
v 1.1250000 0.9375000 0.6875000
vt 0.0000000 0.0000000
vt 0.0156250 0.0000000
vt 0.0156250 0.0078125
vt 0.0000000 0.0078125
vn 0.0000000 1.0000000 0.0000000
f 288/288/72 285/285/72 286/286/72
f 286/286/72 287/287/72 288/288/72
g armrest_frame
usemtl frame
v 1.0000000 0.8750000 0.0625000
v 1.0000000 1.0000000 0.0625000
v 1.1250000 1.0000000 0.0625000
v 1.1250000 0.8750000 0.0625000
vt 0.0000000 0.0000000
vt 0.0078125 0.0000000
vt 0.0078125 0.0078125
vt 0.0000000 0.0078125
vn 0.0000000 0.0000000 -1.0000000
f 292/292/73 289/289/73 290/290/73
f 290/290/73 291/291/73 292/292/73
g armrest_frame
usemtl frame
v 1.0000000 0.8750000 0.9375000
v 1.1250000 0.8750000 0.9375000
v 1.1250000 1.0000000 0.9375000
v 1.0000000 1.0000000 0.9375000
vt 0.0000000 0.0000000
vt 0.0078125 0.0000000
vt 0.0078125 0.0078125
vt 0.0000000 0.0078125
vn 0.0000000 0.0000000 1.0000000
f 296/296/74 293/293/74 294/294/74
f 294/294/74 295/295/74 296/296/74
g armrest_frame
usemtl frame
v 1.0000000 0.8750000 0.0625000
v 1.0000000 0.8750000 0.9375000
v 1.0000000 1.0000000 0.9375000
v 1.0000000 1.0000000 0.0625000
vt 0.0000000 0.0000000
vt 0.0546875 0.0000000
vt 0.0546875 0.0078125
vt 0.0000000 0.0078125
vn -1.0000000 0.0000000 0.0000000
f 300/300/75 297/297/75 298/298/75
f 298/298/75 299/299/75 300/300/75
g armrest_frame
usemtl frame
v 1.1250000 0.8750000 0.0625000
v 1.1250000 1.0000000 0.0625000
v 1.1250000 1.0000000 0.9375000
v 1.1250000 0.8750000 0.9375000
vt 0.0000000 0.0000000
vt 0.0078125 0.0000000
vt 0.0078125 0.0546875
vt 0.0000000 0.0546875
vn 1.0000000 0.0000000 0.0000000
f 304/304/76 301/301/76 302/302/76
f 302/302/76 303/303/76 304/304/76
g armrest_frame
usemtl frame
v 1.0000000 0.8750000 0.0625000
v 1.1250000 0.8750000 0.0625000
v 1.1250000 0.8750000 0.9375000
v 1.0000000 0.8750000 0.9375000
vt 0.0000000 0.0000000
vt 0.0078125 0.0000000
vt 0.0078125 0.0546875
vt 0.0000000 0.0546875
vn 0.0000000 -1.0000000 0.0000000
f 308/308/77 305/305/77 306/306/77
f 306/306/77 307/307/77 308/308/77
g armrest_frame
usemtl frame
v 1.0000000 1.0000000 0.0625000
v 1.0000000 1.0000000 0.9375000
v 1.1250000 1.0000000 0.9375000
v 1.1250000 1.0000000 0.0625000
vt 0.0000000 0.0000000
vt 0.0546875 0.0000000
vt 0.0546875 0.0078125
vt 0.0000000 0.0078125
vn 0.0000000 1.0000000 0.0000000
f 312/312/78 309/309/78 310/310/78
f 310/310/78 311/311/78 312/312/78
g armrest_pad_fabric
usemtl fabric
v 1.0000000 0.9375000 0.1250000
v 1.0000000 1.0000000 0.1250000
v 1.1250000 1.0000000 0.1250000
v 1.1250000 0.9375000 0.1250000
vt 0.0000000 0.0000000
vt 0.0039062 0.0000000
vt 0.0039062 0.0078125
vt 0.0000000 0.0078125
vn 0.0000000 0.0000000 -1.0000000
f 316/316/79 313/313/79 314/314/79
f 314/314/79 315/315/79 316/316/79
g armrest_pad_fabric
usemtl fabric
v 1.0000000 0.9375000 0.7500000
v 1.1250000 0.9375000 0.7500000
v 1.1250000 1.0000000 0.7500000
v 1.0000000 1.0000000 0.7500000
vt 0.0000000 0.0000000
vt 0.0078125 0.0000000
vt 0.0078125 0.0039062
vt 0.0000000 0.0039062
vn 0.0000000 0.0000000 1.0000000
f 320/320/80 317/317/80 318/318/80
f 318/318/80 319/319/80 320/320/80
g armrest_pad_fabric
usemtl fabric
v 1.0000000 0.9375000 0.1250000
v 1.0000000 0.9375000 0.7500000
v 1.0000000 1.0000000 0.7500000
v 1.0000000 1.0000000 0.1250000
vt 0.0000000 0.0000000
vt 0.0390625 0.0000000
vt 0.0390625 0.0039062
vt 0.0000000 0.0039062
vn -1.0000000 0.0000000 0.0000000
f 324/324/81 321/321/81 322/322/81
f 322/322/81 323/323/81 324/324/81
g armrest_pad_fabric
usemtl fabric
v 1.1250000 0.9375000 0.1250000
v 1.1250000 1.0000000 0.1250000
v 1.1250000 1.0000000 0.7500000
v 1.1250000 0.9375000 0.7500000
vt 0.0000000 0.0000000
vt 0.0039062 0.0000000
vt 0.0039062 0.0390625
vt 0.0000000 0.0390625
vn 1.0000000 0.0000000 0.0000000
f 328/328/82 325/325/82 326/326/82
f 326/326/82 327/327/82 328/328/82
g armrest_pad_fabric
usemtl fabric
v 1.0000000 0.9375000 0.1250000
v 1.1250000 0.9375000 0.1250000
v 1.1250000 0.9375000 0.7500000
v 1.0000000 0.9375000 0.7500000
vt 0.0000000 0.0000000
vt 0.0078125 0.0000000
vt 0.0078125 0.0390625
vt 0.0000000 0.0390625
vn 0.0000000 -1.0000000 0.0000000
f 332/332/83 329/329/83 330/330/83
f 330/330/83 331/331/83 332/332/83
g armrest_pad_fabric
usemtl fabric
v 1.0000000 1.0000000 0.1250000
v 1.0000000 1.0000000 0.7500000
v 1.1250000 1.0000000 0.7500000
v 1.1250000 1.0000000 0.1250000
vt 0.0000000 0.0000000
vt 0.0390625 0.0000000
vt 0.0390625 0.0078125
vt 0.0000000 0.0078125
vn 0.0000000 1.0000000 0.0000000
f 336/336/84 333/333/84 334/334/84
f 334/334/84 335/335/84 336/336/84
